SplineFontDB: 3.2
FontName: SimplyMono-BoldOblique
FullName: Simply Mono Bold Oblique
FamilyName: Simply Mono
Weight: Bold
Copyright: Copyright (c) 2022-2026 by Wojciech Kalinowski "wmk69" with Reserved Font Name "SimplyMono-BoldOblique".\nThis Font Software is licensed under the SIL Open Font License, Version 1.1.
Version: 1.0.0; 2022-02-18
ItalicAngle: -10
UnderlinePosition: -80
UnderlineWidth: 270
Ascent: 1638
Descent: 410
InvalidEm: 0
LayerCount: 2
Layer: 0 1 "Warstwa t+AUIA-a" 1
Layer: 1 1 "Plan pierwszy" 0
XUID: [1021 783 23647091 11603082]
StyleMap: 0x0021
FSType: 0
OS2Version: 3
OS2_WeightWidthSlopeOnly: 0
OS2_UseTypoMetrics: 1
CreationTime: 1260698820
ModificationTime: 1646846745
PfmFamily: 49
TTFWeight: 700
TTFWidth: 5
LineGap: 200
VLineGap: 0
Panose: 2 11 8 9 2 2 3 13 2 4
OS2TypoAscent: 2000
OS2TypoAOffset: 0
OS2TypoDescent: -500
OS2TypoDOffset: 0
OS2TypoLinegap: 200
OS2WinAscent: 2000
OS2WinAOffset: 0
OS2WinDescent: 500
OS2WinDOffset: 0
HheadAscent: 2000
HheadAOffset: 0
HheadDescent: -500
HheadDOffset: 0
OS2SubXSize: 1434
OS2SubYSize: 1331
OS2SubXOff: 0
OS2SubYOff: 287
OS2SupXSize: 1434
OS2SupYSize: 1331
OS2SupXOff: 0
OS2SupYOff: 977
OS2StrikeYSize: 102
OS2StrikeYPos: 512
OS2CapHeight: 1510
OS2XHeight: 1100
OS2Vendor: '    '
OS2CodePages: 20000093.00000000
OS2UnicodeRanges: 8000002f.4000204b.00000000.00000000
MarkAttachClasses: 1
DEI: 91125
ShortTable: maxp 16
  0
  0
  0
  0
  0
  0
  0
  2
  1
  2
  22
  0
  256
  0
  0
  0
EndShort
TtTable: prep
PUSHW_1
 511
SCANCTRL
PUSHB_1
 1
SCANTYPE
SVTCA[y-axis]
MPPEM
PUSHB_1
 8
LT
IF
PUSHB_2
 1
 1
INSTCTRL
EIF
PUSHB_2
 70
 6
CALL
IF
POP
PUSHB_1
 16
EIF
MPPEM
PUSHB_1
 20
GT
IF
POP
PUSHB_1
 128
EIF
SCVTCI
PUSHB_1
 6
CALL
NOT
IF
SVTCA[y-axis]
PUSHB_1
 4
DUP
RCVT
PUSHB_1
 3
CALL
WCVTP
PUSHB_1
 6
DUP
RCVT
PUSHB_3
 4
 209
 2
CALL
PUSHB_1
 3
CALL
WCVTP
PUSHB_1
 5
DUP
RCVT
PUSHB_3
 6
 111
 2
CALL
PUSHB_1
 3
CALL
WCVTP
SVTCA[x-axis]
PUSHB_1
 7
DUP
RCVT
PUSHB_1
 3
CALL
WCVTP
PUSHB_1
 10
DUP
RCVT
PUSHB_3
 7
 181
 2
CALL

StartChar: .notdef
Encoding: 65536 -1 0
Width: 1200
Flags: W
HStem: 0 68<148 812> 1432 68<388 1052>
VStem: 68 800<0 800> 332 800<700 1500>
DStem2: 68 0 136.01 0 0.173648 0.984808<80.8588 1465.81> 800.01 0 868 0 0.173648 0.984808<69.049 1454>
LayerCount: 2
Fore
SplineSet
68 0 m 1,0,-1
 332 1500 l 1,1,-1
 1132 1500 l 1,2,-1
 868 0 l 1,3,-1
 68 0 l 1,0,-1
148 68 m 1,4,-1
 812 68 l 1,5,-1
 1052 1432 l 1,6,-1
 388 1432 l 1,7,-1
 148 68 l 1,4,-1
EndSplineSet
Validated: 19457
EndChar

StartChar: exclam
Encoding: 33 33 4
Width: 1200
GlyphClass: 2
Flags: W
HStem: -20 354<374.699 612.766> 1480 20G<623 858>
VStem: 314 358<39.6123 273.708> 450 232<437.935 564.496>
LayerCount: 2
Fore
SplineSet
493 -20 m 0,0,1
 419 -20 419 -20 368 29 c 0,2,3
 314 81 314 81 314 157 c 128,-1,4
 314 233 314 233 368 284 c 0,5,6
 421 334 421 334 493 334 c 0,7,8
 570 334 570 334 619 284 c 0,9,10
 672 230 672 230 672 157 c 0,11,12
 672 80 672 80 620 30 c 128,-1,13
 568 -20 568 -20 493 -20 c 0,0,1
658 1500 m 2,14,-1
 828 1500 l 2,15,16
 888 1499 888 1499 888 1452 c 0,17,18
 888 1442 888 1442 886 1431 c 2,19,-1
 682 499 l 2,20,21
 666 430 666 430 598 430 c 2,22,-1
 508 430 l 2,23,24
 450 430 450 430 450 482 c 0,25,26
 450 490 450 490 452 499 c 2,27,-1
 576 1431 l 1,28,29
 588 1500 588 1500 658 1500 c 2,14,-1
EndSplineSet
Validated: 19457
EndChar

StartChar: quotedbl
Encoding: 34 34 5
Width: 1200
GlyphClass: 2
Flags: W
HStem: 982 538<302.281 453.133 694.281 845.133>
VStem: 249 209<986.746 1102.42> 299 260<1280.77 1516.68> 641 209<986.746 1102.42> 691 260<1280.77 1516.68>
LayerCount: 2
Fore
SplineSet
761 1520 m 2,0,-1
 899 1520 l 2,1,2
 951 1520 951 1520 951 1478 c 0,3,4
 951 1468 951 1468 948 1455 c 2,5,-1
 850 1042 l 2,6,7
 836 982 836 982 775 982 c 2,8,-1
 695 982 l 2,9,10
 641 982 641 982 641 1029 c 0,11,12
 641 1033 641 1033 642 1042 c 2,13,-1
 690 1455 l 2,14,15
 691 1459 691 1459 691 1462 c 0,16,17
 701 1520 701 1520 761 1520 c 2,0,-1
369 1520 m 2,18,-1
 507 1520 l 2,19,20
 559 1520 559 1520 559 1478 c 0,21,22
 559 1468 559 1468 556 1455 c 2,23,-1
 458 1042 l 2,24,25
 444 982 444 982 383 982 c 2,26,-1
 303 982 l 2,27,28
 249 982 249 982 249 1029 c 0,29,30
 249 1033 249 1033 250 1042 c 2,31,-1
 298 1455 l 2,32,33
 299 1459 299 1459 299 1462 c 0,34,35
 309 1520 309 1520 369 1520 c 2,18,-1
EndSplineSet
Validated: 19457
EndChar

StartChar: numbersign
Encoding: 35 35 6
Width: 1200
GlyphClass: 2
Flags: W
HStem: 488 190<42.6309 287 511 629 853 1097.37> 829 190<102.631 347 571 689 913 1157.37>
DStem2: 238.889 216 428.889 216 0.173648 0.984808<33.9184 276.222 502.233 622.46 848.471 1090.78> 580.889 216 770.889 216 0.173648 0.984808<33.9184 276.222 502.233 622.46 848.471 1090.78>
LayerCount: 2
Fore
SplineSet
475 1290 m 2,0,-1
 575 1290 l 2,1,2
 612 1290 612 1290 612 1258 c 0,3,4
 612 1252 612 1252 611 1246 c 2,5,-1
 571 1019 l 1,6,-1
 723 1019 l 1,7,-1
 763 1246 l 2,8,9
 771 1290 771 1290 815 1290 c 2,10,-1
 915 1290 l 2,11,12
 954 1290 954 1290 954 1258 c 0,13,14
 954 1252 954 1252 953 1246 c 2,15,-1
 913 1019 l 1,16,-1
 1139 1019 l 2,17,18
 1177 1019 1177 1019 1177 987 c 0,19,20
 1177 981 1177 981 1176 974 c 2,21,-1
 1158 874 l 2,22,23
 1150 829 1150 829 1105 829 c 2,24,-1
 879 829 l 1,25,-1
 853 678 l 1,26,-1
 1079 678 l 2,27,28
 1117 678 1117 678 1117 646 c 0,29,30
 1117 640 1117 640 1116 633 c 2,31,-1
 1098 533 l 2,32,33
 1090 488 1090 488 1045 488 c 2,34,-1
 819 488 l 1,35,-1
 779 262 l 2,36,37
 771 216 771 216 725 216 c 2,38,-1
 625 216 l 2,39,40
 588 216 588 216 588 249 c 0,41,42
 588 255 588 255 589 262 c 2,43,-1
 629 488 l 1,44,-1
 477 488 l 1,45,-1
 437 262 l 2,46,47
 429 216 429 216 385 216 c 2,48,-1
 283 216 l 2,49,50
 246 216 246 216 246 249 c 0,51,52
 246 255 246 255 247 262 c 2,53,-1
 287 488 l 1,54,-1
 61 488 l 2,55,56
 23 488 23 488 23 520 c 0,57,58
 23 526 23 526 24 533 c 2,59,-1
 42 634 l 2,60,61
 50 678 50 678 95 678 c 2,62,-1
 321 678 l 1,63,-1
 347 829 l 1,64,-1
 121 829 l 2,65,66
 83 829 83 829 83 861 c 0,67,68
 83 867 83 867 84 874 c 2,69,-1
 102 975 l 2,70,71
 110 1019 110 1019 155 1019 c 2,72,-1
 381 1019 l 1,73,-1
 421 1246 l 2,74,75
 429 1290 429 1290 475 1290 c 2,0,-1
511 678 m 1,76,-1
 663 678 l 1,77,-1
 689 829 l 1,78,-1
 537 829 l 1,79,-1
 511 678 l 1,76,-1
EndSplineSet
Validated: 19457
EndChar

StartChar: dollar
Encoding: 36 36 7
Width: 1200
GlyphClass: 2
Flags: W
HStem: -20 250<377.86 512>
VStem: 342 267<1030.02 1228.75> 836 277<357.984 589.94>
DStem2: 483.829 -180 613.829 -180 0.173648 0.984808<24.6876 162.461 479.486 842.987 1192.14 1452.28 1726.94 1893.8>
LayerCount: 2
Fore
SplineSet
512 -20 m 1,0,1
 200 -20 200 -20 85 184 c 0,2,3
 76 200 76 200 76 219 c 0,4,5
 76 256 76 256 122 282 c 2,6,-1
 236 347 l 2,7,8
 262 362 262 362 281 362 c 0,9,10
 306 362 306 362 328 327 c 0,11,12
 392 230 392 230 529 230 c 0,13,14
 543 230 543 230 556 231 c 1,15,-1
 638 698 l 1,16,-1
 543 750 l 2,17,18
 342 860 342 860 342 1076 c 0,19,20
 342 1106 342 1106 346 1139 c 0,21,22
 369 1328 369 1328 528 1441 c 0,23,24
 638 1519 638 1519 783 1520 c 1,25,-1
 807 1655 l 2,26,27
 813 1690 813 1690 848 1690 c 2,28,-1
 908 1690 l 2,29,30
 938 1690 938 1690 938 1663 c 0,31,32
 938 1661 938 1661 937 1655 c 2,33,-1
 911 1505 l 1,34,35
 1035 1471 1035 1471 1096 1361 c 0,36,37
 1106 1343 1106 1343 1106 1325 c 0,38,39
 1106 1290 1106 1290 1059 1263 c 2,40,-1
 957 1205 l 2,41,42
 931 1190 931 1190 911 1190 c 0,43,44
 889 1190 889 1190 862 1228 c 1,45,-1
 809 928 l 1,46,-1
 903 877 l 2,47,48
 1113 763 1113 763 1113 516 c 0,49,50
 1113 495 1113 495 1112 474 c 0,51,52
 1099 279 1099 279 950 144 c 0,53,54
 817 24 817 24 644 -8 c 1,55,-1
 620 -145 l 2,56,57
 614 -180 614 -180 579 -180 c 2,58,-1
 519 -180 l 2,59,60
 489 -180 489 -180 489 -156 c 0,61,62
 489 -151 489 -151 490 -145 c 2,63,-1
 512 -20 l 1,0,1
691 994 m 1,64,-1
 739 1269 l 1,65,66
 690 1264 690 1264 659 1237 c 0,67,68
 620 1203 620 1203 611 1147 c 0,69,70
 609 1135 609 1135 609 1123 c 0,71,72
 609 1051 609 1051 691 994 c 1,64,-1
756 628 m 1,73,-1
 693 270 l 1,74,75
 719 285 719 285 743 304 c 0,76,77
 816 366 816 366 833 456 c 0,78,79
 836 472 836 472 836 486 c 0,80,81
 836 566 836 566 756 628 c 1,73,-1
EndSplineSet
Validated: 19457
EndChar

StartChar: percent
Encoding: 37 37 8
Width: 1200
GlyphClass: 2
Flags: W
HStem: -20 172<699.181 876.807> 425 171<728.955 908.375> 904 172<292.181 469.807> 1349 171<321.955 501.375>
VStem: 90 180<1105.06 1295.9> 497 180<181.058 371.901> 523 180<1128.28 1318.94> 930 180<204.283 394.942>
DStem2: 26 85 1176 1415 0.590319 0.80717<-38.1462 1787.73>
LayerCount: 2
Fore
SplineSet
828 425 m 0,0,1
 777 425 777 425 733 384.5 c 128,-1,2
 689 344 689 344 679 288 c 16,3,4
 677 274 677 274 677 261 c 0,5,6
 677 222 677 222 699 192 c 0,7,8
 728 152 728 152 779 152 c 128,-1,9
 830 152 830 152 874 192 c 0,10,11
 917 232 917 232 927 288 c 16,12,13
 929 302 929 302 930 315 c 0,14,15
 930 354 930 354 908 384 c 0,16,17
 879 424 879 424 828 425 c 0,0,1
837.5 596 m 128,-1,19
 975 596 975 596 1047 506 c 0,20,21
 1110 426 1110 426 1110 317 c 0,22,23
 1110 302 1110 302 1109 288 c 8,24,25
 1099 161 1099 161 1001 70.5 c 128,-1,26
 903 -20 903 -20 769 -20 c 128,-1,27
 635 -20 635 -20 562 70 c 0,28,29
 497 150 497 150 497 259 c 0,30,31
 497 273 497 273 499 288 c 8,32,33
 509 415 509 415 604.5 505.5 c 128,-1,18
 700 596 700 596 837.5 596 c 128,-1,19
102 -20 m 0,34,35
 89 -20 89 -20 75 -11 c 2,36,-1
 31 17 l 2,37,38
 10 31 10 31 10 49 c 0,39,40
 10 63 10 63 26 85 c 2,41,-1
 1055 1492 l 2,42,43
 1075 1520 1075 1520 1098 1520 c 0,44,45
 1113 1520 1113 1520 1127 1511 c 2,46,-1
 1170 1483 l 2,47,48
 1190 1470 1190 1470 1190 1449 c 0,49,50
 1190 1434 1190 1434 1176 1415 c 2,51,-1
 147 8 l 2,52,53
 127 -20 127 -20 102 -20 c 0,34,35
421 1349 m 0,54,55
 370 1349 370 1349 326 1308.5 c 128,-1,56
 282 1268 282 1268 272 1212 c 16,57,58
 270 1198 270 1198 270 1185 c 0,59,60
 270 1146 270 1146 292 1116 c 0,61,62
 321 1076 321 1076 372 1076 c 128,-1,63
 423 1076 423 1076 467 1116 c 0,64,65
 510 1156 510 1156 520 1212 c 16,66,67
 522 1226 522 1226 523 1239 c 0,68,69
 523 1278 523 1278 501 1308 c 0,70,71
 472 1348 472 1348 421 1349 c 0,54,55
430.5 1520 m 128,-1,73
 568 1520 568 1520 640 1430 c 0,74,75
 703 1350 703 1350 703 1241 c 0,76,77
 703 1226 703 1226 702 1212 c 8,78,79
 692 1085 692 1085 594 994.5 c 128,-1,80
 496 904 496 904 362 904 c 128,-1,81
 228 904 228 904 155 994 c 0,82,83
 90 1074 90 1074 90 1183 c 0,84,85
 90 1197 90 1197 92 1212 c 8,86,87
 102 1339 102 1339 197.5 1429.5 c 128,-1,72
 293 1520 293 1520 430.5 1520 c 128,-1,73
EndSplineSet
Validated: 19457
EndChar

StartChar: quotesingle
Encoding: 39 39 9
Width: 1200
GlyphClass: 2
Flags: W
HStem: 982 538<498.281 649.133>
VStem: 445 209<986.746 1102.42> 495 260<1280.77 1516.68>
LayerCount: 2
Fore
SplineSet
565 1520 m 2,0,-1
 703 1520 l 2,1,2
 755 1520 755 1520 755 1478 c 0,3,4
 755 1468 755 1468 752 1455 c 2,5,-1
 654 1042 l 2,6,7
 640 982 640 982 579 982 c 2,8,-1
 499 982 l 2,9,10
 445 982 445 982 445 1029 c 0,11,12
 445 1033 445 1033 446 1042 c 2,13,-1
 494 1455 l 2,14,15
 495 1459 495 1459 495 1462 c 0,16,17
 505 1520 505 1520 565 1520 c 2,0,-1
EndSplineSet
Validated: 19457
EndChar

StartChar: parenleft
Encoding: 40 40 10
Width: 1200
GlyphClass: 2
Flags: W
VStem: 290 272<120.993 839.955>
LayerCount: 2
Fore
SplineSet
535 -250 m 2,0,1
 477 -250 477 -250 449 -197 c 0,2,3
 290 108 290 108 290 459 c 0,4,5
 290 603 290 603 317 755 c 0,6,7
 408 1273 408 1273 785 1707 c 0,8,9
 831 1760 831 1760 889 1760 c 2,10,-1
 1016 1760 l 2,11,12
 1064 1760 1064 1760 1064 1732 c 0,13,14
 1064 1715 1064 1715 1046 1695 c 0,15,16
 670 1233 670 1233 586 755 c 0,17,18
 562 616 562 616 562 480 c 0,19,20
 562 139 562 139 714 -185 c 0,21,22
 722 -202 722 -202 722 -218 c 0,23,24
 722 -250 722 -250 662 -250 c 2,25,-1
 535 -250 l 2,0,1
EndSplineSet
Validated: 19457
EndChar

StartChar: parenright
Encoding: 41 41 11
Width: 1200
GlyphClass: 2
Flags: W
VStem: 638 272<670.045 1389.01>
LayerCount: 2
Fore
SplineSet
665 1760 m 2,0,1
 723 1760 723 1760 751 1707 c 0,2,3
 910 1402 910 1402 910 1051 c 0,4,5
 910 907 910 907 883 755 c 0,6,7
 792 237 792 237 415 -197 c 0,8,9
 369 -250 369 -250 311 -250 c 2,10,-1
 184 -250 l 2,11,12
 136 -250 136 -250 136 -222 c 0,13,14
 136 -205 136 -205 154 -185 c 0,15,16
 530 277 530 277 614 755 c 0,17,18
 638 894 638 894 638 1030 c 0,19,20
 638 1371 638 1371 486 1695 c 0,21,22
 478 1712 478 1712 478 1728 c 0,23,24
 478 1760 478 1760 538 1760 c 2,25,-1
 665 1760 l 2,0,1
EndSplineSet
Validated: 19457
EndChar

StartChar: asterisk
Encoding: 42 42 12
Width: 1200
GlyphClass: 2
Flags: W
HStem: 1500 20G<598 740>
VStem: 442 190<717.55 842.603>
DStem2: 434.684 717 624.684 717 0.173648 0.984808<46.5716 260.965 587.597 815.623>
LayerCount: 2
Fore
SplineSet
620 1520 m 2,0,-1
 720 1520 l 2,1,2
 760 1520 760 1520 760 1488 c 0,3,4
 760 1483 760 1483 758 1476 c 2,5,-1
 722 1263 l 1,6,-1
 908 1380 l 2,7,8
 920 1388 920 1388 936 1388 c 0,9,10
 956 1388 956 1388 966 1363 c 2,11,-1
 1000 1277 l 2,12,13
 1004 1267 1004 1267 1004 1255 c 0,14,15
 1004 1229 1004 1229 974 1215 c 2,16,-1
 770 1118 l 1,17,-1
 938 1023 l 2,18,19
 958 1012 958 1012 958 993 c 0,20,21
 958 979 958 979 944 960 c 2,22,-1
 880 874 l 2,23,24
 862 850 862 850 842 850 c 0,25,26
 824 850 824 850 814 858 c 2,27,-1
 670 974 l 1,28,-1
 632 763 l 2,29,30
 624 717 624 717 578 717 c 2,31,-1
 478 717 l 2,32,33
 442 717 442 717 442 750 c 0,34,35
 442 756 442 756 442 763 c 2,36,-1
 480 974 l 1,37,-1
 294 858 l 2,38,39
 280 850 280 850 266 850 c 0,40,41
 244 850 244 850 234 875 c 2,42,-1
 200 962 l 2,43,44
 196 972 196 972 196 980 c 0,45,46
 196 1007 196 1007 228 1023 c 2,47,-1
 430 1118 l 1,48,-1
 260 1215 l 2,49,50
 242 1225 242 1225 242 1243 c 0,51,52
 242 1258 242 1258 256 1275 c 2,53,-1
 320 1362 l 2,54,55
 338 1387 338 1387 360 1387 c 0,56,57
 374 1387 374 1387 384 1380 c 2,58,-1
 532 1263 l 1,59,-1
 568 1476 l 2,60,61
 576 1520 576 1520 620 1520 c 2,0,-1
EndSplineSet
Validated: 19457
EndChar

StartChar: plus
Encoding: 43 43 13
Width: 1200
GlyphClass: 2
Flags: W
HStem: 635 240<155.268 459 741 1044.73>
DStem2: 398.657 294 638.657 294 0.173648 0.984808<52.2985 346.298 631.621 925.62>
LayerCount: 2
Fore
SplineSet
631 1216 m 2,0,-1
 731 1216 l 2,1,2
 791 1216 791 1216 791 1165 c 0,3,4
 791 1156 791 1156 789 1146 c 2,5,-1
 741 875 l 1,6,-1
 1012 875 l 2,7,8
 1072 875 1072 875 1072 824 c 0,9,10
 1072 815 1072 815 1070 805 c 2,11,-1
 1052 705 l 2,12,13
 1040 635 1040 635 970 635 c 2,14,-1
 699 635 l 1,15,-1
 651 364 l 2,16,17
 639 294 639 294 569 294 c 2,18,-1
 469 294 l 2,19,20
 409 294 409 294 409 345 c 0,21,22
 409 354 409 354 411 364 c 2,23,-1
 459 635 l 1,24,-1
 188 635 l 2,25,26
 128 635 128 635 128 686 c 0,27,28
 128 695 128 695 130 705 c 2,29,-1
 148 805 l 2,30,31
 160 875 160 875 230 875 c 2,32,-1
 501 875 l 1,33,-1
 549 1146 l 2,34,35
 561 1216 561 1216 631 1216 c 2,0,-1
EndSplineSet
Validated: 19457
EndChar

StartChar: comma
Encoding: 44 44 14
Width: 1200
GlyphClass: 2
Flags: W
HStem: -317 637
VStem: 538 246<-84.4434 169.374>
LayerCount: 2
Fore
SplineSet
677 320 m 0,0,1
 699 320 699 320 721 297 c 0,2,3
 784 228 784 228 784 116 c 0,4,5
 784 77 784 77 776 32 c 0,6,7
 744 -152 744 -152 566 -296 c 0,8,9
 540 -317 540 -317 517 -317 c 0,10,11
 498 -317 498 -317 481 -302 c 2,12,-1
 431 -259 l 2,13,14
 416 -246 416 -246 416 -231 c 0,15,16
 416 -213 416 -213 438 -195 c 0,17,18
 511 -132 511 -132 532 -12 c 0,19,20
 538 22 538 22 538 50 c 0,21,22
 538 114 538 114 507 149 c 0,23,24
 488 171 488 171 488 189 c 0,25,26
 488 218 488 218 531 244 c 2,27,-1
 635 307 l 2,28,29
 656 320 656 320 677 320 c 0,0,1
EndSplineSet
Validated: 19457
EndChar

StartChar: hyphen
Encoding: 45 45 15
Width: 1200
GlyphClass: 2
Flags: W
HStem: 635 240<155.268 1044.73>
LayerCount: 2
Fore
SplineSet
230 875 m 2,0,-1
 1012 875 l 2,1,2
 1072 875 1072 875 1072 824 c 0,3,4
 1072 815 1072 815 1070 805 c 2,5,-1
 1052 705 l 2,6,7
 1040 635 1040 635 970 635 c 2,8,-1
 188 635 l 2,9,10
 128 635 128 635 128 686 c 0,11,12
 128 695 128 695 130 705 c 2,13,-1
 148 805 l 2,14,15
 160 875 160 875 230 875 c 2,0,-1
EndSplineSet
Validated: 19457
EndChar

StartChar: period
Encoding: 46 46 16
Width: 1200
GlyphClass: 2
Flags: W
HStem: -20 354<481.699 719.766>
VStem: 421 358<39.6123 273.708>
LayerCount: 2
Fore
SplineSet
600 -20 m 0,0,1
 526 -20 526 -20 475 29 c 0,2,3
 421 81 421 81 421 157 c 128,-1,4
 421 233 421 233 475 284 c 0,5,6
 528 334 528 334 600 334 c 0,7,8
 677 334 677 334 726 284 c 0,9,10
 779 230 779 230 779 157 c 0,11,12
 779 80 779 80 727 30 c 128,-1,13
 675 -20 675 -20 600 -20 c 0,0,1
EndSplineSet
Validated: 19457
EndChar

StartChar: slash
Encoding: 47 47 17
Width: 1200
GlyphClass: 2
Flags: W
DStem2: 24 -53 225 -163 0.481938 0.876205<-52.5499 2026.32>
LayerCount: 2
Fore
SplineSet
1028 1712 m 0,0,1
 1048 1712 1048 1712 1068 1702 c 2,2,-1
 1162 1656 l 2,3,4
 1195 1640 1195 1640 1195 1616 c 0,5,6
 1195 1601 1195 1601 1176 1566 c 2,7,-1
 225 -163 l 2,8,9
 204 -201 204 -201 173 -201 c 0,10,11
 153 -201 153 -201 133 -191 c 2,12,-1
 38 -144 l 2,13,14
 5 -128 5 -128 5 -103 c 0,15,16
 5 -88 5 -88 24 -53 c 2,17,-1
 972 1669 l 2,18,19
 996 1712 996 1712 1028 1712 c 0,0,1
EndSplineSet
Validated: 19457
EndChar

StartChar: zero
Encoding: 48 48 18
Width: 1200
GlyphClass: 2
Flags: W
HStem: -20 250<396.946 635.67> 571 354<482.699 720.766> 1270 250<557.676 809.903>
VStem: 26 266<352.94 864.188> 422 358<630.612 864.708> 907 267<630.595 1154.73>
LayerCount: 2
Fore
SplineSet
601 571 m 0,0,1
 527 571 527 571 476 620 c 0,2,3
 422 672 422 672 422 748 c 128,-1,4
 422 824 422 824 476 875 c 0,5,6
 529 925 529 925 601 925 c 0,7,8
 678 925 678 925 727 875 c 0,9,10
 780 821 780 821 780 748 c 0,11,12
 780 671 780 671 728 621 c 128,-1,13
 676 571 676 571 601 571 c 0,0,1
509 230 m 152,-1,15
 625 230 625 230 735 365 c 0,16,17
 846 501 846 501 890 751 c 0,18,19
 907 846 907 846 907 928 c 0,20,21
 907 1047 907 1047 871 1135 c 0,22,23
 816 1270 816 1270 692 1270 c 152,-1,24
 568 1270 568 1270 465 1135 c 0,25,26
 352 986 352 986 310 751 c 0,27,28
 292 648 292 648 292 565 c 0,29,30
 292 445 292 445 329 365 c 0,31,14
 393 230 393 230 509 230 c 152,-1,15
484 -20 m 0,32,33
 224 -20 224 -20 110 214 c 0,34,35
 26 385 26 385 26 593 c 0,36,37
 26 669 26 669 37 749 c 0,38,39
 80 1071 80 1071 234 1265 c 0,40,41
 435 1520 435 1520 716 1520 c 0,42,43
 959 1520 959 1520 1091 1286 c 0,44,45
 1174 1138 1174 1138 1174 920 c 0,46,47
 1174 839 1174 839 1163 749 c 0,48,49
 1129 467 1129 467 964 236 c 0,50,51
 781 -20 781 -20 484 -20 c 0,32,33
EndSplineSet
Validated: 19457
EndChar

StartChar: one
Encoding: 49 49 19
Width: 1200
GlyphClass: 2
Flags: W
HStem: 0 250<159.663 454 724 974.337> 1480 20G<654.5 904>
VStem: 130 874<20.636 229.364>
DStem2: 409.918 0 679.918 0 0.173648 0.984808<300.742 1143.46>
LayerCount: 2
Fore
SplineSet
190 0 m 2,0,1
 130 0 130 0 130 50 c 0,2,3
 130 59 130 59 132 69 c 2,4,-1
 152 181 l 2,5,6
 164 250 164 250 234 250 c 2,7,-1
 454 250 l 1,8,-1
 609 1126 l 1,9,-1
 523 1020 l 2,10,11
 479 966 479 966 432 966 c 2,12,-1
 278 966 l 2,13,14
 231 966 231 966 231 993 c 0,15,16
 231 1012 231 1012 252 1038 c 2,17,-1
 586 1451 l 2,18,19
 626 1500 626 1500 683 1500 c 2,20,-1
 874 1500 l 2,21,22
 934 1500 934 1500 934 1450 c 0,23,24
 934 1441 934 1441 932 1431 c 2,25,-1
 724 250 l 25,26,-1
 944 250 l 2,27,28
 1004 250 1004 250 1004 200 c 0,29,30
 1004 191 1004 191 1002 181 c 2,31,-1
 982 69 l 2,32,33
 970 0 970 0 900 0 c 2,34,-1
 190 0 l 2,0,1
EndSplineSet
Validated: 19457
EndChar

StartChar: two
Encoding: 50 50 20
Width: 1200
GlyphClass: 2
Flags: W
HStem: 0 252<360 1009.88> 1260 260<553.826 850.248>
VStem: 916 270<921.384 1196.63>
DStem2: 379 566 533 381 0.851133 0.52495<-174.642 607.55>
LayerCount: 2
Fore
SplineSet
59 0 m 2,0,1
 8 0 8 0 8 43 c 0,2,3
 8 51 8 51 10 60 c 0,4,5
 65 372 65 372 379 566 c 2,6,-1
 713 772 l 2,7,8
 886 879 886 879 911 1022 c 0,9,10
 916 1050 916 1050 916 1075 c 0,11,12
 916 1152 916 1152 870 1198 c 0,13,14
 809 1260 809 1260 702.5 1260 c 128,-1,15
 596 1260 596 1260 510 1182 c 0,16,17
 497 1170 497 1170 457 1123 c 24,18,19
 428 1088 428 1088 398 1088 c 0,20,21
 379 1088 379 1088 358 1103 c 2,22,-1
 261 1172 l 2,23,24
 233 1192 233 1192 233 1219 c 0,25,26
 233 1241 233 1241 258 1270 c 0,27,28
 314 1336 314 1336 353 1369 c 0,29,30
 531 1520 531 1520 728 1520 c 0,31,32
 949 1520 949 1520 1073 1381 c 0,33,34
 1186 1256 1186 1256 1186 1084 c 0,35,36
 1186 1061 1186 1061 1184 1037 c 0,37,38
 1162 769 1162 769 836 568 c 2,39,-1
 533 381 l 2,40,41
 434 320 434 320 360 252 c 1,42,-1
 988 252 l 2,43,44
 1038 252 1038 252 1038 209 c 0,45,46
 1038 202 1038 202 1037 193 c 2,47,-1
 1014 60 l 2,48,49
 1004 0 1004 0 943 0 c 2,50,-1
 59 0 l 2,0,1
EndSplineSet
Validated: 19457
EndChar

StartChar: three
Encoding: 51 51 21
Width: 1200
GlyphClass: 2
Flags: W
HStem: -20 252<336.957 647.464> 1248 252<308.125 782>
VStem: 800 269<382.154 662.793>
LayerCount: 2
Fore
SplineSet
458 -20 m 0,0,1
 205 -20 205 -20 78 132 c 0,2,3
 42 175 42 175 25 205 c 0,4,5
 15 223 15 223 15 240 c 0,6,7
 15 275 15 275 63 303 c 2,8,-1
 176 368 l 2,9,10
 202 383 202 383 222 383 c 0,11,12
 250 383 250 383 269 348 c 24,13,14
 283 323 283 323 302 304 c 0,15,16
 372 232 372 232 482 232 c 0,17,18
 611 232 611 232 702 316 c 0,19,20
 779 387 779 387 796 488 c 0,21,22
 800 514 800 514 800 537 c 0,23,24
 800 597 800 597 771 644 c 0,25,26
 718 727 718 727 569 727 c 2,27,-1
 333 727 l 2,28,29
 295 727 295 727 295 757 c 0,30,31
 295 776 295 776 335 815 c 2,32,-1
 782 1248 l 1,33,-1
 330 1248 l 2,34,35
 280 1248 280 1248 280 1291 c 0,36,37
 280 1298 280 1298 281 1307 c 2,38,-1
 304 1440 l 2,39,40
 314 1500 314 1500 375 1500 c 2,41,-1
 1103 1500 l 2,42,43
 1154 1500 1154 1500 1154 1457 c 0,44,45
 1154 1449 1154 1449 1152 1440 c 2,46,-1
 1129 1307 l 2,47,48
 1122 1265 1122 1265 1084 1230 c 2,49,-1
 771 940 l 1,50,51
 884 916 884 916 967 828 c 0,52,53
 1069 720 1069 720 1069 556 c 0,54,55
 1069 524 1069 524 1065 488 c 0,56,57
 1040 268 1040 268 879 129 c 0,58,59
 706 -20 706 -20 458 -20 c 0,0,1
EndSplineSet
Validated: 19457
EndChar

StartChar: four
Encoding: 52 52 22
Width: 1200
GlyphClass: 2
Flags: W
HStem: 0 21G<710 905> 275 250<362 718> 1080 20G<899 1094> 1480 20G<672 852.5>
DStem2: 57 505 362 525 0.502361 0.864658<170.513 1173.84> 669.833 0 939.833 0 0.173648 0.984808<51.2831 279.186 533.029 1112.64>
LayerCount: 2
Fore
SplineSet
740 0 m 2,0,1
 680 0 680 0 680 50 c 0,2,3
 680 59 680 59 682 69 c 2,4,-1
 718 275 l 1,5,-1
 80 275 l 2,6,7
 20 275 20 275 20 325 c 0,8,9
 20 334 20 334 22 344 c 2,10,-1
 46 476 l 2,11,12
 49 491 49 491 57 505 c 2,13,-1
 595 1431 l 2,14,15
 635 1500 635 1500 709 1500 c 2,16,-1
 821 1500 l 2,17,18
 884 1500 884 1500 884 1467 c 0,19,20
 884 1454 884 1454 871 1431 c 2,21,-1
 362 525 l 1,22,-1
 762 525 l 1,23,-1
 852 1031 l 2,24,25
 864 1100 864 1100 934 1100 c 2,26,-1
 1064 1100 l 2,27,28
 1124 1100 1124 1100 1124 1050 c 0,29,30
 1124 1041 1124 1041 1122 1031 c 2,31,-1
 952 69 l 2,32,33
 940 0 940 0 870 0 c 2,34,-1
 740 0 l 2,0,1
EndSplineSet
Validated: 19457
EndChar

StartChar: five
Encoding: 53 53 23
Width: 1200
GlyphClass: 2
Flags: W
HStem: -20 250<368.643 685.271> 726 250<573 763.281> 1250 250<644 1116.75>
VStem: 835 271<375.514 657.195>
LayerCount: 2
Fore
SplineSet
493 -20 m 0,0,1
 248 -20 248 -20 116 130 c 0,2,3
 86 164 86 164 63 204 c 0,4,5
 53 222 53 222 53 238 c 0,6,7
 53 275 53 275 100 302 c 2,8,-1
 214 367 l 2,9,10
 240 382 240 382 259 382 c 0,11,12
 289 382 289 382 306 347 c 0,13,14
 317 323 317 323 338 300 c 0,15,16
 403 230 403 230 518 230 c 0,17,18
 646 230 646 230 739 313 c 0,19,20
 812 378 812 378 830 482 c 0,21,22
 835 510 835 510 835 536 c 0,23,24
 835 604 835 604 799 649 c 0,25,26
 737 726 737 726 605 726 c 2,27,-1
 297 726 l 2,28,29
 245 726 245 726 245 759 c 0,30,31
 245 770 245 770 247 778 c 2,32,-1
 414 1440 l 2,33,34
 429 1500 429 1500 483 1500 c 2,35,-1
 1094 1500 l 2,36,37
 1146 1500 1146 1500 1146 1459 c 0,38,39
 1146 1452 1146 1452 1145 1445 c 2,40,-1
 1121 1309 l 2,41,42
 1111 1250 1111 1250 1050 1250 c 2,43,-1
 644 1250 l 1,44,-1
 573 976 l 1,45,-1
 649 976 l 2,46,47
 877 976 877 976 1008 834 c 0,48,49
 1106 729 1106 729 1106 553 c 0,50,51
 1106 520 1106 520 1102 484 c 0,52,53
 1082 272 1082 272 916 129 c 0,54,55
 743 -20 743 -20 493 -20 c 0,0,1
EndSplineSet
Validated: 19457
EndChar

StartChar: six
Encoding: 54 54 24
Width: 1200
GlyphClass: 2
Flags: W
HStem: -20 259<410.105 706.343> 1480 20G<855.5 1111.5>
VStem: 66 267<317.047 597.968> 853 276<386.464 671.945>
DStem2: 263 872 683 993 0.669256 0.743032<370.994 759.052 880.893 885.223>
LayerCount: 2
Fore
SplineSet
1089 1500 m 2,0,1
 1134 1500 1134 1500 1134 1470 c 0,2,3
 1134 1457 1134 1457 1112 1434 c 2,4,-1
 683 993 l 1,5,6
 888 992 888 992 1023 847 c 0,7,8
 1129 732 1129 732 1129 561 c 0,9,10
 1129 524 1129 524 1124 485 c 0,11,12
 1098 266 1098 266 924 122 c 0,13,14
 752 -20 752 -20 527 -20 c 0,15,16
 308 -20 308 -20 179 123 c 0,17,18
 66 249 66 249 66 419 c 0,19,20
 66 448 66 448 69 479 c 0,21,22
 91 681 91 681 263 872 c 2,23,-1
 771 1436 l 2,24,25
 829 1500 829 1500 882 1500 c 2,26,-1
 1089 1500 l 2,0,1
549 239 m 0,27,28
 658 240 658 240 744 310 c 0,29,30
 835 384 835 384 850 496 c 0,31,32
 853 517 853 517 853 543 c 0,33,34
 853 623 853 623 805 680 c 0,35,36
 743 753 743 753 638 753 c 128,-1,37
 533 753 533 753 445.5 681 c 128,-1,38
 358 609 358 609 338 496 c 0,39,40
 333 469 333 469 333 444 c 0,41,42
 333 368 333 368 380 312 c 0,43,44
 442 240 442 240 549 239 c 0,27,28
EndSplineSet
Validated: 19457
EndChar

StartChar: seven
Encoding: 55 55 25
Width: 1200
GlyphClass: 2
Flags: W
HStem: 0 21G<106 307> 1250 250<173.663 786>
VStem: 144 982<1270 1479.36>
DStem2: 88 69 384 69 0.506769 0.862082<45.499 1371.84>
LayerCount: 2
Fore
SplineSet
138 0 m 2,0,1
 74 0 74 0 74 32 c 0,2,3
 74 44 74 44 88 69 c 2,4,-1
 786 1250 l 1,5,-1
 204 1250 l 2,6,7
 144 1250 144 1250 144 1300 c 0,8,9
 144 1309 144 1309 146 1319 c 2,10,-1
 166 1431 l 2,11,12
 178 1500 178 1500 248 1500 c 2,13,-1
 1066 1500 l 2,14,15
 1126 1500 1126 1500 1126 1450 c 0,16,17
 1126 1441 1126 1441 1124 1431 c 2,18,-1
 1104 1319 l 2,19,20
 1098 1285 1098 1285 1090 1270 c 2,21,-1
 384 69 l 2,22,23
 344 0 344 0 270 0 c 2,24,-1
 138 0 l 2,0,1
EndSplineSet
Validated: 19457
EndChar

StartChar: eight
Encoding: 56 56 26
Width: 1200
GlyphClass: 2
Flags: W
HStem: -20 245<406.076 700.719> 700 241<554.672 769.951> 1268 252<596.567 844.432>
VStem: 62 272<298.984 561.938> 256 264<981.922 1194.75> 840 280<361.339 630.802> 884 254<1020.85 1224.62>
LayerCount: 2
Fore
SplineSet
670 941 m 0,0,1
 746 941 746 941 804 986 c 0,2,3
 869 1037 869 1037 881 1105 c 0,4,5
 884 1121 884 1121 884 1134 c 0,6,7
 884 1186 884 1186 848 1222 c 0,8,9
 804 1268 804 1268 729 1268 c 128,-1,10
 654 1268 654 1268 594 1222 c 0,11,12
 531 1173 531 1173 522 1104 c 0,13,14
 520 1088 520 1088 520 1073 c 0,15,16
 520 1019 520 1019 552 986 c 0,17,18
 595 941 595 941 670 941 c 0,0,1
545.5 225 m 128,-1,20
 650 225 650 225 734 292 c 0,21,22
 818 358 818 358 836 462 c 0,23,24
 840 486 840 486 840 508 c 0,25,26
 840 581 840 581 794 634 c 0,27,28
 734 700 734 700 630 700 c 128,-1,29
 526 700 526 700 441 633 c 128,-1,30
 356 566 356 566 338 463 c 0,31,32
 334 440 334 440 334 418 c 0,33,34
 335 345 335 345 382 292 c 0,35,19
 441 225 441 225 545.5 225 c 128,-1,20
520 -20 m 0,36,37
 306 -20 306 -20 178 117 c 0,38,39
 62 240 62 240 62 400 c 0,40,41
 62 429 62 429 66 460 c 0,42,43
 94 673 94 673 292 813 c 0,44,45
 326 837 326 837 354 850 c 1,46,47
 256 951 256 951 256 1082 c 0,48,49
 256 1101 256 1101 258 1121 c 0,50,51
 276 1297 276 1297 418 1409 c 0,52,53
 558 1520 558 1520 750 1520 c 0,54,55
 934 1520 934 1520 1040 1405 c 0,56,57
 1138 1300 1138 1300 1138 1161 c 0,58,59
 1138 1140 1138 1140 1136 1118 c 0,60,61
 1118 948 1118 948 958 836 c 1,62,63
 988 818 988 818 1008 797 c 0,64,65
 1120 680 1120 680 1120 508 c 0,66,67
 1120 487 1120 487 1118 466 c 0,68,69
 1102 250 1102 250 927.5 115 c 128,-1,70
 753 -20 753 -20 520 -20 c 0,36,37
EndSplineSet
Validated: 19457
EndChar

StartChar: nine
Encoding: 57 57 27
Width: 1200
GlyphClass: 2
Flags: W
HStem: 0 21G<88.5 344.5> 1261 259<493.657 789.895>
VStem: 71 276<828.055 1113.54> 867 267<902.032 1182.95>
DStem2: 88 66 429 64 0.669256 0.743032<100.559 614.788>
LayerCount: 2
Fore
SplineSet
111 0 m 2,0,1
 66 0 66 0 66 30 c 0,2,3
 66 43 66 43 88 66 c 2,4,-1
 517 507 l 1,5,6
 312 508 312 508 177 653 c 0,7,8
 71 768 71 768 71 939 c 0,9,10
 71 976 71 976 76 1015 c 0,11,12
 102 1234 102 1234 276 1378 c 0,13,14
 448 1520 448 1520 673 1520 c 0,15,16
 892 1520 892 1520 1021 1377 c 0,17,18
 1134 1251 1134 1251 1134 1081 c 0,19,20
 1134 1052 1134 1052 1131 1021 c 0,21,22
 1109 819 1109 819 937 628 c 2,23,-1
 429 64 l 2,24,25
 371 0 371 0 318 0 c 2,26,-1
 111 0 l 2,0,1
651 1261 m 0,27,28
 542 1260 542 1260 456 1190 c 0,29,30
 365 1116 365 1116 350 1004 c 0,31,32
 347 983 347 983 347 957 c 0,33,34
 347 877 347 877 395 820 c 0,35,36
 457 747 457 747 562 747 c 128,-1,37
 667 747 667 747 754.5 819 c 128,-1,38
 842 891 842 891 862 1004 c 0,39,40
 867 1031 867 1031 867 1056 c 0,41,42
 867 1132 867 1132 820 1188 c 0,43,44
 758 1260 758 1260 651 1261 c 0,27,28
EndSplineSet
Validated: 19457
EndChar

StartChar: colon
Encoding: 58 58 28
Width: 1200
GlyphClass: 2
Flags: W
HStem: -20 354<430.699 668.766> 571 354<534.699 772.766>
VStem: 370 358<39.6123 273.708> 474 358<630.612 864.708>
LayerCount: 2
Fore
SplineSet
653 571 m 0,0,1
 579 571 579 571 528 620 c 0,2,3
 474 672 474 672 474 748 c 128,-1,4
 474 824 474 824 528 875 c 0,5,6
 581 925 581 925 653 925 c 0,7,8
 730 925 730 925 779 875 c 0,9,10
 832 821 832 821 832 748 c 0,11,12
 832 671 832 671 780 621 c 128,-1,13
 728 571 728 571 653 571 c 0,0,1
549 -20 m 0,14,15
 475 -20 475 -20 424 29 c 0,16,17
 370 81 370 81 370 157 c 128,-1,18
 370 233 370 233 424 284 c 0,19,20
 477 334 477 334 549 334 c 0,21,22
 626 334 626 334 675 284 c 0,23,24
 728 230 728 230 728 157 c 0,25,26
 728 80 728 80 676 30 c 128,-1,27
 624 -20 624 -20 549 -20 c 0,14,15
EndSplineSet
Validated: 19457
EndChar

StartChar: semicolon
Encoding: 59 59 29
Width: 1200
GlyphClass: 2
Flags: W
HStem: 571 354<554.699 792.766>
VStem: 467 246<-84.4434 170.532> 494 358<630.612 864.708>
LayerCount: 2
Fore
SplineSet
673 571 m 0,0,1
 599 571 599 571 548 620 c 0,2,3
 494 672 494 672 494 748 c 128,-1,4
 494 824 494 824 548 875 c 0,5,6
 601 925 601 925 673 925 c 0,7,8
 750 925 750 925 799 875 c 0,9,10
 852 821 852 821 852 748 c 0,11,12
 852 671 852 671 800 621 c 128,-1,13
 748 571 748 571 673 571 c 0,0,1
606 320 m 128,-1,15
 628 320 628 320 650 297 c 0,16,17
 713 228 713 228 713 116 c 0,18,19
 713 77 713 77 705 32 c 0,20,21
 673 -152 673 -152 495 -296 c 0,22,23
 469 -317 469 -317 445 -317 c 0,24,25
 427 -317 427 -317 410 -302 c 2,26,-1
 360 -259 l 2,27,28
 344 -246 344 -246 344 -230 c 0,29,30
 344 -213 344 -213 367 -195 c 0,31,32
 440 -132 440 -132 461 -12 c 0,33,34
 467 22 467 22 467 50 c 0,35,36
 467 114 467 114 436 149 c 0,37,38
 418 169 418 169 418 190 c 0,39,40
 418 218 418 218 460 244 c 2,41,-1
 563 307 l 2,42,14
 584 320 584 320 606 320 c 128,-1,15
EndSplineSet
Validated: 19457
EndChar

StartChar: less
Encoding: 60 60 30
Width: 1200
GlyphClass: 2
Flags: W
DStem2: 412 745 140 639 0.857021 -0.515281<0 613.287> 184 880 412 745 0.895348 0.445367<144.015 915.351>
LayerCount: 2
Fore
SplineSet
184 880 m 2,0,-1
 960 1266 l 2,1,2
 988 1280 988 1280 1008 1280 c 0,3,4
 1038 1280 1038 1280 1050 1249 c 2,5,-1
 1092 1142 l 2,6,7
 1098 1126 1098 1126 1098 1109 c 0,8,9
 1098 1074 1098 1074 1056 1054 c 2,10,-1
 412 745 l 1,11,-1
 934 441 l 2,12,13
 960 426 960 426 960 401 c 0,14,15
 960 378 960 378 940 353 c 2,16,-1
 878 270 l 2,17,18
 854 239 854 239 824 239 c 0,19,20
 804 239 804 239 782 253 c 2,21,-1
 140 639 l 2,22,23
 102 662 102 662 102 702 c 0,24,25
 102 710 102 710 104 719 c 2,26,-1
 120 800 l 2,27,28
 130 853 130 853 184 880 c 2,0,-1
EndSplineSet
Validated: 19457
EndChar

StartChar: equal
Encoding: 61 61 31
Width: 1200
GlyphClass: 2
Flags: W
HStem: 400 240<113.634 1003.37> 870 240<196.634 1086.37>
VStem: 87 943<418.611 621.389> 170 943<888.611 1091.39>
LayerCount: 2
Fore
SplineSet
189 640 m 2,0,-1
 971 640 l 2,1,2
 1030 640 1030 640 1030 590 c 0,3,4
 1030 581 1030 581 1028 570 c 2,5,-1
 1011 470 l 2,6,7
 999 400 999 400 928 400 c 2,8,-1
 146 400 l 2,9,10
 87 400 87 400 87 450 c 0,11,12
 87 459 87 459 89 470 c 2,13,-1
 106 570 l 2,14,15
 119 640 119 640 189 640 c 2,0,-1
272 1110 m 2,16,-1
 1054 1110 l 2,17,18
 1113 1110 1113 1110 1113 1060 c 0,19,20
 1113 1051 1113 1051 1111 1040 c 2,21,-1
 1094 940 l 2,22,23
 1082 870 1082 870 1011 870 c 2,24,-1
 229 870 l 2,25,26
 170 870 170 870 170 920 c 0,27,28
 170 929 170 929 172 940 c 2,29,-1
 189 1040 l 2,30,31
 202 1110 202 1110 272 1110 c 2,16,-1
EndSplineSet
Validated: 19457
EndChar

StartChar: greater
Encoding: 62 62 32
Width: 1200
GlyphClass: 2
Flags: W
DStem2: 1060 880 266 1078 0.857021 -0.515281<-791.777 -178.49> 788 774 240 253 0.895348 0.445367<-771.336 0>
LayerCount: 2
Fore
SplineSet
1016 639 m 2,0,-1
 240 253 l 2,1,2
 212 239 212 239 192 239 c 0,3,4
 162 239 162 239 150 270 c 2,5,-1
 108 377 l 2,6,7
 102 393 102 393 102 410 c 0,8,9
 102 445 102 445 144 465 c 2,10,-1
 788 774 l 1,11,-1
 266 1078 l 2,12,13
 240 1093 240 1093 240 1118 c 0,14,15
 240 1141 240 1141 260 1166 c 2,16,-1
 322 1249 l 2,17,18
 346 1280 346 1280 376 1280 c 0,19,20
 396 1280 396 1280 418 1266 c 2,21,-1
 1060 880 l 2,22,23
 1098 857 1098 857 1098 817 c 0,24,25
 1098 809 1098 809 1096 800 c 2,26,-1
 1080 719 l 2,27,28
 1070 666 1070 666 1016 639 c 2,0,-1
EndSplineSet
Validated: 19457
EndChar

StartChar: question
Encoding: 63 63 33
Width: 1200
GlyphClass: 2
Flags: W
HStem: -20 354<234.699 472.766> 1270 250<392.386 728.467>
VStem: 174 358<39.6123 273.708> 796 270<957.164 1204.16>
LayerCount: 2
Fore
SplineSet
353 -20 m 0,0,1
 279 -20 279 -20 228 29 c 0,2,3
 174 81 174 81 174 157 c 128,-1,4
 174 233 174 233 228 284 c 0,5,6
 281 334 281 334 353 334 c 0,7,8
 430 334 430 334 479 284 c 0,9,10
 532 230 532 230 532 157 c 0,11,12
 532 80 532 80 480 30 c 128,-1,13
 428 -20 428 -20 353 -20 c 0,0,1
596 1520 m 0,14,15
 848 1520 848 1520 968 1366 c 0,16,17
 1066 1239 1066 1239 1066 1093 c 0,18,19
 1066 1071 1066 1071 1064 1049 c 0,20,21
 1048 893 1048 893 940 795 c 0,22,23
 850 713 850 713 728 646 c 0,24,25
 618 585 618 585 594 565 c 0,26,27
 552 530 552 530 548 500 c 0,28,29
 544 468 544 468 522 453 c 0,30,31
 506 440 506 440 474 440 c 2,32,-1
 334 440 l 2,33,34
 274 440 274 440 274 472 c 0,35,36
 274 480 274 480 276 494 c 0,37,38
 294 588 294 588 358 659 c 0,39,40
 410 716 410 716 496 759 c 0,41,42
 766 896 766 896 792 1051 c 0,43,44
 796 1072 796 1072 796 1092 c 0,45,46
 796 1149 796 1149 764 1191 c 0,47,48
 704 1270 704 1270 574 1270 c 0,49,50
 436 1270 436 1270 352 1198 c 0,51,52
 314 1166 314 1166 288 1166 c 0,53,54
 268 1166 268 1166 252 1178 c 2,55,-1
 162 1243 l 2,56,57
 134 1263 134 1263 134 1290 c 0,58,59
 134 1318 134 1318 160 1341 c 0,60,61
 354 1520 354 1520 596 1520 c 0,14,15
EndSplineSet
Validated: 19457
EndChar

StartChar: A
Encoding: 65 65 34
Width: 1200
GlyphClass: 2
Flags: W
HStem: 0 21G<30 244 921.5 1121.5> 461 250<587 829> 1480 20G<693.5 980.5>
DStem2: 18 67 298 54 0.41031 0.911946<24.2393 547.639 820.76 1324.05> 1016 1445 789 1172 0.0967858 -0.995305<249.748 712.455 963.411 1415.26>
LayerCount: 2
Fore
SplineSet
55 0 m 2,0,1
 5 0 5 0 5 30 c 0,2,3
 5 38 5 38 18 67 c 2,4,-1
 638 1445 l 2,5,6
 663 1500 663 1500 724 1500 c 2,7,-1
 950 1500 l 2,8,9
 1011 1500 1011 1500 1016 1445 c 2,10,-1
 1150 67 l 2,11,12
 1152 45 1152 45 1152 36 c 0,13,14
 1152 0 1152 0 1091 0 c 2,15,-1
 952 0 l 2,16,17
 891 0 891 0 886 54 c 2,18,-1
 851 461 l 1,19,-1
 477 461 l 1,20,-1
 298 54 l 2,21,22
 274 0 274 0 214 0 c 2,23,-1
 55 0 l 2,0,1
829 711 m 1,24,-1
 789 1172 l 1,25,-1
 587 711 l 1,26,-1
 829 711 l 1,24,-1
EndSplineSet
Validated: 19457
EndChar

StartChar: D
Encoding: 68 68 35
Width: 1200
GlyphClass: 2
Flags: W
HStem: 0 250<324 648.754> 1250 250<500 811.828>
VStem: 914 266<629.181 1130.39>
DStem2: 9.83344 0 279.918 0 0.173648 0.984808<300.756 1316.13>
LayerCount: 2
Fore
SplineSet
80 0 m 2,0,1
 20 0 20 0 20 50 c 0,2,3
 20 59 20 59 22 69 c 2,4,-1
 262 1431 l 2,5,6
 274 1500 274 1500 344 1500 c 2,7,-1
 720 1500 l 2,8,9
 978 1500 978 1500 1096 1267 c 0,10,11
 1180 1098 1180 1098 1180 887 c 0,12,13
 1180 820 1180 820 1172 750 c 0,14,15
 1140 481 1140 481 996 292 c 0,16,17
 776 0 776 0 496 0 c 2,18,-1
 80 0 l 2,0,1
520 250 m 10,19,20
 636 250 636 250 748 386 c 0,21,22
 858 522 858 522 898 752 c 0,23,24
 914 835 914 835 914 909 c 0,25,26
 914 1025 914 1025 876 1116 c 0,27,28
 822 1250 822 1250 696 1250 c 18,29,-1
 500 1250 l 1,30,-1
 324 250 l 1,31,-1
 520 250 l 10,19,20
EndSplineSet
Validated: 19457
EndChar

StartChar: E
Encoding: 69 69 36
Width: 1200
GlyphClass: 2
Flags: W
HStem: 0 250<348 936.337> 630 250<459 851.337> 1250 250<524 1126.34>
DStem2: 33.8334 0 303.918 0 0.173648 0.984808<300.756 686.618 940.46 1316.13>
LayerCount: 2
Fore
SplineSet
286 1431 m 1026,0,1
862 0 m 2,2,-1
 104 0 l 2,3,4
 44 0 44 0 44 50 c 0,5,6
 44 59 44 59 46 69 c 2,7,-1
 286 1431 l 2,8,9
 298 1500 298 1500 368 1500 c 2,10,-1
 1096 1500 l 2,11,12
 1156 1500 1156 1500 1156 1450 c 0,13,14
 1156 1441 1156 1441 1154 1431 c 2,15,-1
 1134 1319 l 2,16,17
 1122 1250 1122 1250 1052 1250 c 2,18,-1
 524 1250 l 1,19,-1
 459 880 l 1,20,-1
 821 880 l 2,21,22
 881 880 881 880 881 830 c 0,23,24
 881 821 881 821 879 811 c 2,25,-1
 859 699 l 2,26,27
 847 630 847 630 777 630 c 2,28,-1
 415 630 l 1,29,-1
 348 250 l 1,30,-1
 906 250 l 2,31,32
 966 250 966 250 966 200 c 0,33,34
 966 191 966 191 964 181 c 2,35,-1
 944 69 l 2,36,37
 932 0 932 0 862 0 c 2,2,-1
EndSplineSet
Validated: 19457
EndChar

StartChar: F
Encoding: 70 70 37
Width: 1200
GlyphClass: 2
Flags: W
HStem: 0 21G<100 295> 630 250<485 877.337> 1250 250<550 1152.34>
DStem2: 59.8334 0 329.833 0 0.173648 0.984808<51.2831 686.618 940.46 1316.13>
LayerCount: 2
Fore
SplineSet
260 0 m 2,0,-1
 130 0 l 2,1,2
 70 0 70 0 70 50 c 0,3,4
 70 59 70 59 72 69 c 2,5,-1
 312 1431 l 2,6,7
 324 1500 324 1500 394 1500 c 2,8,-1
 1122 1500 l 2,9,10
 1182 1500 1182 1500 1182 1450 c 0,11,12
 1182 1441 1182 1441 1180 1431 c 2,13,-1
 1160 1319 l 2,14,15
 1148 1250 1148 1250 1078 1250 c 2,16,-1
 550 1250 l 1,17,-1
 485 880 l 1,18,-1
 847 880 l 2,19,20
 907 880 907 880 907 830 c 0,21,22
 907 821 907 821 905 811 c 2,23,-1
 885 699 l 2,24,25
 873 630 873 630 803 630 c 2,26,-1
 441 630 l 1,27,-1
 342 69 l 2,28,29
 330 0 330 0 260 0 c 2,0,-1
EndSplineSet
Validated: 19457
EndChar

StartChar: H
Encoding: 72 72 38
Width: 1200
GlyphClass: 2
Flags: W
HStem: 0 21G<28 223 718 913> 630 250<413 789> 1480 20G<287 482 977 1172>
DStem2: -12.1666 0 257.833 0 0.173648 0.984808<51.2831 686.618 940.46 1518.71> 677.833 0 947.833 0 0.173648 0.984808<51.2831 639.733 893.575 1518.71>
LayerCount: 2
Fore
SplineSet
58 0 m 2,0,1
 -2 0 -2 0 -2 50 c 0,2,3
 -2 59 -2 59 -0 69 c 2,4,-1
 240 1431 l 2,5,6
 252 1500 252 1500 322 1500 c 2,7,-1
 452 1500 l 2,8,9
 512 1500 512 1500 512 1450 c 0,10,11
 512 1441 512 1441 510 1431 c 2,12,-1
 413 880 l 1,13,-1
 833 880 l 1,14,-1
 930 1431 l 2,15,16
 942 1500 942 1500 1012 1500 c 2,17,-1
 1142 1500 l 2,18,19
 1202 1500 1202 1500 1202 1450 c 0,20,21
 1202 1441 1202 1441 1200 1431 c 2,22,-1
 960 69 l 2,23,24
 948 0 948 0 878 0 c 2,25,-1
 748 0 l 2,26,27
 688 0 688 0 688 50 c 0,28,29
 688 59 688 59 690 69 c 2,30,-1
 789 630 l 1,31,-1
 369 630 l 1,32,-1
 270 69 l 2,33,34
 258 0 258 0 188 0 c 2,35,-1
 58 0 l 2,0,1
EndSplineSet
Validated: 19457
EndChar

StartChar: I
Encoding: 73 73 39
Width: 1200
GlyphClass: 2
Flags: W
HStem: 0 250<82.6631 377 647 897.337> 1250 250<302.663 553 823 1117.34>
VStem: 53 874<20.636 229.364> 273 874<1270.64 1479.36>
DStem2: 332.918 0 602.918 0 0.173648 0.984808<300.742 1269.23>
LayerCount: 2
Fore
SplineSet
113 0 m 2,0,1
 53 0 53 0 53 50 c 0,2,3
 53 59 53 59 55 69 c 2,4,-1
 75 181 l 2,5,6
 87 250 87 250 157 250 c 2,7,-1
 377 250 l 1,8,-1
 553 1250 l 1,9,-1
 333 1250 l 2,10,11
 273 1250 273 1250 273 1300 c 0,12,13
 273 1309 273 1309 275 1319 c 2,14,-1
 295 1431 l 2,15,16
 307 1500 307 1500 377 1500 c 2,17,-1
 1087 1500 l 2,18,19
 1147 1500 1147 1500 1147 1450 c 0,20,21
 1147 1441 1147 1441 1145 1431 c 2,22,-1
 1125 1319 l 2,23,24
 1113 1250 1113 1250 1043 1250 c 2,25,-1
 823 1250 l 1,26,-1
 647 250 l 1,27,-1
 867 250 l 2,28,29
 927 250 927 250 927 200 c 0,30,31
 927 191 927 191 925 181 c 2,32,-1
 905 69 l 2,33,34
 893 0 893 0 823 0 c 2,35,-1
 113 0 l 2,0,1
EndSplineSet
Validated: 19457
EndChar

StartChar: L
Encoding: 76 76 40
Width: 1200
GlyphClass: 2
Flags: W
HStem: 0 250<443 1031.34> 1480 20G<428 623>
DStem2: 128.833 0 398.918 0 0.173648 0.984808<300.756 1518.71>
LayerCount: 2
Fore
SplineSet
199 0 m 2,0,1
 139 0 139 0 139 50 c 0,2,3
 139 59 139 59 141 69 c 2,4,-1
 381 1431 l 2,5,6
 393 1500 393 1500 463 1500 c 2,7,-1
 593 1500 l 2,8,9
 653 1500 653 1500 653 1450 c 0,10,11
 653 1441 653 1441 651 1431 c 2,12,-1
 443 250 l 1,13,-1
 1001 250 l 2,14,15
 1061 250 1061 250 1061 200 c 0,16,17
 1061 191 1061 191 1059 181 c 2,18,-1
 1039 69 l 2,19,20
 1027 0 1027 0 957 0 c 2,21,-1
 199 0 l 2,0,1
EndSplineSet
Validated: 19457
EndChar

StartChar: N
Encoding: 78 78 41
Width: 1200
GlyphClass: 2
Flags: W
HStem: 0 21G<33 218 656.5 908> 1480 20G<292 544 982 1167>
DStem2: -7.16656 0 252.833 0 0.173648 0.984808<51.2528 1091.13> 584 1431 435 1030 0.186078 -0.982535<366.271 978.082> 683.126 0 942.833 0 0.173648 0.984808<477.251 1516.96>
LayerCount: 2
Fore
SplineSet
63 0 m 2,0,1
 3 0 3 0 3 50 c 0,2,3
 3 58 3 58 5 69 c 2,4,-1
 245 1431 l 2,5,6
 257 1500 257 1500 327 1500 c 2,7,-1
 517 1500 l 2,8,9
 571 1500 571 1500 584 1431 c 2,10,-1
 766 470 l 1,11,-1
 935 1431 l 2,12,13
 947 1500 947 1500 1017 1500 c 2,14,-1
 1137 1500 l 2,15,16
 1197 1500 1197 1500 1197 1450 c 0,17,18
 1197 1442 1197 1442 1195 1431 c 2,19,-1
 955 69 l 2,20,21
 943 0 943 0 873 0 c 2,22,-1
 683 0 l 2,23,24
 630 0 630 0 617 69 c 2,25,-1
 435 1030 l 1,26,-1
 265 69 l 2,27,28
 253 0 253 0 183 0 c 2,29,-1
 63 0 l 2,0,1
EndSplineSet
Validated: 1
EndChar

StartChar: O
Encoding: 79 79 42
Width: 1200
GlyphClass: 2
Flags: W
HStem: -20 250<396.946 635.67> 1270 250<557.676 809.903>
VStem: 26 266<352.94 864.188> 907 267<630.595 1154.73>
LayerCount: 2
Fore
SplineSet
509 230 m 152,-1,1
 625 230 625 230 735 365 c 0,2,3
 846 501 846 501 890 751 c 0,4,5
 907 846 907 846 907 928 c 0,6,7
 907 1047 907 1047 871 1135 c 0,8,9
 816 1270 816 1270 692 1270 c 152,-1,10
 568 1270 568 1270 465 1135 c 0,11,12
 352 986 352 986 310 751 c 0,13,14
 292 648 292 648 292 565 c 0,15,16
 292 445 292 445 329 365 c 0,17,0
 393 230 393 230 509 230 c 152,-1,1
484 -20 m 0,18,19
 224 -20 224 -20 110 214 c 0,20,21
 26 385 26 385 26 593 c 0,22,23
 26 669 26 669 37 749 c 0,24,25
 80 1071 80 1071 234 1265 c 0,26,27
 435 1520 435 1520 716 1520 c 0,28,29
 959 1520 959 1520 1091 1286 c 0,30,31
 1174 1138 1174 1138 1174 920 c 0,32,33
 1174 839 1174 839 1163 749 c 0,34,35
 1129 467 1129 467 964 236 c 0,36,37
 781 -20 781 -20 484 -20 c 0,18,19
EndSplineSet
Validated: 19457
EndChar

StartChar: Q
Encoding: 81 81 43
Width: 1200
GlyphClass: 2
Flags: W
HStem: -20 250<396.946 530.424> 1270 250<557.676 809.903>
VStem: 26 266<352.94 864.188> 907 267<630.213 1154.73>
DStem2: 747 380 399 558 0.375401 -0.926862<-283.644 0 301.967 467.42>
LayerCount: 2
Fore
SplineSet
484 -20 m 0,0,1
 224 -20 224 -20 110 214 c 0,2,3
 26 385 26 385 26 593 c 0,4,5
 26 669 26 669 37 749 c 0,6,7
 80 1071 80 1071 234 1265 c 0,8,9
 435 1520 435 1520 716 1520 c 0,10,11
 959 1520 959 1520 1091 1286 c 0,12,13
 1174 1138 1174 1138 1174 920 c 0,14,15
 1174 839 1174 839 1163 749 c 0,16,17
 1129 467 1129 467 964 236 c 0,18,19
 914 166 914 166 855 115 c 1,20,-1
 927 -64 l 2,21,22
 933 -79 933 -79 933 -90 c 0,23,24
 933 -133 933 -133 874 -133 c 2,25,-1
 740 -133 l 2,26,27
 679 -133 679 -133 657 -79 c 2,28,-1
 627 -4 l 1,29,30
 559 -20 559 -20 484 -20 c 0,0,1
747 380 m 1,31,32
 848 514 848 514 890 751 c 0,33,34
 907 846 907 846 907 928 c 0,35,36
 907 1047 907 1047 871 1135 c 0,37,38
 816 1270 816 1270 692 1270 c 128,-1,39
 568 1270 568 1270 465 1135 c 0,40,41
 352 986 352 986 310 751 c 0,42,43
 292 648 292 648 292 565 c 0,44,45
 292 445 292 445 329 365 c 0,46,47
 393 230 393 230 509 230 c 0,48,49
 520 230 520 230 531 231 c 1,50,-1
 399 558 l 2,51,52
 392 575 392 575 392 584 c 0,53,54
 392 627 392 627 453 627 c 2,55,-1
 587 627 l 2,56,57
 647 627 647 627 669 573 c 2,58,-1
 747 380 l 1,31,32
EndSplineSet
Validated: 19457
EndChar

StartChar: T
Encoding: 84 84 44
Width: 1200
GlyphClass: 2
Flags: W
HStem: 0 21G<282 477> 1250 250<112.029 462 732 1128.92>
DStem2: 241.833 0 511.833 0 0.173648 0.984808<51.2831 1269.24>
LayerCount: 2
Fore
SplineSet
312 0 m 2,0,1
 252 0 252 0 252 50 c 0,2,3
 252 59 252 59 254 69 c 2,4,-1
 462 1250 l 1,5,-1
 142 1250 l 2,6,7
 80 1250 80 1250 80 1288 c 0,8,9
 80 1293 80 1293 81 1299 c 2,10,-1
 104 1431 l 2,11,12
 116 1500 116 1500 186 1500 c 2,13,-1
 1096 1500 l 2,14,15
 1156 1500 1156 1500 1156 1450 c 0,16,17
 1156 1441 1156 1441 1154 1431 c 2,18,-1
 1131 1299 l 2,19,20
 1122 1250 1122 1250 1052 1250 c 2,21,-1
 732 1250 l 1,22,-1
 524 69 l 2,23,24
 512 0 512 0 442 0 c 2,25,-1
 312 0 l 2,0,1
EndSplineSet
Validated: 19457
EndChar

StartChar: U
Encoding: 85 85 45
Width: 1200
GlyphClass: 2
Flags: W
HStem: -20 250<336.724 632.923> 1480 20G<241.5 436.5 961.5 1156.5>
VStem: 14 273<280.152 532.733>
DStem2: -61.7553 -20 208.245 -20 0.173648 0.984808<474.981 1539.03> 658.15 -20 928.245 -20 0.173648 0.984808<325.385 1539.05>
LayerCount: 2
Fore
SplineSet
454 -20 m 128,-1,1
 215 -20 215 -20 110 106 c 0,2,3
 14 222 14 222 14 369 c 0,4,5
 14 411 14 411 22 455 c 2,6,-1
 194 1431 l 2,7,8
 206 1500 206 1500 277 1500 c 2,9,-1
 407 1500 l 2,10,11
 466 1500 466 1500 466 1450 c 0,12,13
 466 1441 466 1441 464 1431 c 2,14,-1
 292 455 l 2,15,16
 287 426 287 426 287 400 c 0,17,18
 287 329 287 329 326 285 c 0,19,20
 373 230 373 230 477 230 c 0,21,22
 579 230 579 230 648 285 c 0,23,24
 723 345 723 345 742 455 c 2,25,-1
 914 1431 l 2,26,27
 926 1500 926 1500 997 1500 c 2,28,-1
 1127 1500 l 2,29,30
 1186 1500 1186 1500 1186 1450 c 0,31,32
 1186 1441 1186 1441 1184 1431 c 2,33,-1
 1012 455 l 2,34,35
 970 214 970 214 842 106 c 0,36,0
 693 -20 693 -20 454 -20 c 128,-1,1
EndSplineSet
Validated: 19457
EndChar

StartChar: V
Encoding: 86 86 46
Width: 1200
GlyphClass: 2
Flags: W
HStem: 0 21G<216.5 503.5> 1480 20G<76 276 953.5 1168>
DStem2: 408 328 47 1433 0.0964829 -0.995335<-1181.21 0> 408 328 559 55 0.41031 0.911946<0 1305.13>
LayerCount: 2
Fore
SplineSet
247 0 m 2,0,1
 186 0 186 0 181 55 c 2,2,-1
 47 1433 l 2,3,4
 46 1447 46 1447 45 1458 c 0,5,6
 45 1500 45 1500 107 1500 c 2,7,-1
 246 1500 l 2,8,9
 306 1500 306 1500 311 1446 c 2,10,-1
 408 328 l 1,11,-1
 899 1446 l 2,12,13
 923 1500 923 1500 984 1500 c 2,14,-1
 1143 1500 l 2,15,16
 1193 1500 1193 1500 1193 1473 c 0,17,18
 1193 1464 1193 1464 1179 1433 c 2,19,-1
 559 55 l 2,20,21
 534 0 534 0 473 0 c 2,22,-1
 247 0 l 2,0,1
EndSplineSet
Validated: 19457
EndChar

StartChar: W
Encoding: 87 87 47
Width: 1200
GlyphClass: 2
Flags: W
HStem: 0 21G<32 252.5 512.5 733.5> 1480 20G<121 306 983 1167>
VStem: 78 258<1283.53 1496.76>
DStem2: 228 320 306 69 0.285709 0.958316<0 374.422>
LayerCount: 2
Fore
SplineSet
62 0 m 2,0,1
 2 0 2 0 2 62 c 0,2,3
 2 66 2 66 2 69 c 2,4,-1
 76 1431 l 2,5,6
 78 1459 78 1459 78 1460 c 0,7,8
 86 1500 86 1500 156 1500 c 2,9,-1
 276 1500 l 2,10,11
 336 1500 336 1500 336 1441 c 0,12,13
 336 1436 336 1436 336 1431 c 2,14,-1
 228 320 l 1,15,-1
 420 964 l 2,16,17
 440 1032 440 1032 504 1032 c 2,18,-1
 622 1032 l 2,19,20
 684 1032 684 1032 684 975 c 0,21,22
 684 969 684 969 684 962 c 2,23,-1
 648 320 l 1,24,-1
 932 1431 l 2,25,26
 950 1500 950 1500 1016 1500 c 2,27,-1
 1136 1500 l 2,28,29
 1198 1500 1198 1500 1198 1465 c 0,30,31
 1198 1451 1198 1451 1192 1431 c 2,32,-1
 786 69 l 2,33,34
 765 0 765 0 702 0 c 2,35,-1
 542 0 l 2,36,37
 483 0 483 0 482 62 c 0,38,39
 482 65 482 65 482 69 c 2,40,-1
 492 632 l 1,41,-1
 306 69 l 2,42,43
 283 0 283 0 222 0 c 2,44,-1
 62 0 l 2,0,1
EndSplineSet
Validated: 1
EndChar

StartChar: Z
Encoding: 90 90 48
Width: 1200
GlyphClass: 2
Flags: W
HStem: 0 250<378 967.337> 1250 250<272.663 822>
VStem: 3 994<20.636 234.997> 243 954<1262 1479.36>
DStem2: 44 235 378 250 0.608349 0.793669<215.094 1278.87>
LayerCount: 2
Fore
SplineSet
63 0 m 2,0,1
 3 0 3 0 3 50 c 0,2,3
 3 59 3 59 5 69 c 2,4,-1
 25 181 l 2,5,6
 32 219 32 219 44 235 c 2,7,-1
 822 1250 l 1,8,-1
 303 1250 l 2,9,10
 243 1250 243 1250 243 1300 c 0,11,12
 243 1309 243 1309 245 1319 c 2,13,-1
 265 1431 l 2,14,15
 277 1500 277 1500 347 1500 c 2,16,-1
 1137 1500 l 2,17,18
 1197 1500 1197 1500 1197 1450 c 0,19,20
 1197 1441 1197 1441 1195 1431 c 2,21,-1
 1175 1319 l 2,22,23
 1168 1281 1168 1281 1153 1262 c 2,24,-1
 378 250 l 1,25,-1
 937 250 l 2,26,27
 997 250 997 250 997 200 c 0,28,29
 997 191 997 191 995 181 c 2,30,-1
 975 69 l 2,31,32
 963 0 963 0 893 0 c 2,33,-1
 63 0 l 2,0,1
EndSplineSet
Validated: 19457
EndChar

StartChar: bracketleft
Encoding: 91 91 49
Width: 1200
GlyphClass: 2
Flags: W
HStem: -205 250<467 711.337> 1460 250<716 1004.97>
VStem: 163 578<-184.065 33.2812>
DStem2: 152.657 -205 422.918 -205 0.173648 0.984808<300.787 1737.53>
LayerCount: 2
Fore
SplineSet
637 -205 m 2,0,-1
 223 -205 l 2,1,2
 163 -205 163 -205 163 -154 c 0,3,4
 163 -145 163 -145 165 -135 c 2,5,-1
 482 1660 l 2,6,7
 491 1710 491 1710 561 1710 c 2,8,-1
 975 1710 l 2,9,10
 1037 1710 1037 1710 1037 1671 c 0,11,12
 1037 1666 1037 1666 1036 1660 c 2,13,-1
 1013 1530 l 2,14,15
 1001 1460 1001 1460 930 1460 c 2,16,-1
 716 1460 l 1,17,-1
 467 45 l 1,18,-1
 681 45 l 2,19,20
 741 45 741 45 741 -6 c 0,21,22
 741 -15 741 -15 739 -25 c 2,23,-1
 719 -135 l 2,24,25
 707 -205 707 -205 637 -205 c 2,0,-1
EndSplineSet
Validated: 19457
EndChar

StartChar: backslash
Encoding: 92 92 50
Width: 1200
GlyphClass: 2
Flags: W
DStem2: 970 -53 732 -163 0.278827 -0.960341<-1795.31 28.515>
LayerCount: 2
Fore
SplineSet
430 1712 m 0,0,1
 458 1712 458 1712 470 1669 c 2,2,-1
 970 -53 l 2,3,4
 974 -67 974 -67 974 -82 c 0,5,6
 974 -123 974 -123 924 -144 c 2,7,-1
 814 -191 l 2,8,9
 790 -201 790 -201 770 -201 c 0,10,11
 744 -201 744 -201 732 -163 c 2,12,-1
 230 1566 l 2,13,14
 226 1583 226 1583 226 1601 c 0,15,16
 226 1635 226 1635 276 1656 c 2,17,-1
 386 1702 l 2,18,19
 410 1712 410 1712 430 1712 c 0,0,1
EndSplineSet
Validated: 19457
EndChar

StartChar: bracketright
Encoding: 93 93 51
Width: 1200
GlyphClass: 2
Flags: W
HStem: -205 250<194.169 482> 1460 250<486.652 732>
VStem: 456 579<1473.59 1687.43>
DStem2: 437.918 -205 708.657 -205 0.173648 0.984808<253.857 1690.77>
LayerCount: 2
Fore
SplineSet
224 -205 m 2,0,1
 165 -205 165 -205 165 -155 c 0,2,3
 165 -146 165 -146 167 -135 c 2,4,-1
 186 -25 l 2,5,6
 198 45 198 45 268 45 c 2,7,-1
 482 45 l 1,8,-1
 732 1460 l 1,9,-1
 518 1460 l 2,10,11
 456 1460 456 1460 456 1499 c 0,12,13
 456 1504 456 1504 457 1510 c 2,14,-1
 479 1640 l 2,15,16
 491 1710 491 1710 562 1710 c 2,17,-1
 976 1710 l 2,18,19
 1035 1710 1035 1710 1035 1660 c 0,20,21
 1035 1651 1035 1651 1033 1640 c 2,22,-1
 721 -135 l 2,23,24
 709 -205 709 -205 638 -205 c 2,25,-1
 224 -205 l 2,0,1
EndSplineSet
Validated: 19457
EndChar

StartChar: asciicircum
Encoding: 94 94 52
Width: 1200
GlyphClass: 2
Flags: W
HStem: 956 564
DStem2: 172 1105 376 987 0.698514 0.715597<-0.558164 459.085> 804 1483 652 1278 0.528589 -0.848878<93.6745 474.893>
LayerCount: 2
Fore
SplineSet
624 1520 m 2,0,1
 732 1520 l 2,2,3
 780 1520 780 1520 804 1483 c 2,4,-1
 1040 1104 l 2,5,6
 1048 1091 1048 1091 1048 1075 c 0,7,8
 1048 1050 1048 1050 1008 1027 c 2,9,-1
 904 966 l 2,10,11
 886 956 886 956 868 956 c 0,12,13
 844 956 844 956 830 980 c 2,14,15
 652 1278 l 1,16,-1
 376 987 l 2,17,18
 348 957 348 957 322 957 c 0,19,20
 310 957 310 957 292 966 c 2,21,-1
 178 1028 l 2,22,23
 152 1042 152 1042 152 1062 c 0,24,25
 152 1085 152 1085 172 1105 c 2,26,-1
 540 1482 l 2,27,28
 576 1520 576 1520 624 1520 c 2,0,1
EndSplineSet
Validated: 19457
EndChar

StartChar: underscore
Encoding: 95 95 53
Width: 1200
GlyphClass: 2
Flags: W
HStem: -290 203<100.063 1099.94>
LayerCount: 2
Fore
SplineSet
167 -87 m 2,0,-1
 1069 -87 l 2,1,2
 1120 -87 1120 -87 1120 -130 c 0,3,4
 1120 -138 1120 -138 1118 -147 c 2,5,-1
 1104 -230 l 2,6,7
 1093 -290 1093 -290 1033 -290 c 2,8,-1
 131 -290 l 2,9,10
 80 -290 80 -290 80 -247 c 0,11,12
 80 -239 80 -239 82 -230 c 2,13,-1
 96 -147 l 2,14,15
 107 -87 107 -87 167 -87 c 2,0,-1
EndSplineSet
Validated: 19457
EndChar

StartChar: grave
Encoding: 96 96 54
Width: 1200
GlyphClass: 2
Flags: W
HStem: 964 556<553.219 700.781>
VStem: 448 304
LayerCount: 2
Fore
SplineSet
495 1463 m 2,0,1
 633 1515 l 2,2,3
 646 1520 646 1520 663 1520 c 0,4,5
 696 1520 696 1520 701 1476 c 2,6,-1
 750 1081 l 2,7,8
 752 1065 752 1065 752 1052 c 0,9,10
 752 1018 752 1018 708 1001 c 2,11,-1
 631 971 l 2,12,13
 613 964 613 964 591 964 c 0,14,15
 563 964 563 964 554 999 c 2,16,-1
 454 1383 l 2,17,18
 448 1406 448 1406 448 1414 c 0,19,20
 448 1445 448 1445 495 1463 c 2,0,1
EndSplineSet
Validated: 19457
EndChar

StartChar: o
Encoding: 111 111 55
Width: 1200
GlyphClass: 2
Flags: W
HStem: -20 245<418.063 682.441> 875 245<521.725 780.435>
VStem: 94 260<297.478 673.803> 848 258<431.682 805.012>
LayerCount: 2
Fore
SplineSet
542 225 m 152,-1,1
 648 225 648 225 718 300 c 24,2,3
 814 405 814 405 838 551 c 0,4,5
 848 604 848 604 848 649 c 0,6,7
 848 746 848 746 804 805 c 0,8,9
 750 875 750 875 658 875 c 128,-1,10
 566 875 566 875 488 805 c 0,11,12
 392 719 392 719 362 551 c 0,13,14
 354 506 354 506 354 466 c 0,15,16
 354 373 354 373 396 300 c 0,17,0
 436 225 436 225 542 225 c 152,-1,1
518 -20 m 0,18,19
 304 -20 304 -20 198 124 c 0,20,21
 94 266 94 266 94 458 c 0,22,23
 94 503 94 503 100 550 c 0,24,25
 134 829 134 829 304 978 c 0,26,27
 468 1120 468 1120 684 1120 c 0,28,29
 888 1120 888 1120 1002 976 c 0,30,31
 1106 844 1106 844 1106 641 c 0,32,33
 1106 597 1106 597 1102 550 c 0,34,35
 1076 287 1076 287 898 125 c 0,36,37
 740 -20 740 -20 518 -20 c 0,18,19
EndSplineSet
Validated: 19457
EndChar

StartChar: braceleft
Encoding: 123 123 56
Width: 1200
GlyphClass: 2
Flags: W
HStem: -205 250<578.379 749.691> 630 250<156.359 318> 1460 250<810.723 1042.34>
VStem: 247 272<102.831 349.889>
DStem2: 170.189 -205 440.068 -205 0.173648 0.984808<479.853 847.982 1101.82 1661.05>
LayerCount: 2
Fore
SplineSet
674 -205 m 0,0,1
 457 -205 457 -205 351 -99 c 0,2,3
 247 4 247 4 247 174 c 0,4,5
 247 230 247 230 258 293 c 2,6,-1
 318 630 l 1,7,-1
 188 630 l 2,8,9
 128 630 128 630 128 681 c 0,10,11
 128 690 128 690 130 700 c 2,12,-1
 149 810 l 2,13,14
 161 880 161 880 232 880 c 2,15,-1
 362 880 l 1,16,-1
 436 1302 l 2,17,18
 471 1503 471 1503 611 1604 c 0,19,20
 759 1710 759 1710 1012 1710 c 0,21,22
 1072 1710 1072 1710 1072 1660 c 0,23,24
 1072 1651 1072 1651 1070 1641 c 2,25,-1
 1050 1529 l 2,26,27
 1038 1460 1038 1460 968 1460 c 0,28,29
 863 1460 863 1460 788 1400 c 128,-1,30
 713 1340 713 1340 694 1234 c 2,31,-1
 524 271 l 2,32,33
 519 244 519 244 519 220 c 0,34,35
 519 150 519 150 560 105 c 0,36,37
 615 45 615 45 719 45 c 0,38,39
 778 45 778 45 778 -5 c 0,40,41
 778 -14 778 -14 776 -24 c 2,42,-1
 757 -136 l 2,43,44
 745 -205 745 -205 674 -205 c 0,0,1
EndSplineSet
Validated: 19457
EndChar

StartChar: bar
Encoding: 124 124 57
Width: 1200
GlyphClass: 2
Flags: W
DStem2: 317.657 -150 563.657 -150 0.173648 0.984808<51.314 1829.24>
LayerCount: 2
Fore
SplineSet
707 1660 m 2,0,-1
 813 1660 l 2,1,2
 872 1660 872 1660 872 1610 c 0,3,4
 872 1601 872 1601 870 1590 c 2,5,-1
 576 -80 l 2,6,7
 564 -150 564 -150 493 -150 c 2,8,-1
 387 -150 l 2,9,10
 328 -150 328 -150 328 -100 c 0,11,12
 328 -91 328 -91 330 -80 c 2,13,-1
 624 1590 l 2,14,15
 637 1660 637 1660 707 1660 c 2,0,-1
EndSplineSet
Validated: 19457
EndChar

StartChar: braceright
Encoding: 125 125 58
Width: 1200
GlyphClass: 2
Flags: W
HStem: -205 250<157.663 389.277> 625 250<882 1043.64> 1460 250<450.309 621.621>
VStem: 681 272<1155.11 1402.17>
DStem2: 422.068 -205 691.649 -205 0.173648 0.984808<330.393 889.616 1143.46 1511.59>
LayerCount: 2
Fore
SplineSet
526 1710 m 0,0,1
 743 1710 743 1710 849 1604 c 0,2,3
 953 1501 953 1501 953 1331 c 0,4,5
 953 1275 953 1275 942 1212 c 2,6,-1
 882 875 l 1,7,-1
 1012 875 l 2,8,9
 1072 875 1072 875 1072 824 c 0,10,11
 1072 815 1072 815 1070 805 c 2,12,-1
 1051 695 l 2,13,14
 1039 625 1039 625 968 625 c 2,15,-1
 838 625 l 1,16,-1
 764 203 l 2,17,18
 729 2 729 2 589 -99 c 0,19,20
 441 -205 441 -205 188 -205 c 0,21,22
 128 -205 128 -205 128 -155 c 0,23,24
 128 -146 128 -146 130 -136 c 2,25,-1
 150 -24 l 2,26,27
 162 45 162 45 232 45 c 0,28,29
 337 45 337 45 412 105 c 128,-1,30
 487 165 487 165 506 271 c 2,31,-1
 676 1234 l 2,32,33
 681 1261 681 1261 681 1285 c 0,34,35
 681 1355 681 1355 640 1400 c 0,36,37
 585 1460 585 1460 481 1460 c 0,38,39
 422 1460 422 1460 422 1510 c 0,40,41
 422 1519 422 1519 424 1529 c 2,42,-1
 443 1641 l 2,43,44
 455 1710 455 1710 526 1710 c 0,0,1
EndSplineSet
Validated: 19457
EndChar

StartChar: asciitilde
Encoding: 126 126 59
Width: 1200
GlyphClass: 2
Flags: W
HStem: 525 248<711.172 808.344> 739 248<391.877 487.612>
VStem: 829 270<783.047 955.09>
LayerCount: 2
Fore
SplineSet
923 966 m 2,0,-1
 1031 966 l 2,1,2
 1099 966 1099 966 1099 909 c 0,3,4
 1099 899 1099 899 1097 887 c 0,5,6
 1033 525 1033 525 767 525 c 0,7,8
 599 525 599 525 501 676 c 0,9,10
 473 719 473 719 465 728 c 0,11,12
 456 739 456 739 444 739 c 0,13,14
 391 739 391 739 371 625 c 16,15,16
 357 546 357 546 277 546 c 2,17,-1
 169 546 l 2,18,19
 101 546 101 546 101 603 c 0,20,21
 101 613 101 613 103 625 c 0,22,23
 167 987 167 987 443 987 c 0,24,25
 601 987 601 987 699 836 c 0,26,27
 727 793 727 793 735 784 c 0,28,29
 744 773 744 773 756 773 c 0,30,31
 809 773 809 773 829 887 c 16,32,33
 843 966 843 966 923 966 c 2,0,-1
EndSplineSet
Validated: 19457
EndChar

StartChar: exclamdown
Encoding: 161 161 61
Width: 1200
GlyphClass: 2
Flags: W
HStem: -400 21G<342 577> 766 354<586.699 824.766>
VStem: 518 232<535.504 662.065> 526 358<825.612 1059.71>
LayerCount: 2
Fore
SplineSet
705 766 m 0,0,1
 631 766 631 766 580 815 c 0,2,3
 526 867 526 867 526 943 c 128,-1,4
 526 1019 526 1019 580 1070 c 0,5,6
 633 1120 633 1120 705 1120 c 0,7,8
 782 1120 782 1120 831 1070 c 0,9,10
 884 1016 884 1016 884 943 c 0,11,12
 884 866 884 866 832 816 c 128,-1,13
 780 766 780 766 705 766 c 0,0,1
542 -400 m 2,14,-1
 372 -400 l 2,15,16
 312 -399 312 -399 312 -352 c 0,17,18
 312 -342 312 -342 314 -331 c 2,19,-1
 518 601 l 2,20,21
 534 670 534 670 602 670 c 2,22,-1
 692 670 l 2,23,24
 750 670 750 670 750 618 c 0,25,26
 750 610 750 610 748 601 c 2,27,-1
 624 -331 l 1,28,29
 612 -400 612 -400 542 -400 c 2,14,-1
EndSplineSet
Validated: 19457
EndChar

StartChar: cent
Encoding: 162 162 62
Width: 1200
GlyphClass: 2
Flags: W
VStem: 135 260<299.57 673.967>
DStem2: 448.829 -180 578.829 -180 0.173648 0.984808<23.7333 168.544 440.847 1061.11 1330.92 1480.39>
LayerCount: 2
Fore
SplineSet
585 -145 m 2,0,1
 579 -180 579 -180 544 -180 c 2,2,-1
 484 -180 l 2,3,4
 454 -180 454 -180 454 -157 c 0,5,6
 454 -151 454 -151 455 -145 c 2,7,-1
 478 -14 l 1,8,9
 324 9 324 9 239 124 c 0,10,11
 135 266 135 266 135 458 c 0,12,13
 135 503 135 503 141 550 c 0,14,15
 177 833 177 833 345 978 c 0,16,17
 491 1104 491 1104 678 1118 c 1,18,-1
 700 1245 l 2,19,20
 706 1280 706 1280 741 1280 c 2,21,-1
 801 1280 l 2,22,23
 831 1280 831 1280 831 1256 c 0,24,25
 831 1251 831 1251 830 1245 c 2,26,-1
 807 1112 l 1,27,28
 942 1084 942 1084 1054 962 c 0,29,30
 1065 950 1065 950 1065 928 c 0,31,32
 1065 892 1065 892 1017 864 c 2,33,-1
 918 807 l 2,34,35
 892 792 892 792 873 792 c 0,36,37
 857 792 857 792 825 827 c 0,38,39
 800 854 800 854 763 866 c 1,40,-1
 651 232 l 1,41,42
 707 244 707 244 741 272 c 0,43,44
 783 307 783 307 800 307 c 0,45,46
 820 307 820 307 841 292 c 2,47,-1
 936 223 l 2,48,49
 963 203 963 203 963 177 c 0,50,51
 963 147 963 147 939 125 c 0,52,53
 790 -5 790 -5 607 -18 c 1,54,-1
 585 -145 l 2,0,1
522 233 m 1,55,-1
 633 865 l 1,56,57
 578 849 578 849 529 805 c 0,58,59
 433 719 433 719 403 551 c 0,60,61
 395 506 395 506 395 466 c 0,62,63
 395 373 395 373 437 300 c 0,64,65
 466 249 466 249 522 233 c 1,55,-1
EndSplineSet
Validated: 19457
EndChar

StartChar: sterling
Encoding: 163 163 63
Width: 1200
GlyphClass: 2
Flags: W
HStem: 0 250<41.4814 147 417 1034.52> 555 250<119.821 201 515 863.199> 1292 228<677.637 960.392>
DStem2: 102.918 0 372.918 0 0.173648 0.984808<300.742 563.6 864.327 1277.74>
LayerCount: 2
Fore
SplineSet
63 0 m 2,0,1
 11 0 11 0 11 43 c 0,2,3
 11 51 11 51 13 59 c 2,4,-1
 37 191 l 2,5,6
 48 250 48 250 107 250 c 2,7,-1
 147 250 l 1,8,-1
 201 555 l 1,9,-1
 143 555 l 2,10,11
 92 555 92 555 92 598 c 0,12,13
 92 605 92 605 93 614 c 2,14,-1
 116 746 l 2,15,16
 126 805 126 805 187 805 c 2,17,-1
 245 805 l 1,18,-1
 295 1087 l 2,19,20
 334 1305 334 1305 504 1426 c 0,21,22
 637 1520 637 1520 844 1520 c 0,23,24
 1020 1520 1020 1520 1114 1426 c 0,25,26
 1167 1373 1167 1373 1187 1287 c 0,27,28
 1189 1280 1189 1280 1189 1271 c 0,29,30
 1189 1244 1189 1244 1162 1232 c 2,31,-1
 1039 1176 l 2,32,33
 1024 1169 1024 1169 1008 1169 c 0,34,35
 993 1169 993 1169 988 1191 c 0,36,37
 981 1219 981 1219 971 1235 c 0,38,39
 935 1292 935 1292 827 1292 c 0,40,41
 726 1292 726 1292 652 1228 c 0,42,43
 578 1165 578 1165 558 1047 c 2,44,-1
 515 805 l 1,45,-1
 841 805 l 2,46,47
 892 805 892 805 892 762 c 0,48,49
 892 755 892 755 890 746 c 2,50,-1
 867 614 l 2,51,52
 857 555 857 555 797 555 c 2,53,-1
 471 555 l 1,54,-1
 417 250 l 1,55,-1
 1013 250 l 2,56,57
 1065 250 1065 250 1065 207 c 0,58,59
 1065 199 1065 199 1063 191 c 2,60,-1
 1039 59 l 2,61,62
 1028 0 1028 0 969 0 c 2,63,-1
 63 0 l 2,0,1
EndSplineSet
Validated: 19457
EndChar

StartChar: currency
Encoding: 164 164 64
Width: 1200
GlyphClass: 2
Flags: W
HStem: 342 228<474.475 681.278> 933 219<523.791 728.334>
VStem: 191 251<612.606 847.343> 759 250<651.271 890.936>
DStem2: 215 571 255 316 0.761962 0.647622<-189.992 7.94358 808.972 1017.31>
LayerCount: 2
Fore
SplineSet
635 933 m 0,0,1
 568 932 568 932 514 880 c 0,2,3
 458 826 458 826 445 751 c 0,4,5
 442 733 442 733 442 711 c 0,6,7
 442 660 442 660 468 622 c 0,8,9
 504 570 504 570 571 570 c 128,-1,10
 638 570 638 570 690 622 c 0,11,12
 741 674 741 674 755 751 c 0,13,14
 759 773 759 773 759 793 c 0,15,16
 759 844 759 844 735 880 c 0,17,18
 700 933 700 933 635 933 c 0,0,1
530 342 m 0,19,20
 443 342 443 342 351 398 c 1,21,-1
 255 316 l 2,22,23
 227 292 227 292 202 292 c 0,24,25
 176 292 176 292 156 316 c 2,26,-1
 97 387 l 2,27,28
 80 407 80 407 80 427 c 0,29,30
 80 456 80 456 115 486 c 2,31,-1
 215 571 l 1,32,33
 191 638 191 638 191 698 c 0,34,35
 191 725 191 725 196 751 c 0,36,37
 219 881 219 881 270 951 c 1,38,-1
 208 1022 l 2,39,40
 193 1040 193 1040 193 1062 c 0,41,42
 193 1094 193 1094 227 1123 c 2,43,-1
 311 1194 l 2,44,45
 339 1218 339 1218 364 1218 c 0,46,47
 390 1218 390 1218 410 1194 c 2,48,-1
 469 1121 l 1,49,50
 558 1152 558 1152 664 1152 c 128,-1,51
 770 1152 770 1152 846 1107 c 1,52,-1
 948 1194 l 2,53,54
 976 1218 976 1218 1001 1218 c 0,55,56
 1027 1218 1027 1218 1047 1194 c 2,57,-1
 1105 1123 l 2,58,59
 1120 1105 1120 1105 1120 1083 c 0,60,61
 1120 1051 1120 1051 1088 1024 c 2,62,-1
 985 936 l 1,63,64
 1009 870 1009 870 1009 804 c 0,65,66
 1009 777 1009 777 1005 750 c 0,67,68
 986 625 986 625 937 555 c 1,69,-1
 993 486 l 2,70,71
 1009 466 1009 466 1009 444 c 0,72,73
 1009 416 1009 416 975 387 c 2,74,-1
 892 316 l 2,75,76
 865 292 865 292 839 292 c 128,-1,77
 813 292 813 292 793 316 c 2,78,-1
 738 383 l 1,79,80
 659 342 659 342 530 342 c 0,19,20
EndSplineSet
Validated: 19457
EndChar

StartChar: yen
Encoding: 165 165 65
Width: 1200
GlyphClass: 2
Flags: W
HStem: 0 21G<286 481> 310 180<22.1538 300 602 879.846> 602 180<74.1538 315 723 931.846> 1480 20G<114.5 309 952 1170.5>
DStem2: 530 934 88 1433 0.329252 -0.944242<-614.657 0> 530 934 723 782 0.573716 0.819055<0 721.551>
LayerCount: 2
Fore
SplineSet
316 0 m 2,0,1
 256 0 256 0 256 50 c 0,2,3
 256 59 256 59 258 69 c 2,4,-1
 300 310 l 1,5,-1
 43 310 l 2,6,7
 5 310 5 310 5 342 c 0,8,9
 5 348 5 348 6 355 c 2,10,-1
 22 445 l 2,11,12
 30 490 30 490 75 490 c 2,13,-1
 332 490 l 1,14,-1
 352 602 l 1,15,-1
 95 602 l 2,16,17
 57 602 57 602 57 634 c 0,18,19
 57 640 57 640 58 647 c 2,20,-1
 74 737 l 2,21,22
 82 782 82 782 127 782 c 2,23,-1
 315 782 l 1,24,-1
 88 1433 l 2,25,26
 84 1445 84 1445 84 1459 c 0,27,28
 85 1500 85 1500 144 1500 c 2,29,-1
 283 1500 l 2,30,31
 335 1500 335 1500 354 1446 c 2,32,-1
 530 934 l 1,33,-1
 889 1446 l 2,34,35
 927 1500 927 1500 977 1500 c 2,36,-1
 1146 1500 l 2,37,38
 1195 1500 1195 1500 1195 1473 c 0,39,40
 1195 1456 1195 1456 1179 1433 c 2,41,-1
 723 782 l 1,42,-1
 911 782 l 2,43,44
 949 782 949 782 949 750 c 0,45,46
 949 744 949 744 948 737 c 2,47,-1
 932 647 l 2,48,49
 924 602 924 602 879 602 c 2,50,-1
 622 602 l 1,51,-1
 602 490 l 1,52,-1
 859 490 l 2,53,54
 897 490 897 490 897 458 c 0,55,56
 897 452 897 452 896 445 c 2,57,-1
 880 355 l 2,58,59
 872 310 872 310 827 310 c 2,60,-1
 570 310 l 1,61,-1
 528 69 l 2,62,63
 516 0 516 0 446 0 c 2,64,-1
 316 0 l 2,0,1
EndSplineSet
Validated: 19457
EndChar

StartChar: brokenbar
Encoding: 166 166 66
Width: 1200
GlyphClass: 2
Flags: W
DStem2: 317.657 -150 563.657 -150 0.173648 0.984808<51.314 812.89 1067.67 1829.24>
LayerCount: 2
Fore
SplineSet
387 -150 m 2,0,1
 328 -150 328 -150 328 -100 c 0,2,3
 328 -91 328 -91 330 -80 c 2,4,-1
 448 590 l 2,5,6
 460 660 460 660 530 660 c 2,7,-1
 636 660 l 2,8,9
 696 660 696 660 696 609 c 0,10,11
 696 600 696 600 694 590 c 2,12,-1
 576 -80 l 2,13,14
 564 -150 564 -150 493 -150 c 2,15,-1
 387 -150 l 2,0,1
707 1660 m 2,16,-1
 813 1660 l 2,17,18
 872 1660 872 1660 872 1610 c 0,19,20
 872 1601 872 1601 870 1590 c 2,21,-1
 752 920 l 2,22,23
 740 850 740 850 670 850 c 2,24,-1
 564 850 l 2,25,26
 504 850 504 850 504 901 c 0,27,28
 504 910 504 910 506 920 c 2,29,-1
 624 1590 l 2,30,31
 637 1660 637 1660 707 1660 c 2,16,-1
EndSplineSet
Validated: 19457
EndChar

StartChar: section
Encoding: 167 167 67
Width: 1200
GlyphClass: 2
Flags: W
HStem: -20 240<415.909 591.208> 1280 240<608.792 784.091>
VStem: 184 271<712.547 869.568> 320 268<1130.98 1264.98> 612 268<235.021 369.022> 745 271<630.432 787.453>
LayerCount: 2
Fore
SplineSet
484 -20 m 0,0,1
 292 -20 292 -20 196 121 c 0,2,3
 181 143 181 143 181 165 c 0,4,5
 181 206 181 206 222 241 c 2,6,-1
 271 283 l 2,7,8
 307 314 307 314 340 314 c 0,9,10
 372 314 372 314 402 279 c 0,11,12
 453 220 453 220 509 220 c 0,13,14
 558 220 558 220 580 237 c 0,15,16
 612 260 612 260 612 291 c 0,17,18
 612 358 612 358 514 399 c 2,19,-1
 389 451 l 2,20,21
 286 494 286 494 235 565 c 0,22,23
 184 634 184 634 184 738 c 0,24,25
 184 834 184 834 227 890 c 0,26,27
 260 934 260 934 303 934 c 0,28,29
 329 934 329 934 351 917 c 2,30,-1
 424 860 l 2,31,32
 455 836 455 836 455 799 c 0,33,34
 455 726 455 726 548 682 c 2,35,-1
 651 633 l 2,36,37
 759 582 759 582 813 518 c 0,38,39
 880 438 880 438 880 306 c 0,40,41
 880 162 880 162 736 58 c 0,42,43
 628 -20 628 -20 484 -20 c 0,0,1
716 1520 m 0,44,45
 908 1520 908 1520 1004 1379 c 0,46,47
 1019 1357 1019 1357 1019 1335 c 0,48,49
 1019 1294 1019 1294 978 1259 c 2,50,-1
 929 1217 l 2,51,52
 893 1186 893 1186 860 1186 c 0,53,54
 828 1186 828 1186 798 1221 c 0,55,56
 747 1280 747 1280 691 1280 c 0,57,58
 642 1280 642 1280 620 1263 c 0,59,60
 588 1240 588 1240 588 1209 c 0,61,62
 588 1142 588 1142 686 1101 c 2,63,-1
 811 1049 l 2,64,65
 914 1006 914 1006 965 935 c 0,66,67
 1016 866 1016 866 1016 762 c 0,68,69
 1016 666 1016 666 973 610 c 0,70,71
 940 566 940 566 897 566 c 0,72,73
 871 566 871 566 849 583 c 2,74,-1
 776 640 l 2,75,76
 745 664 745 664 745 701 c 0,77,78
 745 774 745 774 652 818 c 2,79,-1
 549 867 l 2,80,81
 441 918 441 918 387 982 c 0,82,83
 320 1062 320 1062 320 1194 c 0,84,85
 320 1338 320 1338 464 1442 c 0,86,87
 572 1520 572 1520 716 1520 c 0,44,45
EndSplineSet
Validated: 19457
EndChar

StartChar: dieresis
Encoding: 168 168 68
Width: 1200
GlyphClass: 2
Flags: W
HStem: 1166 354<266.699 504.766 696.699 934.766>
VStem: 206 358<1225.61 1459.71> 636 358<1225.61 1459.71>
LayerCount: 2
Fore
SplineSet
815 1166 m 0,0,1
 741 1166 741 1166 690 1215 c 0,2,3
 636 1267 636 1267 636 1343 c 128,-1,4
 636 1419 636 1419 690 1470 c 0,5,6
 743 1520 743 1520 815 1520 c 0,7,8
 892 1520 892 1520 941 1470 c 0,9,10
 994 1416 994 1416 994 1343 c 0,11,12
 994 1266 994 1266 942 1216 c 128,-1,13
 890 1166 890 1166 815 1166 c 0,0,1
385 1166 m 0,14,15
 311 1166 311 1166 260 1215 c 0,16,17
 206 1267 206 1267 206 1343 c 128,-1,18
 206 1419 206 1419 260 1470 c 0,19,20
 313 1520 313 1520 385 1520 c 0,21,22
 462 1520 462 1520 511 1470 c 0,23,24
 564 1416 564 1416 564 1343 c 0,25,26
 564 1266 564 1266 512 1216 c 128,-1,27
 460 1166 460 1166 385 1166 c 0,14,15
EndSplineSet
Validated: 19457
EndChar

StartChar: guillemotleft
Encoding: 171 171 69
Width: 1200
GlyphClass: 2
Flags: W
DStem2: 320 731 57 706 0.467888 -0.883788<0 451.22> 74 805 320 731 0.66291 0.748699<107.672 697.211> 770 731 507 706 0.467888 -0.883788<0 451.22> 524 805 770 731 0.66291 0.748699<107.672 697.211>
LayerCount: 2
Fore
SplineSet
524 805 m 2,0,-1
 949 1285 l 2,1,2
 976 1316 976 1316 1004 1316 c 0,3,4
 1029 1316 1029 1316 1047 1299 c 2,5,-1
 1131 1221 l 2,6,7
 1153 1201 1153 1201 1153 1180 c 0,8,9
 1153 1158 1153 1158 1124 1126 c 2,10,-1
 770 731 l 1,11,-1
 966 370 l 2,12,13
 978 348 978 348 978 330 c 0,14,15
 978 301 978 301 939 275 c 2,16,-1
 850 215 l 2,17,18
 823 197 823 197 799 197 c 0,19,20
 776 197 776 197 759 230 c 2,21,-1
 507 706 l 2,22,23
 497 725 497 725 497 745 c 0,24,25
 497 775 497 775 524 805 c 2,0,-1
74 805 m 2,26,-1
 499 1285 l 2,27,28
 526 1316 526 1316 554 1316 c 0,29,30
 579 1316 579 1316 597 1299 c 2,31,-1
 681 1221 l 2,32,33
 703 1201 703 1201 703 1180 c 0,34,35
 703 1158 703 1158 674 1126 c 2,36,-1
 320 731 l 1,37,-1
 516 370 l 2,38,39
 528 348 528 348 528 330 c 0,40,41
 528 301 528 301 489 275 c 2,42,-1
 400 215 l 2,43,44
 373 197 373 197 349 197 c 0,45,46
 326 197 326 197 309 230 c 2,47,-1
 57 706 l 2,48,49
 47 725 47 725 47 745 c 0,50,51
 47 775 47 775 74 805 c 2,26,-1
EndSplineSet
Validated: 19457
EndChar

StartChar: logicalnot
Encoding: 172 172 70
Width: 1200
GlyphClass: 2
Flags: W
HStem: 635 240<79.4131 741>
LayerCount: 2
Fore
SplineSet
149 875 m 2,0,-1
 1099 875 l 2,1,2
 1149 875 1149 875 1149 833 c 0,3,4
 1149 812 1149 812 1134 792 c 2,5,-1
 855 425 l 2,6,7
 816 374 816 374 759 374 c 2,8,-1
 604 374 l 2,9,10
 574 374 574 374 574 394 c 0,11,12
 574 412 574 412 595 440 c 2,13,-1
 741 635 l 1,14,-1
 106 635 l 2,15,16
 51 635 51 635 51 675 c 0,17,18
 51 683 51 683 54 700 c 2,19,-1
 73 810 l 2,20,21
 84 875 84 875 149 875 c 2,0,-1
EndSplineSet
Validated: 19457
EndChar

StartChar: uni00AD
Encoding: 173 173 71
Width: 1200
GlyphClass: 2
Flags: W
HStem: 635 240<155.268 1044.73>
LayerCount: 2
Fore
SplineSet
230 875 m 2,0,-1
 1012 875 l 2,1,2
 1072 875 1072 875 1072 824 c 0,3,4
 1072 815 1072 815 1070 805 c 2,5,-1
 1052 705 l 2,6,7
 1040 635 1040 635 970 635 c 2,8,-1
 188 635 l 2,9,10
 128 635 128 635 128 686 c 0,11,12
 128 695 128 695 130 705 c 2,13,-1
 148 805 l 2,14,15
 160 875 160 875 230 875 c 2,0,-1
EndSplineSet
Validated: 19457
EndChar

StartChar: macron
Encoding: 175 175 72
Width: 1200
GlyphClass: 2
Flags: W
HStem: 1230 161<316.643 883.357>
VStem: 302 596<1273.59 1347.41>
LayerCount: 2
Fore
SplineSet
364 1391 m 2,0,-1
 864 1391 l 2,1,2
 898 1391 898 1391 898 1362 c 0,3,4
 898 1357 898 1357 897 1351 c 2,5,-1
 883 1270 l 2,6,7
 876 1230 876 1230 836 1230 c 2,8,-1
 336 1230 l 2,9,10
 302 1230 302 1230 302 1259 c 0,11,12
 302 1264 302 1264 303 1270 c 2,13,-1
 317 1351 l 2,14,15
 324 1391 324 1391 364 1391 c 2,0,-1
EndSplineSet
Validated: 19457
EndChar

StartChar: degree
Encoding: 176 176 73
Width: 1200
GlyphClass: 2
Flags: W
HStem: 845 188<491.135 674.946> 1333 187<527.617 710.903>
VStem: 263 206<1076.97 1273.43> 731 206<1092.33 1289.03>
LayerCount: 2
Fore
SplineSet
628 1333 m 128,-1,1
 573 1333 573 1333 528 1290 c 128,-1,2
 483 1247 483 1247 472 1183 c 0,3,4
 469 1166 469 1166 469 1150 c 0,5,6
 469 1107 469 1107 490 1076 c 0,7,8
 520 1033 520 1033 575 1033 c 128,-1,9
 630 1033 630 1033 673.5 1076 c 128,-1,10
 717 1119 717 1119 728 1183 c 0,11,12
 731 1201 731 1201 731 1217 c 0,13,14
 731 1259 731 1259 711 1290 c 0,15,0
 683 1333 683 1333 628 1333 c 128,-1,1
649 1520 m 0,16,17
 790 1520 790 1520 869 1421 c 0,18,19
 937 1336 937 1336 937 1224 c 0,20,21
 937 1203 937 1203 935 1182 c 0,22,23
 919 1037 919 1037 809 943 c 0,24,25
 695 845 695 845 550 845 c 0,26,27
 409 845 409 845 331 944 c 0,28,29
 263 1031 263 1031 263 1143 c 0,30,31
 263 1163 263 1163 265 1183 c 0,32,33
 280 1329 280 1329 393 1425 c 0,34,35
 504 1520 504 1520 649 1520 c 0,16,17
EndSplineSet
Validated: 19457
EndChar

StartChar: plusminus
Encoding: 177 177 74
Width: 1200
GlyphClass: 2
Flags: W
HStem: 158 240<98.2681 987.732> 802 240<212.268 516 798 1101.73>
DStem2: 402.23 158 642.23 158 0.173648 0.984808<358.988 653.972 939.295 1233.29>
LayerCount: 2
Fore
SplineSet
688 1383 m 2,0,-1
 788 1383 l 2,1,2
 848 1383 848 1383 848 1332 c 0,3,4
 848 1323 848 1323 846 1313 c 2,5,-1
 798 1042 l 1,6,-1
 1069 1042 l 2,7,8
 1129 1042 1129 1042 1129 991 c 0,9,10
 1129 982 1129 982 1127 972 c 2,11,-1
 1109 872 l 2,12,13
 1097 802 1097 802 1027 802 c 2,14,-1
 756 802 l 1,15,-1
 708 531 l 2,16,17
 696 461 696 461 625 461 c 2,18,-1
 525 461 l 2,19,20
 466 461 466 461 466 511 c 0,21,22
 466 520 466 520 468 531 c 2,23,-1
 516 802 l 1,24,-1
 245 802 l 2,25,26
 185 802 185 802 185 853 c 0,27,28
 185 862 185 862 187 872 c 2,29,-1
 205 972 l 2,30,31
 217 1042 217 1042 287 1042 c 2,32,-1
 558 1042 l 1,33,-1
 606 1313 l 2,34,35
 618 1383 618 1383 688 1383 c 2,0,-1
173 398 m 2,36,-1
 955 398 l 2,37,38
 1015 398 1015 398 1015 347 c 0,39,40
 1015 338 1015 338 1013 328 c 2,41,-1
 995 228 l 2,42,43
 983 158 983 158 913 158 c 2,44,-1
 131 158 l 2,45,46
 71 158 71 158 71 209 c 0,47,48
 71 218 71 218 73 228 c 2,49,-1
 91 328 l 2,50,51
 103 398 103 398 173 398 c 2,36,-1
EndSplineSet
Validated: 19457
EndChar

StartChar: acute
Encoding: 180 180 75
Width: 1200
GlyphClass: 2
Flags: W
HStem: 964 556
VStem: 378 444
LayerCount: 2
Fore
SplineSet
792 1463 m 2,0,1
 822 1451 822 1451 822 1428 c 0,2,3
 822 1411 822 1411 804 1383 c 2,4,-1
 570 999 l 2,5,6
 550 964 550 964 520 964 c 0,7,8
 500 964 500 964 482 971 c 2,9,-1
 406 1001 l 2,10,11
 378 1012 378 1012 378 1038 c 0,12,13
 378 1054 378 1054 392 1081 c 2,14,-1
 580 1476 l 2,15,16
 602 1520 602 1520 634 1520 c 0,17,18
 650 1520 650 1520 662 1515 c 2,19,-1
 792 1463 l 2,0,1
EndSplineSet
Validated: 19457
EndChar

StartChar: uni00B5
Encoding: 181 181 76
Width: 1200
GlyphClass: 2
Flags: W
HStem: -399 21G<53 238> -20 240<450.126 724.216> 0 21G<778 958> 1080 20G<312 497 962 1147>
DStem2: 12.8334 -399 272.833 -399 0.173648 0.984808<51.2831 488.909 823.135 1515.99> 663.334 -399 922.479 -399 0.173648 0.984808<653.356 1515.91>
LayerCount: 2
Fore
SplineSet
803 0 m 2,0,1
 753 0 753 0 745 35 c 1,2,3
 646 -20 646 -20 527 -20 c 0,4,5
 429 -20 429 -20 350 38 c 1,6,-1
 285 -330 l 2,7,8
 273 -399 273 -399 203 -399 c 2,9,-1
 83 -399 l 2,10,11
 23 -399 23 -399 23 -349 c 0,12,13
 23 -340 23 -340 25 -330 c 2,14,-1
 265 1031 l 2,15,16
 277 1100 277 1100 347 1100 c 2,17,-1
 467 1100 l 2,18,19
 527 1100 527 1100 527 1050 c 0,20,21
 527 1041 527 1041 525 1031 c 2,22,-1
 415 408 l 2,23,24
 411 386 411 386 411 366 c 0,25,26
 411 307 411 307 444 270 c 0,27,28
 488 220 488 220 594 220 c 0,29,30
 715 220 715 220 785 291 c 1,31,-1
 915 1031 l 2,32,33
 927 1100 927 1100 997 1100 c 2,34,-1
 1117 1100 l 2,35,36
 1177 1100 1177 1100 1177 1050 c 0,37,38
 1177 1041 1177 1041 1175 1031 c 2,39,-1
 1005 69 l 2,40,41
 993 0 993 0 923 0 c 2,42,-1
 803 0 l 2,0,1
EndSplineSet
Validated: 19457
EndChar

StartChar: paragraph
Encoding: 182 182 77
Width: 1200
GlyphClass: 2
Flags: W
HStem: 0 21G<381.5 526.5 697.5 842.5> 1360 140<801 897>
DStem2: 341.833 0 561.833 0 0.173648 0.984808<50.2985 604.049> 657.833 0 877.833 0 0.173648 0.984808<50.2985 1380.87>
LayerCount: 2
Fore
SplineSet
411 0 m 2,0,1
 352 0 352 0 352 49 c 0,2,3
 352 58 352 58 354 69 c 2,4,-1
 446 595 l 1,5,6
 260 596 260 596 152 728 c 0,7,8
 69 829 69 829 68 963 c 0,9,10
 68 1004 68 1004 76 1048 c 0,11,12
 109 1236 109 1236 265 1368 c 128,-1,13
 421 1500 421 1500 606 1500 c 2,14,-1
 1072 1500 l 2,15,16
 1132 1500 1132 1500 1132 1450 c 0,17,18
 1132 1441 1132 1441 1130 1431 c 2,19,-1
 890 69 l 2,20,21
 878 0 878 0 807 0 c 2,22,-1
 727 0 l 2,23,24
 668 0 668 0 668 49 c 0,25,26
 668 58 668 58 670 69 c 2,27,-1
 897 1360 l 1,28,-1
 801 1360 l 1,29,-1
 574 69 l 2,30,31
 562 0 562 0 491 0 c 2,32,-1
 411 0 l 2,0,1
EndSplineSet
Validated: 19457
EndChar

StartChar: periodcentered
Encoding: 183 183 78
Width: 1200
GlyphClass: 2
Flags: W
HStem: 571 354<481.699 719.766>
VStem: 421 358<630.612 864.708>
LayerCount: 2
Fore
SplineSet
600 571 m 0,0,1
 526 571 526 571 475 620 c 0,2,3
 421 672 421 672 421 748 c 128,-1,4
 421 824 421 824 475 875 c 0,5,6
 528 925 528 925 600 925 c 0,7,8
 677 925 677 925 726 875 c 0,9,10
 779 821 779 821 779 748 c 0,11,12
 779 671 779 671 727 621 c 128,-1,13
 675 571 675 571 600 571 c 0,0,1
EndSplineSet
Validated: 19457
EndChar

StartChar: cedilla
Encoding: 184 184 79
Width: 1200
GlyphClass: 2
Flags: W
HStem: -420 138<425.511 569.641> -107 107<493 559.179>
VStem: 590 196<-261.734 -129.783>
LayerCount: 2
Fore
SplineSet
493 0 m 1,0,-1
 643 0 l 1,1,-1
 636 -39 l 1,2,3
 693 -48 693 -48 731 -82 c 0,4,5
 786 -131 786 -131 786 -203 c 24,6,7
 786 -286 786 -286 718 -344 c 0,8,9
 629 -420 629 -420 445 -420 c 0,10,11
 414 -420 414 -420 414 -395 c 0,12,13
 414 -391 414 -391 415 -385 c 2,14,15
 427 -317 l 2,16,17
 433 -282 433 -282 471 -282 c 0,18,19
 522 -282 522 -282 556 -254 c 0,20,21
 590 -225 590 -225 590 -192 c 0,22,23
 590 -189 590 -189 590 -186 c 0,24,25
 590 -154 590 -154 560 -129 c 0,26,27
 534 -107 534 -107 474 -107 c 1,28,-1
 493 0 l 1,0,-1
EndSplineSet
Validated: 19457
EndChar

StartChar: guillemotright
Encoding: 187 187 80
Width: 1200
GlyphClass: 2
Flags: W
DStem2: 441 1283 234 1143 0.467888 -0.883788<-13.5893 437.631> 430 782 251 228 0.66291 0.748699<-589.539 0> 891 1283 684 1143 0.467888 -0.883788<-13.5893 437.631> 880 782 701 228 0.66291 0.748699<-589.539 0>
LayerCount: 2
Fore
SplineSet
676 708 m 2,0,-1
 251 228 l 2,1,2
 224 197 224 197 196 197 c 0,3,4
 171 197 171 197 153 214 c 2,5,-1
 69 292 l 2,6,7
 47 312 47 312 47 333 c 0,8,9
 47 355 47 355 76 387 c 2,10,-1
 430 782 l 1,11,-1
 234 1143 l 2,12,13
 222 1165 222 1165 222 1183 c 0,14,15
 222 1212 222 1212 261 1238 c 2,16,-1
 350 1298 l 2,17,18
 377 1316 377 1316 401 1316 c 0,19,20
 424 1316 424 1316 441 1283 c 2,21,-1
 693 807 l 2,22,23
 703 788 703 788 703 768 c 0,24,25
 703 738 703 738 676 708 c 2,0,-1
1126 708 m 2,26,-1
 701 228 l 2,27,28
 674 197 674 197 646 197 c 0,29,30
 621 197 621 197 603 214 c 2,31,-1
 519 292 l 2,32,33
 497 312 497 312 497 333 c 0,34,35
 497 355 497 355 526 387 c 2,36,-1
 880 782 l 1,37,-1
 684 1143 l 2,38,39
 672 1165 672 1165 672 1183 c 0,40,41
 672 1212 672 1212 711 1238 c 2,42,-1
 800 1298 l 2,43,44
 827 1316 827 1316 851 1316 c 0,45,46
 874 1316 874 1316 891 1283 c 2,47,-1
 1143 807 l 2,48,49
 1153 788 1153 788 1153 768 c 0,50,51
 1153 738 1153 738 1126 708 c 2,26,-1
EndSplineSet
Validated: 19457
EndChar

StartChar: questiondown
Encoding: 191 191 81
Width: 1200
GlyphClass: 2
Flags: W
HStem: -420 250<471.533 807.614> 766 354<728.699 966.766>
VStem: 134 270<-104.163 142.836> 668 358<825.612 1059.71>
LayerCount: 2
Fore
SplineSet
847 766 m 0,0,1
 773 766 773 766 722 815 c 0,2,3
 668 867 668 867 668 943 c 128,-1,4
 668 1019 668 1019 722 1070 c 0,5,6
 775 1120 775 1120 847 1120 c 0,7,8
 924 1120 924 1120 973 1070 c 0,9,10
 1026 1016 1026 1016 1026 943 c 0,11,12
 1026 866 1026 866 974 816 c 128,-1,13
 922 766 922 766 847 766 c 0,0,1
604 -420 m 0,14,15
 352 -420 352 -420 232 -266 c 0,16,17
 134 -139 134 -139 134 7 c 0,18,19
 134 29 134 29 136 51 c 0,20,21
 152 207 152 207 260 305 c 0,22,23
 350 387 350 387 472 454 c 0,24,25
 582 515 582 515 606 535 c 0,26,27
 648 570 648 570 652 600 c 0,28,29
 656 632 656 632 678 647 c 0,30,31
 694 660 694 660 726 660 c 2,32,-1
 866 660 l 2,33,34
 926 660 926 660 926 628 c 0,35,36
 926 620 926 620 924 606 c 0,37,38
 906 512 906 512 842 441 c 0,39,40
 790 384 790 384 704 341 c 0,41,42
 434 204 434 204 408 49 c 0,43,44
 404 28 404 28 404 8 c 0,45,46
 404 -49 404 -49 436 -91 c 0,47,48
 496 -170 496 -170 626 -170 c 0,49,50
 764 -170 764 -170 848 -98 c 0,51,52
 886 -66 886 -66 912 -66 c 0,53,54
 932 -66 932 -66 948 -78 c 2,55,-1
 1038 -143 l 2,56,57
 1066 -163 1066 -163 1066 -190 c 0,58,59
 1066 -218 1066 -218 1040 -241 c 0,60,61
 846 -420 846 -420 604 -420 c 0,14,15
EndSplineSet
Validated: 19457
EndChar

StartChar: figuredash
Encoding: 8210 8210 82
Width: 1200
GlyphClass: 2
Flags: W
HStem: 635 240<155.268 1044.73>
LayerCount: 2
Fore
SplineSet
230 875 m 2,0,-1
 1012 875 l 2,1,2
 1072 875 1072 875 1072 824 c 0,3,4
 1072 815 1072 815 1070 805 c 2,5,-1
 1052 705 l 2,6,7
 1040 635 1040 635 970 635 c 2,8,-1
 188 635 l 2,9,10
 128 635 128 635 128 686 c 0,11,12
 128 695 128 695 130 705 c 2,13,-1
 148 805 l 2,14,15
 160 875 160 875 230 875 c 2,0,-1
EndSplineSet
Validated: 19457
EndChar

StartChar: endash
Encoding: 8211 8211 83
Width: 1200
GlyphClass: 2
Flags: W
HStem: 635 240<41.2681 1158.73>
LayerCount: 2
Fore
SplineSet
116 875 m 2,0,-1
 1126 875 l 2,1,2
 1186 875 1186 875 1186 824 c 0,3,4
 1186 815 1186 815 1184 805 c 2,5,-1
 1166 705 l 2,6,7
 1154 635 1154 635 1084 635 c 2,8,-1
 74 635 l 2,9,10
 14 635 14 635 14 686 c 0,11,12
 14 695 14 695 16 705 c 2,13,-1
 34 805 l 2,14,15
 46 875 46 875 116 875 c 2,0,-1
EndSplineSet
Validated: 19457
EndChar

StartChar: emdash
Encoding: 8212 8212 84
Width: 1200
GlyphClass: 2
Flags: W
HStem: 635 240<41.2681 1158.73>
LayerCount: 2
Fore
SplineSet
116 875 m 2,0,-1
 1126 875 l 2,1,2
 1186 875 1186 875 1186 824 c 0,3,4
 1186 815 1186 815 1184 805 c 2,5,-1
 1166 705 l 2,6,7
 1154 635 1154 635 1084 635 c 2,8,-1
 74 635 l 2,9,10
 14 635 14 635 14 686 c 0,11,12
 14 695 14 695 16 705 c 2,13,-1
 34 805 l 2,14,15
 46 875 46 875 116 875 c 2,0,-1
EndSplineSet
Validated: 19457
EndChar

StartChar: quoteleft
Encoding: 8216 8216 85
Width: 1200
GlyphClass: 2
Flags: W
HStem: 973 637
VStem: 416 246<1123.63 1377.44>
LayerCount: 2
Fore
SplineSet
523 973 m 0,0,1
 501 973 501 973 479 996 c 0,2,3
 416 1065 416 1065 416 1177 c 0,4,5
 416 1216 416 1216 424 1261 c 0,6,7
 456 1445 456 1445 634 1589 c 0,8,9
 660 1610 660 1610 683 1610 c 0,10,11
 702 1610 702 1610 719 1595 c 2,12,-1
 769 1552 l 2,13,14
 784 1539 784 1539 784 1524 c 0,15,16
 784 1506 784 1506 762 1488 c 0,17,18
 689 1425 689 1425 668 1305 c 0,19,20
 662 1271 662 1271 662 1243 c 0,21,22
 662 1179 662 1179 693 1144 c 0,23,24
 712 1122 712 1122 712 1104 c 0,25,26
 712 1075 712 1075 669 1049 c 2,27,-1
 565 986 l 2,28,29
 544 973 544 973 523 973 c 0,0,1
EndSplineSet
Validated: 19457
EndChar

StartChar: quoteright
Encoding: 8217 8217 86
Width: 1200
GlyphClass: 2
Flags: W
HStem: 973 637
VStem: 538 246<1205.56 1459.37>
LayerCount: 2
Fore
SplineSet
677 1610 m 0,0,1
 699 1610 699 1610 721 1587 c 0,2,3
 784 1518 784 1518 784 1406 c 0,4,5
 784 1367 784 1367 776 1322 c 0,6,7
 744 1138 744 1138 566 994 c 0,8,9
 540 973 540 973 517 973 c 0,10,11
 498 973 498 973 481 988 c 2,12,-1
 431 1031 l 2,13,14
 416 1044 416 1044 416 1059 c 0,15,16
 416 1077 416 1077 438 1095 c 0,17,18
 511 1158 511 1158 532 1278 c 0,19,20
 538 1312 538 1312 538 1340 c 0,21,22
 538 1404 538 1404 507 1439 c 0,23,24
 488 1461 488 1461 488 1479 c 0,25,26
 488 1508 488 1508 531 1534 c 2,27,-1
 635 1597 l 2,28,29
 656 1610 656 1610 677 1610 c 0,0,1
EndSplineSet
Validated: 19457
EndChar

StartChar: quotesinglbase
Encoding: 8218 8218 87
Width: 1200
GlyphClass: 2
Flags: W
HStem: -317 637
VStem: 538 246<-84.4434 169.374>
LayerCount: 2
Fore
SplineSet
677 320 m 0,0,1
 699 320 699 320 721 297 c 0,2,3
 784 228 784 228 784 116 c 0,4,5
 784 77 784 77 776 32 c 0,6,7
 744 -152 744 -152 566 -296 c 0,8,9
 540 -317 540 -317 517 -317 c 0,10,11
 498 -317 498 -317 481 -302 c 2,12,-1
 431 -259 l 2,13,14
 416 -246 416 -246 416 -231 c 0,15,16
 416 -213 416 -213 438 -195 c 0,17,18
 511 -132 511 -132 532 -12 c 0,19,20
 538 22 538 22 538 50 c 0,21,22
 538 114 538 114 507 149 c 0,23,24
 488 171 488 171 488 189 c 0,25,26
 488 218 488 218 531 244 c 2,27,-1
 635 307 l 2,28,29
 656 320 656 320 677 320 c 0,0,1
EndSplineSet
Validated: 19457
EndChar

StartChar: quotereversed
Encoding: 8219 8219 88
Width: 1200
GlyphClass: 2
Flags: W
HStem: 973 637<555.228 648.625>
VStem: 424 225<1088.83 1380.46>
LayerCount: 2
Fore
SplineSet
632 1610 m 0,0,1
 652 1610 652 1610 669 1597 c 2,2,-1
 750 1534 l 2,3,4
 776 1514 776 1514 776 1490 c 0,5,6
 776 1472 776 1472 741 1439 c 0,7,8
 673 1374 673 1374 655 1281 c 0,9,10
 649 1249 649 1249 649 1220 c 0,11,12
 649 1147 649 1147 689 1095 c 0,13,14
 700 1083 700 1083 700 1071 c 0,15,16
 700 1049 700 1049 673 1031 c 2,17,-1
 608 988 l 2,18,19
 585 973 585 973 567 973 c 0,20,21
 543 973 543 973 525 994 c 0,22,23
 424 1104 424 1104 424 1246 c 0,24,25
 424 1283 424 1283 431 1322 c 0,26,27
 462 1496 462 1496 580 1587 c 0,28,29
 610 1610 610 1610 632 1610 c 0,0,1
EndSplineSet
Validated: 19457
EndChar

StartChar: quotedblleft
Encoding: 8220 8220 89
Width: 1200
GlyphClass: 2
Flags: W
HStem: 973 637
VStem: 231 246<1123.63 1377.44> 601 246<1123.63 1377.44>
LayerCount: 2
Fore
SplineSet
338 973 m 0,0,1
 316 973 316 973 294 996 c 0,2,3
 231 1065 231 1065 231 1177 c 0,4,5
 231 1216 231 1216 239 1261 c 0,6,7
 271 1445 271 1445 449 1589 c 0,8,9
 475 1610 475 1610 498 1610 c 0,10,11
 517 1610 517 1610 534 1595 c 2,12,-1
 584 1552 l 2,13,14
 599 1539 599 1539 599 1524 c 0,15,16
 599 1506 599 1506 577 1488 c 0,17,18
 504 1425 504 1425 483 1305 c 0,19,20
 477 1271 477 1271 477 1243 c 0,21,22
 477 1179 477 1179 508 1144 c 0,23,24
 527 1122 527 1122 527 1104 c 0,25,26
 527 1075 527 1075 484 1049 c 2,27,-1
 380 986 l 2,28,29
 359 973 359 973 338 973 c 0,0,1
708 973 m 0,30,31
 686 973 686 973 664 996 c 0,32,33
 601 1065 601 1065 601 1177 c 0,34,35
 601 1216 601 1216 609 1261 c 0,36,37
 641 1445 641 1445 819 1589 c 0,38,39
 845 1610 845 1610 868 1610 c 0,40,41
 887 1610 887 1610 904 1595 c 2,42,-1
 954 1552 l 2,43,44
 969 1539 969 1539 969 1524 c 0,45,46
 969 1506 969 1506 947 1488 c 0,47,48
 874 1425 874 1425 853 1305 c 0,49,50
 847 1271 847 1271 847 1243 c 0,51,52
 847 1179 847 1179 878 1144 c 0,53,54
 897 1122 897 1122 897 1104 c 0,55,56
 897 1075 897 1075 854 1049 c 2,57,-1
 750 986 l 2,58,59
 729 973 729 973 708 973 c 0,30,31
EndSplineSet
Validated: 19457
EndChar

StartChar: quotedblright
Encoding: 8221 8221 90
Width: 1200
GlyphClass: 2
Flags: W
HStem: 973 637
VStem: 353 246<1205.56 1459.37> 723 246<1205.56 1459.37>
LayerCount: 2
Fore
SplineSet
862 1610 m 0,0,1
 884 1610 884 1610 906 1587 c 0,2,3
 969 1518 969 1518 969 1406 c 0,4,5
 969 1367 969 1367 961 1322 c 0,6,7
 929 1138 929 1138 751 994 c 0,8,9
 725 973 725 973 702 973 c 0,10,11
 683 973 683 973 666 988 c 2,12,-1
 616 1031 l 2,13,14
 601 1044 601 1044 601 1059 c 0,15,16
 601 1077 601 1077 623 1095 c 0,17,18
 696 1158 696 1158 717 1278 c 0,19,20
 723 1312 723 1312 723 1340 c 0,21,22
 723 1404 723 1404 692 1439 c 0,23,24
 673 1461 673 1461 673 1479 c 0,25,26
 673 1508 673 1508 716 1534 c 2,27,-1
 820 1597 l 2,28,29
 841 1610 841 1610 862 1610 c 0,0,1
492 1610 m 0,30,31
 514 1610 514 1610 536 1587 c 0,32,33
 599 1518 599 1518 599 1406 c 0,34,35
 599 1367 599 1367 591 1322 c 0,36,37
 559 1138 559 1138 381 994 c 0,38,39
 355 973 355 973 332 973 c 0,40,41
 313 973 313 973 296 988 c 2,42,-1
 246 1031 l 2,43,44
 231 1044 231 1044 231 1059 c 0,45,46
 231 1077 231 1077 253 1095 c 0,47,48
 326 1158 326 1158 347 1278 c 0,49,50
 353 1312 353 1312 353 1340 c 0,51,52
 353 1404 353 1404 322 1439 c 0,53,54
 303 1461 303 1461 303 1479 c 0,55,56
 303 1508 303 1508 346 1534 c 2,57,-1
 450 1597 l 2,58,59
 471 1610 471 1610 492 1610 c 0,30,31
EndSplineSet
Validated: 19457
EndChar

StartChar: quotedblbase
Encoding: 8222 8222 91
Width: 1200
GlyphClass: 2
Flags: W
HStem: -317 637
VStem: 353 246<-84.4434 169.374> 723 246<-84.4434 169.374>
LayerCount: 2
Fore
SplineSet
862 320 m 0,0,1
 884 320 884 320 906 297 c 0,2,3
 969 228 969 228 969 116 c 0,4,5
 969 77 969 77 961 32 c 0,6,7
 929 -152 929 -152 751 -296 c 0,8,9
 725 -317 725 -317 702 -317 c 0,10,11
 683 -317 683 -317 666 -302 c 2,12,-1
 616 -259 l 2,13,14
 601 -246 601 -246 601 -231 c 0,15,16
 601 -213 601 -213 623 -195 c 0,17,18
 696 -132 696 -132 717 -12 c 0,19,20
 723 22 723 22 723 50 c 0,21,22
 723 114 723 114 692 149 c 0,23,24
 673 171 673 171 673 189 c 0,25,26
 673 218 673 218 716 244 c 2,27,-1
 820 307 l 2,28,29
 841 320 841 320 862 320 c 0,0,1
492 320 m 0,30,31
 514 320 514 320 536 297 c 0,32,33
 599 228 599 228 599 116 c 0,34,35
 599 77 599 77 591 32 c 0,36,37
 559 -152 559 -152 381 -296 c 0,38,39
 355 -317 355 -317 332 -317 c 0,40,41
 313 -317 313 -317 296 -302 c 2,42,-1
 246 -259 l 2,43,44
 231 -246 231 -246 231 -231 c 0,45,46
 231 -213 231 -213 253 -195 c 0,47,48
 326 -132 326 -132 347 -12 c 0,49,50
 353 22 353 22 353 50 c 0,51,52
 353 114 353 114 322 149 c 0,53,54
 303 171 303 171 303 189 c 0,55,56
 303 218 303 218 346 244 c 2,57,-1
 450 307 l 2,58,59
 471 320 471 320 492 320 c 0,30,31
EndSplineSet
Validated: 19457
EndChar

StartChar: dagger
Encoding: 8224 8224 92
Width: 1200
GlyphClass: 2
Flags: W
HStem: 0 21G<313 508> 959 260<158.268 442 758 1041.73> 1480 20G<572 767>
VStem: 127 946<982.062 1195.94>
DStem2: 272.833 0 542.833 0 0.173648 0.984808<51.2831 973.806 1284.73 1518.71>
LayerCount: 2
Fore
SplineSet
343 0 m 2,0,1
 283 0 283 0 283 50 c 0,2,3
 283 59 283 59 285 69 c 2,4,-1
 442 959 l 1,5,-1
 187 959 l 2,6,7
 127 959 127 959 127 1009 c 0,8,9
 127 1018 127 1018 129 1028 c 2,10,-1
 151 1150 l 2,11,12
 163 1219 163 1219 233 1219 c 2,13,-1
 488 1219 l 1,14,-1
 525 1431 l 2,15,16
 537 1500 537 1500 607 1500 c 2,17,-1
 737 1500 l 2,18,19
 797 1500 797 1500 797 1450 c 0,20,21
 797 1441 797 1441 795 1431 c 2,22,-1
 758 1219 l 1,23,-1
 1013 1219 l 2,24,25
 1073 1219 1073 1219 1073 1169 c 0,26,27
 1073 1160 1073 1160 1071 1150 c 2,28,-1
 1049 1028 l 2,29,30
 1037 959 1037 959 967 959 c 2,31,-1
 712 959 l 1,32,-1
 555 69 l 2,33,34
 543 0 543 0 473 0 c 2,35,-1
 343 0 l 2,0,1
EndSplineSet
Validated: 19457
EndChar

StartChar: daggerdbl
Encoding: 8225 8225 93
Width: 1200
GlyphClass: 2
Flags: W
HStem: 0 21G<372 567> 291 260<99.2681 383 699 982.732> 959 260<217.268 501 817 1100.73> 1480 20G<631 826>
VStem: 68 946<314.062 527.938> 186 946<982.062 1195.94>
DStem2: 331.833 0 601.833 0 0.173648 0.984808<51.2831 295.464 606.387 973.806 1284.73 1518.71>
LayerCount: 2
Fore
SplineSet
402 0 m 2,0,1
 342 0 342 0 342 50 c 0,2,3
 342 59 342 59 344 69 c 2,4,-1
 383 291 l 1,5,-1
 128 291 l 2,6,7
 68 291 68 291 68 341 c 0,8,9
 68 350 68 350 70 360 c 2,10,-1
 92 482 l 2,11,12
 104 551 104 551 174 551 c 2,13,-1
 429 551 l 1,14,-1
 501 959 l 1,15,-1
 246 959 l 2,16,17
 186 959 186 959 186 1009 c 0,18,19
 186 1018 186 1018 188 1028 c 2,20,-1
 210 1150 l 2,21,22
 222 1219 222 1219 292 1219 c 2,23,-1
 547 1219 l 1,24,-1
 584 1431 l 2,25,26
 596 1500 596 1500 666 1500 c 2,27,-1
 796 1500 l 2,28,29
 856 1500 856 1500 856 1450 c 0,30,31
 856 1441 856 1441 854 1431 c 2,32,-1
 817 1219 l 1,33,-1
 1072 1219 l 2,34,35
 1132 1219 1132 1219 1132 1169 c 0,36,37
 1132 1160 1132 1160 1130 1150 c 2,38,-1
 1108 1028 l 2,39,40
 1096 959 1096 959 1026 959 c 2,41,-1
 771 959 l 1,42,-1
 699 551 l 1,43,-1
 954 551 l 2,44,45
 1014 551 1014 551 1014 501 c 0,46,47
 1014 492 1014 492 1012 482 c 2,48,-1
 990 360 l 2,49,50
 978 291 978 291 908 291 c 2,51,-1
 653 291 l 1,52,-1
 614 69 l 2,53,54
 602 0 602 0 532 0 c 2,55,-1
 402 0 l 2,0,1
EndSplineSet
Validated: 19457
EndChar

StartChar: bullet
Encoding: 8226 8226 94
Width: 1200
GlyphClass: 2
Flags: W
HStem: 374 755<418.281 779.453>
VStem: 217 766<578.938 930.266>
LayerCount: 2
Fore
SplineSet
600 1129 m 0,0,1
 759 1129 759 1129 871 1019 c 0,2,3
 983 910 983 910 983 752 c 0,4,5
 983 591 983 591 871 484 c 0,6,7
 757 374 757 374 600 374 c 0,8,9
 439 374 439 374 328 488 c 0,10,11
 217 601 217 601 217 758 c 0,12,13
 217 908 217 908 328 1019 c 0,14,15
 438 1129 438 1129 600 1129 c 0,0,1
EndSplineSet
Validated: 19457
EndChar

StartChar: ellipsis
Encoding: 8230 8230 95
Width: 1200
GlyphClass: 2
Flags: W
HStem: -20 354<80.6992 318.766 481.699 719.766 882.699 1120.77>
VStem: 20 358<39.6123 273.708> 421 358<39.6123 273.708> 822 358<39.6123 273.708>
CounterMasks: 1 70
LayerCount: 2
Fore
SplineSet
1001 -20 m 0,0,1
 927 -20 927 -20 876 29 c 0,2,3
 822 81 822 81 822 157 c 128,-1,4
 822 233 822 233 876 284 c 0,5,6
 929 334 929 334 1001 334 c 0,7,8
 1078 334 1078 334 1127 284 c 0,9,10
 1180 230 1180 230 1180 157 c 0,11,12
 1180 80 1180 80 1128 30 c 128,-1,13
 1076 -20 1076 -20 1001 -20 c 0,0,1
199 -20 m 0,14,15
 125 -20 125 -20 74 29 c 0,16,17
 20 81 20 81 20 157 c 128,-1,18
 20 233 20 233 74 284 c 0,19,20
 127 334 127 334 199 334 c 0,21,22
 276 334 276 334 325 284 c 0,23,24
 378 230 378 230 378 157 c 0,25,26
 378 80 378 80 326 30 c 128,-1,27
 274 -20 274 -20 199 -20 c 0,14,15
600 -20 m 0,28,29
 526 -20 526 -20 475 29 c 0,30,31
 421 81 421 81 421 157 c 128,-1,32
 421 233 421 233 475 284 c 0,33,34
 528 334 528 334 600 334 c 0,35,36
 677 334 677 334 726 284 c 0,37,38
 779 230 779 230 779 157 c 0,39,40
 779 80 779 80 727 30 c 128,-1,41
 675 -20 675 -20 600 -20 c 0,28,29
EndSplineSet
Validated: 19457
EndChar

StartChar: perthousand
Encoding: 8240 8240 96
Width: 1200
GlyphClass: 2
Flags: W
HStem: 0 166<194.732 323.967 724.732 853.967> 339 161<202.669 341.564 734.299 871.564> 1020 165<265.391 401.865> 1359 161<273.437 412.243>
VStem: 14 170<192.626 321.512> 84 170<1201.05 1339.51> 352 166<190.876 313.436> 422 167<1203.94 1344.07> 544 170<192.626 318.857> 882 166<190.876 313.436>
DStem2: 1096 1336 106 508 0.832292 0.554338<-1319.47 32.3887>
LayerCount: 2
Fore
SplineSet
716 252 m 0,0,1
 714 244 714 244 714 236 c 0,2,3
 714 212 714 212 728 192 c 0,4,5
 748 166 748 166 782 166 c 0,6,7
 820 166 820 166 846 190 c 0,8,9
 874 218 874 218 880 252 c 0,10,11
 882 262 882 262 882 270 c 0,12,13
 882 296 882 296 868 314 c 0,14,15
 849 339 849 339 813 339 c 128,-1,16
 777 339 777 339 749.5 313.5 c 128,-1,17
 722 288 722 288 716 252 c 0,0,1
830 500 m 0,18,19
 932 500 932 500 996 426 c 0,20,21
 1048 364 1048 364 1048 278 c 0,22,23
 1048 264 1048 264 1048 250 c 0,24,25
 1038 146 1038 146 953 73 c 128,-1,26
 868 0 868 0 762 0 c 128,-1,27
 656 0 656 0 596 74 c 0,28,29
 546 136 546 136 544 222 c 0,30,31
 546 234 546 234 546 250 c 0,32,33
 556 356 556 356 637.5 428 c 128,-1,34
 719 500 719 500 830 500 c 0,18,19
186 252 m 0,35,36
 184 244 184 244 184 236 c 0,37,38
 184 212 184 212 198 192 c 0,39,40
 218 166 218 166 252 166 c 0,41,42
 290 166 290 166 316 190 c 0,43,44
 344 218 344 218 350 252 c 0,45,46
 352 262 352 262 352 270 c 0,47,48
 352 296 352 296 338 314 c 0,49,50
 319 339 319 339 282.5 339 c 128,-1,51
 246 339 246 339 219 313.5 c 128,-1,52
 192 288 192 288 186 252 c 0,35,36
300 500 m 0,53,54
 402 500 402 500 466 426 c 0,55,56
 518 364 518 364 518 278 c 0,57,58
 518 264 518 264 518 250 c 0,59,60
 508 146 508 146 423 73 c 128,-1,61
 338 0 338 0 232 0 c 128,-1,62
 126 0 126 0 66 74 c 0,63,64
 16 136 16 136 14 222 c 0,65,66
 16 234 16 234 16 250 c 0,67,68
 26 356 26 356 107.5 428 c 128,-1,69
 189 500 189 500 300 500 c 0,53,54
71 494 m 0,70,71
 53 494 53 494 39 517 c 2,72,-1
 13 561 l 2,73,74
 3 578 3 578 5 593 c 0,75,76
 9 612 9 612 36 630 c 2,77,-1
 1096 1336 l 2,78,79
 1117 1350 1117 1350 1130 1350 c 0,80,81
 1147 1350 1147 1350 1162 1326 c 2,82,-1
 1188 1283 l 2,83,84
 1198 1267 1198 1267 1194 1248 c 0,85,86
 1191 1230 1191 1230 1166 1213 c 2,87,-1
 106 508 l 2,88,89
 85 494 85 494 71 494 c 0,70,71
256 1272 m 0,90,91
 254 1263 254 1263 254 1255 c 0,92,93
 254 1230 254 1230 269 1211 c 0,94,95
 289 1185 289 1185 323 1185 c 0,96,97
 360 1185 360 1185 386 1210 c 0,98,99
 415 1238 415 1238 421 1272 c 0,100,101
 422 1281 422 1281 422 1289 c 0,102,103
 422 1315 422 1315 408 1334 c 0,104,105
 389 1359 389 1359 354 1359 c 128,-1,106
 319 1359 319 1359 290.5 1333.5 c 128,-1,107
 262 1308 262 1308 256 1272 c 0,90,91
371 1520 m 0,108,109
 474 1520 474 1520 537 1446 c 0,110,111
 589 1385 589 1385 589 1298 c 0,112,113
 589 1284 589 1284 588 1270 c 0,114,115
 578 1166 578 1166 493.5 1093 c 128,-1,116
 409 1020 409 1020 302.5 1020 c 128,-1,117
 196 1020 196 1020 136 1093 c 0,118,119
 85 1156 85 1156 84 1242 c 0,120,121
 85 1255 85 1255 86 1270 c 0,122,123
 96 1376 96 1376 178 1448 c 128,-1,124
 260 1520 260 1520 371 1520 c 0,108,109
EndSplineSet
Validated: 19457
EndChar

StartChar: minute
Encoding: 8242 8242 97
Width: 1200
GlyphClass: 2
Flags: W
HStem: 964 556
VStem: 379 443
LayerCount: 2
Fore
SplineSet
792 1463 m 6,0,1
 827 1449 827 1449 822 1423 c 4,2,3
 819 1406 819 1406 805 1383 c 6,4,-1
 570 999 l 6,5,6
 549 964 549 964 520 964 c 4,7,8
 501 964 501 964 483 971 c 6,9,-1
 406 1001 l 6,10,11
 373 1014 373 1014 379 1043 c 4,12,13
 382 1058 382 1058 392 1081 c 6,14,-1
 581 1476 l 6,15,16
 602 1520 602 1520 634 1520 c 4,17,18
 651 1520 651 1520 663 1515 c 6,19,-1
 792 1463 l 6,0,1
EndSplineSet
Validated: 19457
EndChar

StartChar: second
Encoding: 8243 8243 98
Width: 1200
GlyphClass: 2
Flags: W
HStem: 964 556
LayerCount: 2
Fore
SplineSet
992 1463 m 2,0,1
 1027 1449 1027 1449 1022 1423 c 0,2,3
 1019 1406 1019 1406 1005 1383 c 2,4,-1
 770 999 l 2,5,6
 749 964 749 964 720 964 c 0,7,8
 701 964 701 964 683 971 c 2,9,-1
 606 1001 l 2,10,11
 573 1014 573 1014 579 1043 c 0,12,13
 582 1058 582 1058 592 1081 c 2,14,-1
 781 1476 l 2,15,16
 802 1520 802 1520 834 1520 c 0,17,18
 851 1520 851 1520 863 1515 c 2,19,-1
 992 1463 l 2,0,1
592 1463 m 2,20,21
 627 1449 627 1449 622 1423 c 0,22,23
 619 1406 619 1406 605 1383 c 2,24,-1
 370 999 l 2,25,26
 349 964 349 964 320 964 c 0,27,28
 301 964 301 964 283 971 c 2,29,-1
 206 1001 l 2,30,31
 173 1014 173 1014 179 1043 c 0,32,33
 182 1058 182 1058 192 1081 c 2,34,-1
 381 1476 l 2,35,36
 402 1520 402 1520 434 1520 c 0,37,38
 451 1520 451 1520 463 1515 c 2,39,-1
 592 1463 l 2,20,21
EndSplineSet
Validated: 19457
EndChar

StartChar: guilsinglleft
Encoding: 8249 8249 99
Width: 1200
GlyphClass: 2
Flags: W
VStem: 287 626
DStem2: 539 765 295 706 0.467888 -0.883788<0 496.709> 312 805 539 765 0.66291 0.748699<120.533 691.344>
LayerCount: 2
Fore
SplineSet
287 753 m 0,0,1
 292 783 292 783 312 805 c 2,2,-1
 737 1285 l 2,3,4
 764 1316 764 1316 792 1316 c 0,5,6
 818 1316 818 1316 835 1299 c 2,7,-1
 892 1246 l 2,8,9
 918 1223 918 1223 913 1197 c 0,10,11
 909 1177 909 1177 885 1151 c 2,12,-1
 539 765 l 1,13,-1
 754 370 l 2,14,15
 769 344 769 344 765 322 c 0,16,17
 761 298 761 298 727 275 c 2,18,-1
 638 215 l 2,19,20
 613 197 613 197 587 197 c 0,21,22
 565 197 565 197 547 230 c 2,23,-1
 295 706 l 2,24,25
 283 729 283 729 287 753 c 0,0,1
EndSplineSet
Validated: 19457
EndChar

StartChar: guilsinglright
Encoding: 8250 8250 100
Width: 1200
GlyphClass: 2
Flags: W
VStem: 284 630
DStem2: 313 370 470 230 0.661622 0.749838<-54.5769 530.4> 652 1285 457 1151 0.470588 -0.882353<-19.254 465.882>
LayerCount: 2
Fore
SplineSet
914 753 m 0,0,1
 910 729 910 729 890 706 c 2,2,-1
 470 230 l 2,3,4
 440 197 440 197 418 197 c 0,5,6
 392 197 392 197 374 215 c 2,7,-1
 306 275 l 2,8,9
 280 298 280 298 284 322 c 0,10,11
 288 344 288 344 313 370 c 2,12,-1
 667 765 l 1,13,-1
 457 1151 l 2,14,15
 442 1177 442 1177 445 1197 c 0,16,17
 450 1223 450 1223 483 1246 c 2,18,-1
 559 1299 l 2,19,20
 582 1316 582 1316 608 1316 c 0,21,22
 636 1316 636 1316 652 1285 c 2,23,-1
 908 805 l 2,24,25
 919 783 919 783 914 753 c 0,0,1
EndSplineSet
Validated: 19457
EndChar

StartChar: fraction
Encoding: 8260 8260 101
Width: 1200
GlyphClass: 2
Flags: W
HStem: -20 21G<155 180> 1500 20G<1022 1046>
DStem2: 36 146 226 20 0.576157 0.817339<-59.4665 1690.31>
LayerCount: 2
Fore
SplineSet
1038 1520 m 0,0,1
 1054 1520 1054 1520 1076 1506 c 2,2,-1
 1164 1449 l 2,3,4
 1190 1432 1190 1432 1190 1401 c 0,5,6
 1190 1388 1190 1388 1172 1362 c 2,7,-1
 226 20 l 2,8,9
 198 -20 198 -20 162 -20 c 0,10,11
 148 -20 148 -20 126 -6 c 2,12,-1
 34 53 l 2,13,14
 10 68 10 68 10 91 c 0,15,16
 10 109 10 109 36 146 c 2,17,-1
 979 1482 l 2,18,19
 1006 1520 1006 1520 1038 1520 c 0,0,1
EndSplineSet
Validated: 19457
EndChar

StartChar: Euro
Encoding: 8364 8364 102
Width: 1200
GlyphClass: 2
Flags: W
HStem: -20 250<493.424 728.63> 519 180<20.6052 128.891 398 787.512> 811 180<72.6052 143 477 839.512> 1117 21G<992 1016.5> 1270 250<653.867 907.57>
VStem: 133 273<699.782 811>
LayerCount: 2
Fore
SplineSet
580 -20 m 0,0,1
 320 -20 320 -20 206 214 c 0,2,3
 137 354 137 354 125 519 c 1,4,-1
 42 519 l 2,5,6
 3 519 3 519 3 552 c 0,7,8
 3 558 3 558 4 564 c 2,9,-1
 20 654 l 2,10,11
 28 699 28 699 74 699 c 2,12,-1
 127 699 l 1,13,14
 129 724 129 724 133 749 c 0,15,16
 137 781 137 781 143 811 c 1,17,-1
 94 811 l 2,18,19
 55 811 55 811 55 844 c 0,20,21
 55 850 55 850 56 856 c 2,22,-1
 72 946 l 2,23,24
 80 991 80 991 126 991 c 2,25,-1
 187 991 l 1,26,27
 240 1151 240 1151 330 1265 c 0,28,29
 531 1520 531 1520 812 1520 c 0,30,31
 1041 1520 1041 1520 1187 1286 c 0,32,33
 1197 1270 1197 1270 1197 1248 c 0,34,35
 1197 1215 1197 1215 1150 1188 c 2,36,-1
 1052 1132 l 2,37,38
 1026 1117 1026 1117 1007 1117 c 0,39,40
 977 1117 977 1117 960 1152 c 0,41,42
 903 1270 903 1270 790 1270 c 0,43,44
 664 1270 664 1270 561 1135 c 0,45,46
 512 1071 512 1071 477 991 c 1,47,-1
 820 991 l 2,48,49
 857 991 857 991 857 959 c 0,50,51
 857 952 857 952 856 946 c 2,52,-1
 840 856 l 2,53,54
 832 811 832 811 788 811 c 2,55,-1
 418 811 l 1,56,57
 411 782 411 782 406 751 c 0,58,59
 401 724 401 724 398 699 c 1,60,-1
 768 699 l 2,61,62
 805 699 805 699 805 667 c 0,63,64
 805 660 805 660 804 654 c 2,65,-1
 788 564 l 2,66,67
 780 519 780 519 736 519 c 2,68,-1
 389 519 l 1,69,70
 395 429 395 429 425 365 c 0,71,72
 489 230 489 230 610 230 c 0,73,74
 717 230 717 230 851 392 c 0,75,76
 880 427 880 427 911 427 c 0,77,78
 931 427 931 427 951 412 c 2,79,-1
 1057 334 l 2,80,81
 1086 313 1086 313 1086 287 c 0,82,83
 1086 272 1086 272 1060 236 c 0,84,85
 877 -20 877 -20 580 -20 c 0,0,1
EndSplineSet
Validated: 19457
EndChar

StartChar: afii61248
Encoding: 8453 8453 103
Width: 1200
GlyphClass: 2
Flags: W
HStem: -10 165<730.916 878.873> 615 165<793.108 946.069> 730 165<284.952 435.48> 1355 165<348.038 499.569>
VStem: 86 173<915.67 1243.17> 533 172<175.422 504.227> 970 175<268.276 597.878>
DStem2: 26 85 1176 1415 0.590319 0.80717<-38.1462 1787.73>
LayerCount: 2
Fore
SplineSet
333 730 m 0,0,1
 191 730 191 730 129 853 c 0,2,3
 86 939 86 939 86 1055 c 0,4,5
 86 1089 86 1089 90 1125 c 0,6,7
 106 1290 106 1290 207 1398 c 0,8,9
 321 1520 321 1520 452 1520 c 128,-1,10
 583 1520 583 1520 646 1405 c 0,11,12
 652 1394 652 1394 652 1380 c 0,13,14
 652 1348 652 1348 616 1328 c 2,15,-1
 570 1302 l 2,16,17
 551 1291 551 1291 536 1291 c 0,18,19
 509 1291 509 1291 496 1318 c 0,20,21
 479 1355 479 1355 433 1355 c 0,22,23
 382 1355 382 1355 338 1299 c 0,24,25
 285 1233 285 1233 266 1122 c 0,26,27
 259 1079 259 1079 259 1044 c 0,28,29
 259 988 259 988 277 951 c 0,30,31
 305 895 305 895 352 895 c 0,32,33
 395 895 395 895 428 932 c 0,34,35
 452 959 452 959 477 959 c 0,36,37
 491 959 491 959 507 948 c 2,38,-1
 553 916 l 2,39,40
 573 902 573 902 573 881.5 c 128,-1,41
 573 861 573 861 555 839 c 0,42,43
 462 730 462 730 333 730 c 0,0,1
797 155 m 0,44,45
 844 156 844 156 894 216 c 0,46,47
 942 276 942 276 962 385 c 0,48,49
 970 429 970 429 970 466 c 0,50,51
 970 521 970 521 953 559 c 0,52,53
 929 615 929 615 878 615 c 128,-1,54
 827 615 827 615 783 559 c 0,55,56
 732 494 732 494 713 386 c 0,57,58
 705 342 705 342 705 306 c 0,59,60
 705 253 705 253 722 216 c 0,61,62
 750 155 750 155 797 155 c 0,44,45
778 -10 m 128,-1,64
 636 -10 636 -10 575 113 c 0,65,66
 533 198 533 198 533 317 c 0,67,68
 533 350 533 350 536 385 c 0,69,70
 551 556 551 556 650 663 c 0,71,72
 758 780 758 780 898 780 c 0,73,74
 1028 780 1028 780 1100 658 c 0,75,76
 1145 581 1145 581 1145 467 c 0,77,78
 1145 428 1145 428 1140 385 c 0,79,80
 1121 227 1121 227 1025 113 c 0,81,63
 920 -10 920 -10 778 -10 c 128,-1,64
102 -20 m 0,82,83
 89 -20 89 -20 75 -11 c 2,84,-1
 31 17 l 2,85,86
 10 31 10 31 10 49 c 0,87,88
 10 63 10 63 26 85 c 2,89,-1
 1055 1492 l 2,90,91
 1075 1520 1075 1520 1098 1520 c 0,92,93
 1113 1520 1113 1520 1127 1511 c 2,94,-1
 1170 1483 l 2,95,96
 1190 1470 1190 1470 1190 1449 c 0,97,98
 1190 1434 1190 1434 1176 1415 c 2,99,-1
 147 8 l 2,100,101
 127 -20 127 -20 102 -20 c 0,82,83
EndSplineSet
Validated: 19457
EndChar

StartChar: afii61289
Encoding: 8467 8467 104
Width: 1200
GlyphClass: 2
Flags: W
HStem: -20 221<522 684.635> 0 21G<36 369.517> 1500 20G<964 1089.5>
LayerCount: 2
Fore
SplineSet
36 0 m 1,0,1
 203 162 203 162 330 325 c 1,2,3
 333 388 333 388 346 459 c 0,4,5
 371 600 371 600 425 739 c 0,6,7
 614 1222 614 1222 810 1417 c 0,8,9
 913 1520 913 1520 1015 1520 c 16,10,11
 1164 1520 1164 1520 1164 1358 c 0,12,13
 1164 1320 1164 1320 1156 1273 c 0,14,15
 1140 1183 1140 1183 1083 1035 c 0,16,17
 958 710 958 710 599 286 c 1,18,19
 604 201 604 201 634 201 c 0,20,21
 659 201 659 201 720 296 c 1,22,-1
 1002 296 l 1,23,24
 892 141 892 141 767 47 c 0,25,26
 678 -20 678 -20 577 -20 c 0,27,28
 467 -20 467 -20 399 58 c 1,29,-1
 354 0 l 1,30,-1
 36 0 l 1,0,1
EndSplineSet
Validated: 19457
EndChar

StartChar: trademark
Encoding: 8482 8482 105
Width: 1200
VWidth: 1399
GlyphClass: 2
Flags: W
HStem: 1345 165<38.9219 210 386 587.841>
DStem2: 100.302 720 276.302 720 0.173648 0.984808<29.6462 634.554> 481.775 720 651.775 720 0.173648 0.984808<54.4825 497.621> 875.775 720 1045.78 720 0.173648 0.984808<67.775 478.296>
LayerCount: 2
Fore
SplineSet
674 1510 m 2,0,-1
 806 1510 l 2,1,2
 831 1510 831 1510 844 1492 c 0,3,4
 852 1481 852 1481 853 1458 c 2,5,-1
 859 1260 l 1,6,-1
 935 1458 l 2,7,8
 944 1482 944 1482 956 1492 c 0,9,10
 975 1510 975 1510 1000 1510 c 2,11,-1
 1133 1510 l 2,12,13
 1178 1510 1178 1510 1178 1475 c 0,14,15
 1178 1467 1178 1467 1176 1456 c 2,16,-1
 1059 795 l 2,17,18
 1055 773 1055 773 1042 759 c 0,19,20
 1024 740 1024 740 996 740 c 2,21,-1
 934 740 l 2,22,23
 886 740 886 740 886 773 c 0,24,25
 886 778 886 778 889 795 c 2,26,-1
 959 1191 l 1,27,-1
 896 1024 l 2,28,29
 889 1006 889 1006 875 992 c 0,30,31
 856 974 856 974 832 974 c 2,32,-1
 786 974 l 2,33,34
 758 974 758 974 747 990 c 0,35,36
 737 1003 737 1003 737 1023 c 2,37,-1
 733 1181 l 1,38,-1
 665 795 l 2,39,40
 660 766 660 766 639 752 c 0,41,42
 622 740 622 740 600 740 c 2,43,-1
 538 740 l 2,44,45
 493 740 493 740 493 773 c 0,46,47
 493 784 493 784 495 795 c 2,48,-1
 612 1456 l 2,49,50
 616 1477 616 1477 629 1491 c 0,51,52
 647 1510 647 1510 674 1510 c 2,0,-1
155 720 m 2,53,54
 106 720 106 720 106 749 c 0,55,56
 106 752 106 752 110 775 c 2,57,-1
 210 1345 l 1,58,-1
 70 1345 l 2,59,60
 22 1345 22 1345 22 1371 c 0,61,62
 22 1378 22 1378 24 1389 c 2,63,-1
 36 1455 l 2,64,65
 40 1477 40 1477 53 1491 c 0,66,67
 71 1510 71 1510 98 1510 c 2,68,-1
 557 1510 l 2,69,70
 601 1510 601 1510 601 1468 c 0,71,72
 601 1460 601 1460 600 1455 c 2,73,-1
 588 1389 l 2,74,75
 584 1364 584 1364 560 1352 c 0,76,77
 546 1345 546 1345 526 1345 c 2,78,-1
 386 1345 l 1,79,-1
 286 775 l 2,80,81
 281 748 281 748 259 732 c 0,82,83
 242 720 242 720 221 720 c 2,84,-1
 155 720 l 2,53,54
EndSplineSet
Validated: 19457
EndChar

StartChar: uni2126
Encoding: 8486 8486 106
Width: 1200
GlyphClass: 2
Flags: W
HStem: 0 250<32.6631 189 881 993.337> 1270 250<580.676 832.903>
VStem: 3 472<17.627 229.117> 49 266<388.76 864.492> 930 267<654.699 1155.22>
LayerCount: 2
Fore
SplineSet
1180 756 m 0,0,1
 1107 422 1107 422 881 250 c 1,2,-1
 963 250 l 2,3,4
 1023 250 1023 250 1023 200 c 0,5,6
 1023 191 1023 191 1021 181 c 2,7,-1
 1001 69 l 2,8,9
 989 0 989 0 919 0 c 2,10,-1
 607 0 l 2,11,12
 547 0 547 0 547 50 c 0,13,14
 547 59 547 59 549 69 c 2,15,-1
 565 160 l 2,16,17
 575 217 575 217 631 250 c 0,18,19
 697 289 697 289 758 365 c 0,20,21
 868 500 868 500 913 751 c 0,22,23
 930 846 930 846 930 928 c 0,24,25
 930 1047 930 1047 894 1135 c 0,26,27
 839 1270 839 1270 715 1270 c 152,-1,28
 591 1270 591 1270 488 1135 c 0,29,30
 375 986 375 986 333 751 c 0,31,32
 315 648 315 648 315 565 c 0,33,34
 315 446 315 446 352 365 c 0,35,36
 387 289 387 289 439 250 c 0,37,38
 475 224 475 224 475 181 c 0,39,40
 475 171 475 171 473 160 c 2,41,-1
 457 69 l 2,42,43
 445 0 445 0 375 0 c 2,44,-1
 63 0 l 2,45,46
 3 0 3 0 3 50 c 0,47,48
 3 59 3 59 5 69 c 2,49,-1
 25 181 l 2,50,51
 37 250 37 250 107 250 c 2,52,-1
 189 250 l 1,53,54
 49 399 49 399 49 593 c 0,55,56
 49 669 49 669 60 749 c 0,57,58
 105 1073 105 1073 257 1265 c 0,59,60
 458 1520 458 1520 739 1520 c 0,61,62
 982 1520 982 1520 1114 1286 c 0,63,64
 1197 1140 1197 1140 1197 920 c 0,65,66
 1197 834 1197 834 1180 756 c 0,0,1
EndSplineSet
Validated: 19457
EndChar

StartChar: estimated
Encoding: 8494 8494 107
Width: 1200
GlyphClass: 2
Flags: W
HStem: -20 175<366.452 707.804> 484 170<351 896> 954 174<486.884 847.17>
LayerCount: 2
Fore
SplineSet
1122 359 m 1,0,1
 992 172 992 172 826 67 c 0,2,3
 688 -20 688 -20 504 -20 c 0,4,5
 346 -20 346 -20 215 56 c 0,6,7
 82 133 82 133 25 271 c 0,8,9
 -5 345 -5 345 -5 437 c 0,10,11
 -5 493 -5 493 6 556 c 0,12,13
 34 717 34 717 141 848 c 0,14,15
 237 965 237 965 393 1054 c 0,16,17
 520 1128 520 1128 708 1128 c 0,18,19
 871 1128 871 1128 994 1054 c 0,20,21
 1129 973 1129 973 1178 833 c 0,22,23
 1206 755 1206 755 1206 665 c 0,24,25
 1206 609 1206 609 1195 548 c 2,26,-1
 1183 484 l 1,27,-1
 321 484 l 1,28,-1
 283 266 l 1,29,30
 313 231 313 231 356 205 c 0,31,32
 440 155 440 155 536 155 c 0,33,34
 642 155 642 155 736 215 c 0,35,36
 809 262 809 262 876 359 c 1,37,-1
 1122 359 l 1,0,1
351 654 m 1,38,-1
 896 654 l 1,39,-1
 930 844 l 1,40,41
 899 881 899 881 855 905 c 0,42,43
 768 954 768 954 677 954 c 0,44,45
 580 954 580 954 480 906 c 0,46,47
 428 881 428 881 385 845 c 1,48,-1
 351 654 l 1,38,-1
EndSplineSet
Validated: 19457
EndChar

StartChar: partialdiff
Encoding: 8706 8706 108
Width: 1200
GlyphClass: 2
Flags: W
HStem: -20 243<300.912 538.998> 825 230<533.385 789.326> 1112 21G<412.554 500.5> 1235 242<549.907 874.442>
VStem: 3 282<262.756 524.944> 919 278<981.859 1192.4>
LayerCount: 2
Fore
SplineSet
460 1399 m 1,0,1
 626 1477 626 1477 802 1477 c 0,2,3
 1040 1477 1040 1477 1133 1334 c 0,4,5
 1197 1238 1197 1238 1197 1086 c 0,6,7
 1197 1011 1197 1011 1181 922 c 0,8,9
 1114 544 1114 544 890 267 c 0,10,11
 776 125 776 125 638.5 52.5 c 128,-1,12
 501 -20 501 -20 347 -20 c 0,13,14
 148 -20 148 -20 63 90 c 0,15,16
 3 167 3 167 3 290 c 0,17,18
 3 342 3 342 14 402 c 0,19,20
 59 655 59 655 239 852 c 0,21,22
 427 1055 427 1055 694 1055 c 0,23,24
 831 1055 831 1055 915 981 c 1,25,26
 919 1019 919 1019 919 1050 c 0,27,28
 919 1120 919 1120 900 1157 c 0,29,30
 880 1197 880 1197 840.5 1216 c 128,-1,31
 801 1235 801 1235 734 1235 c 0,32,33
 592 1235 592 1235 409 1112 c 1,34,-1
 460 1399 l 1,0,1
636 348 m 0,35,36
 760 479 760 479 833 688 c 1,37,38
 825 749 825 749 783 786 c 0,39,40
 739 825 739 825 679 825 c 0,41,42
 544 825 544 825 436 696 c 0,43,44
 319 557 319 557 292 401 c 0,45,46
 285 362 285 362 285 333 c 0,47,48
 286 286 286 286 302 262 c 0,49,50
 327 223 327 223 402 223 c 0,51,52
 518 223 518 223 636 348 c 0,35,36
EndSplineSet
Validated: 19457
EndChar

StartChar: uni2206
Encoding: 8710 8710 109
Width: 1200
GlyphClass: 2
Flags: W
HStem: 0 250<388 907> 1480 20G<716 1002>
DStem2: 21 67 388 250 0.420686 0.907206<320.41 1413.27>
LayerCount: 2
Fore
SplineSet
56 0 m 2,0,1
 8 0 8 0 8 28 c 0,2,3
 8 39 8 39 21 67 c 2,4,-1
 660 1445 l 2,5,6
 686 1500 686 1500 746 1500 c 2,7,-1
 972 1500 l 2,8,9
 1032 1500 1032 1500 1038 1445 c 2,10,-1
 1191 67 l 2,11,12
 1192 58 1192 58 1192 43 c 0,13,14
 1192 0 1192 0 1132 0 c 2,15,-1
 56 0 l 2,0,1
907 250 m 1,16,-1
 825 1252 l 1,17,-1
 388 250 l 1,18,-1
 907 250 l 1,16,-1
EndSplineSet
Validated: 19457
EndChar

StartChar: product
Encoding: 8719 8719 110
Width: 1200
GlyphClass: 2
Flags: W
HStem: -400 21G<27.5 222.5 647.5 842.5> 1250 250<548 898>
DStem2: -12.1666 -400 257.833 -400 0.173648 0.984808<51.2831 1722.2> 607.833 -400 877.833 -400 0.173648 0.984808<51.2831 1675.32>
LayerCount: 2
Fore
SplineSet
57 -400 m 2,0,1
 -2 -400 -2 -400 -2 -350 c 0,2,3
 -2 -341 -2 -341 0 -331 c 2,4,-1
 310 1431 l 2,5,6
 322 1500 322 1500 393 1500 c 2,7,-1
 1143 1500 l 2,8,9
 1202 1500 1202 1500 1202 1450 c 0,10,11
 1202 1441 1202 1441 1200 1431 c 2,12,-1
 890 -331 l 2,13,14
 878 -400 878 -400 807 -400 c 2,15,-1
 677 -400 l 2,16,17
 618 -400 618 -400 618 -350 c 0,18,19
 618 -341 618 -341 620 -331 c 2,20,-1
 898 1250 l 1,21,-1
 548 1250 l 1,22,-1
 270 -331 l 2,23,24
 258 -400 258 -400 187 -400 c 2,25,-1
 57 -400 l 2,0,1
EndSplineSet
Validated: 19457
EndChar

StartChar: summation
Encoding: 8721 8721 111
Width: 1160
GlyphClass: 2
Flags: W
HStem: -400 250<408 863.519> 1250 250<636 1129.52>
DStem2: -3 -345 408 -150 0.528654 0.848837<382.8 1136.85> 636 1250 291 1446 0.348386 -0.937351<0 577.293>
LayerCount: 2
Fore
SplineSet
21 -400 m 2,0,1
 -16 -400 -16 -400 -16 -376 c 0,2,3
 -16 -366 -16 -366 -3 -345 c 2,4,-1
 598 620 l 1,5,-1
 291 1446 l 2,6,7
 287 1456 287 1456 287 1465 c 0,8,9
 288 1500 288 1500 332 1500 c 2,10,-1
 1108 1500 l 2,11,12
 1160 1500 1160 1500 1160 1457 c 0,13,14
 1160 1449 1160 1449 1158 1441 c 2,15,-1
 1134 1309 l 2,16,17
 1123 1250 1123 1250 1064 1250 c 2,18,-1
 636 1250 l 1,19,-1
 868 651 l 2,20,21
 878 625 878 625 878 604 c 0,22,23
 878 580 878 580 851 538 c 2,24,-1
 408 -150 l 1,25,-1
 842 -150 l 2,26,27
 894 -150 894 -150 894 -193 c 0,28,29
 894 -201 894 -201 892 -209 c 2,30,-1
 868 -341 l 2,31,32
 857 -400 857 -400 798 -400 c 2,33,-1
 21 -400 l 2,0,1
EndSplineSet
Validated: 19457
EndChar

StartChar: minus
Encoding: 8722 8722 112
Width: 1200
GlyphClass: 2
Flags: W
HStem: 635 240<155.268 1044.73>
LayerCount: 2
Fore
SplineSet
230 875 m 2,0,-1
 1012 875 l 2,1,2
 1072 875 1072 875 1072 824 c 0,3,4
 1072 815 1072 815 1070 805 c 2,5,-1
 1052 705 l 2,6,7
 1040 635 1040 635 970 635 c 2,8,-1
 188 635 l 2,9,10
 128 635 128 635 128 686 c 0,11,12
 128 695 128 695 130 705 c 2,13,-1
 148 805 l 2,14,15
 160 875 160 875 230 875 c 2,0,-1
EndSplineSet
Validated: 19457
EndChar

StartChar: uni2215
Encoding: 8725 8725 113
Width: 1200
GlyphClass: 2
Flags: W
HStem: -20 21G<155 180> 1500 20G<1022 1046>
DStem2: 36 146 226 20 0.576157 0.817339<-59.4665 1690.31>
LayerCount: 2
Fore
SplineSet
1038 1520 m 0,0,1
 1054 1520 1054 1520 1076 1506 c 2,2,-1
 1164 1449 l 2,3,4
 1190 1432 1190 1432 1190 1401 c 0,5,6
 1190 1388 1190 1388 1172 1362 c 2,7,-1
 226 20 l 2,8,9
 198 -20 198 -20 162 -20 c 0,10,11
 148 -20 148 -20 126 -6 c 2,12,-1
 34 53 l 2,13,14
 10 68 10 68 10 91 c 0,15,16
 10 109 10 109 36 146 c 2,17,-1
 979 1482 l 2,18,19
 1006 1520 1006 1520 1038 1520 c 0,0,1
EndSplineSet
Validated: 19457
EndChar

StartChar: uni2219
Encoding: 8729 8729 114
Width: 1200
GlyphClass: 2
Flags: W
HStem: 571 354<481.699 719.766>
VStem: 421 358<630.612 864.708>
LayerCount: 2
Fore
SplineSet
600 571 m 0,0,1
 526 571 526 571 475 620 c 0,2,3
 421 672 421 672 421 748 c 128,-1,4
 421 824 421 824 475 875 c 0,5,6
 528 925 528 925 600 925 c 0,7,8
 677 925 677 925 726 875 c 0,9,10
 779 821 779 821 779 748 c 0,11,12
 779 671 779 671 727 621 c 128,-1,13
 675 571 675 571 600 571 c 0,0,1
EndSplineSet
Validated: 19457
EndChar

StartChar: radical
Encoding: 8730 8730 115
Width: 1200
GlyphClass: 2
Flags: W
HStem: 0 21G<199.5 427.5> 1250 250<971 1170.34>
VStem: 0 369<530.989 758.906>
LayerCount: 2
Fore
SplineSet
230 0 m 2,0,1
 169 0 169 0 164 57 c 2,2,-1
 126 530 l 1,3,-1
 60 530 l 2,4,5
 0 530 0 530 0 580 c 0,6,7
 0 589 0 589 2 599 c 2,8,-1
 22 711 l 2,9,10
 34 780 34 780 104 780 c 2,11,-1
 306 780 l 2,12,13
 369 780 369 780 369 726 c 2,14,-1
 366 296 l 1,15,-1
 796 1446 l 2,16,17
 816 1500 816 1500 880 1500 c 2,18,-1
 1140 1500 l 2,19,20
 1200 1500 1200 1500 1200 1450 c 0,21,22
 1200 1441 1200 1441 1198 1431 c 2,23,-1
 1178 1319 l 2,24,25
 1166 1250 1166 1250 1096 1250 c 2,26,-1
 971 1250 l 1,27,-1
 482 57 l 2,28,29
 459 0 459 0 396 0 c 2,30,-1
 230 0 l 2,0,1
EndSplineSet
Validated: 19457
EndChar

StartChar: infinity
Encoding: 8734 8734 116
Width: 1200
GlyphClass: 2
Flags: W
HStem: 420 206<234.379 428.644 743.019 945.518> 881 204<258.424 454.589 774.068 964.872>
VStem: 5 208<664.97 836.378> 475 249<671.094 831.721> 986 209<665.962 847.595>
LayerCount: 2
Fore
SplineSet
235 664 m 0,0,1
 263 626 263 626 320 626 c 0,2,3
 379 626 379 626 421 662 c 0,4,5
 462 697 462 697 472 754 c 0,6,7
 475 768 475 768 475 781 c 0,8,9
 475 817 475 817 454 843 c 0,10,11
 422 881 422 881 368 881 c 0,12,13
 311 881 311 881 269 847 c 0,14,15
 226 812 226 812 215 755 c 0,16,17
 213 743 213 743 213 731 c 0,18,19
 213 695 213 695 235 664 c 0,0,1
746 659 m 0,20,21
 774 621 774 621 831 621 c 0,22,23
 890 621 890 621 932 657 c 0,24,25
 973 692 973 692 983 749 c 0,26,27
 986 763 986 763 986 776 c 0,28,29
 986 812 986 812 965 838 c 0,30,31
 933 876 933 876 879 876 c 0,32,33
 822 876 822 876 780 842 c 0,34,35
 737 807 737 807 726 750 c 0,36,37
 724 738 724 738 724 726 c 0,38,39
 724 690 724 690 746 659 c 0,20,21
7 759 m 0,40,41
 23 896 23 896 130 988 c 0,42,43
 244 1085 244 1085 387 1085 c 0,44,45
 524 1085 524 1085 610 988 c 0,46,47
 618 979 618 979 625 969 c 1,48,49
 633 976 633 976 641 983 c 0,50,51
 755 1080 755 1080 899 1080 c 0,52,53
 1040 1080 1040 1080 1121 983 c 0,54,55
 1195 894 1195 894 1195 786 c 0,56,57
 1195 767 1195 767 1193 748 c 0,58,59
 1176 601 1176 601 1068 512 c 0,60,61
 950 415 950 415 811 415 c 0,62,63
 667 415 667 415 589 515 c 0,64,65
 582 524 582 524 576 533 c 1,66,67
 567 525 567 525 557 517 c 0,68,69
 443 420 443 420 300 420 c 0,70,71
 158 420 158 420 78 520 c 0,72,73
 5 611 5 611 5 719 c 0,74,75
 5 739 5 739 7 759 c 0,40,41
EndSplineSet
Validated: 19457
EndChar

StartChar: approxequal
Encoding: 8776 8776 117
Width: 1200
GlyphClass: 2
Flags: W
HStem: 270 248<666.172 763.344> 484 248<346.877 442.612> 780 248<756.172 853.344> 994 248<436.877 532.612>
VStem: 784 270<528.047 700.09> 874 270<1038.05 1210.09>
LayerCount: 2
Fore
SplineSet
878 711 m 2,0,-1
 986 711 l 2,1,2
 1054 711 1054 711 1054 654 c 0,3,4
 1054 644 1054 644 1052 632 c 0,5,6
 988 270 988 270 722 270 c 0,7,8
 554 270 554 270 456 421 c 0,9,10
 428 464 428 464 420 473 c 0,11,12
 411 484 411 484 399 484 c 0,13,14
 346 484 346 484 326 370 c 16,15,16
 312 291 312 291 232 291 c 2,17,-1
 124 291 l 2,18,19
 56 291 56 291 56 348 c 0,20,21
 56 358 56 358 58 370 c 0,22,23
 122 732 122 732 398 732 c 0,24,25
 556 732 556 732 654 581 c 0,26,27
 682 538 682 538 690 529 c 0,28,29
 699 518 699 518 711 518 c 0,30,31
 764 518 764 518 784 632 c 16,32,33
 798 711 798 711 878 711 c 2,0,-1
968 1221 m 2,34,-1
 1076 1221 l 2,35,36
 1144 1221 1144 1221 1144 1164 c 0,37,38
 1144 1154 1144 1154 1142 1142 c 0,39,40
 1078 780 1078 780 812 780 c 0,41,42
 644 780 644 780 546 931 c 0,43,44
 518 974 518 974 510 983 c 0,45,46
 501 994 501 994 489 994 c 0,47,48
 436 994 436 994 416 880 c 16,49,50
 402 801 402 801 322 801 c 2,51,-1
 214 801 l 2,52,53
 146 801 146 801 146 858 c 0,54,55
 146 868 146 868 148 880 c 0,56,57
 212 1242 212 1242 488 1242 c 0,58,59
 646 1242 646 1242 744 1091 c 0,60,61
 772 1048 772 1048 780 1039 c 0,62,63
 789 1028 789 1028 801 1028 c 0,64,65
 854 1028 854 1028 874 1142 c 16,66,67
 888 1221 888 1221 968 1221 c 2,34,-1
EndSplineSet
Validated: 19457
EndChar

StartChar: notequal
Encoding: 8800 8800 118
Width: 1200
GlyphClass: 2
Flags: W
HStem: 400 240<114.182 258 408 438 590 1003.82> 870 240<197.268 612 762 794 944 1086.73>
VStem: 88 942<417.979 622.021>
DStem2: 96 186 198 121 0.602439 0.798165<-24.5332 268.402 659.972 856.803 1248.37 1540.14>
LayerCount: 2
Fore
SplineSet
1004 1389 m 2,0,1
 1018 1408 1018 1408 1034 1408 c 0,2,3
 1044 1408 1044 1408 1054 1402 c 2,4,-1
 1100 1372 l 2,5,6
 1114 1363 1114 1363 1114 1349 c 0,7,8
 1114 1337 1114 1337 1104 1324 c 2,9,-1
 944 1110 l 1,10,-1
 1054 1110 l 2,11,12
 1114 1110 1114 1110 1114 1059 c 0,13,14
 1114 1050 1114 1050 1112 1040 c 2,15,-1
 1094 940 l 2,16,17
 1082 870 1082 870 1012 870 c 2,18,-1
 762 870 l 1,19,-1
 590 640 l 1,20,-1
 972 640 l 2,21,22
 1030 640 1030 640 1030 589 c 0,23,24
 1030 580 1030 580 1028 570 c 2,25,-1
 1012 470 l 2,26,27
 1000 400 1000 400 928 400 c 2,28,-1
 408 400 l 1,29,-1
 198 121 l 2,30,31
 184 102 184 102 166 102 c 0,32,33
 156 102 156 102 148 108 c 2,34,-1
 100 138 l 2,35,36
 86 147 86 147 86 160 c 0,37,38
 86 171 86 171 96 186 c 2,39,-1
 258 400 l 1,40,-1
 146 400 l 2,41,42
 88 400 88 400 88 451 c 0,43,44
 88 460 88 460 90 470 c 2,45,-1
 106 570 l 2,46,47
 118 640 118 640 190 640 c 2,48,-1
 438 640 l 1,49,-1
 612 870 l 1,50,-1
 230 870 l 2,51,52
 170 870 170 870 170 921 c 0,53,54
 170 930 170 930 172 940 c 2,55,-1
 190 1040 l 2,56,57
 202 1110 202 1110 272 1110 c 2,58,-1
 794 1110 l 1,59,-1
 1004 1389 l 2,0,1
EndSplineSet
Validated: 19457
EndChar

StartChar: lessequal
Encoding: 8804 8804 119
Width: 1200
GlyphClass: 2
Flags: W
HStem: 97 240<65.8965 986.314>
DStem2: 476 883 204 777 0.857021 -0.515281<0 613.287> 248 1018 476 883 0.895348 0.445367<144.015 915.351>
LayerCount: 2
Fore
SplineSet
248 1018 m 2,0,-1
 1024 1404 l 2,1,2
 1052 1418 1052 1418 1072 1418 c 0,3,4
 1102 1418 1102 1418 1114 1387 c 2,5,-1
 1156 1280 l 2,6,7
 1162 1264 1162 1264 1162 1247 c 0,8,9
 1162 1212 1162 1212 1120 1192 c 2,10,-1
 476 883 l 1,11,-1
 998 579 l 2,12,13
 1024 564 1024 564 1024 539 c 0,14,15
 1024 516 1024 516 1004 491 c 2,16,-1
 942 408 l 2,17,18
 918 377 918 377 888 377 c 0,19,20
 868 377 868 377 846 391 c 2,21,-1
 204 777 l 2,22,23
 166 800 166 800 166 840 c 0,24,25
 166 848 166 848 168 857 c 2,26,-1
 184 938 l 2,27,28
 194 991 194 991 248 1018 c 2,0,-1
134 337 m 2,29,-1
 958 337 l 2,30,31
 1014 337 1014 337 1014 290 c 0,32,33
 1014 282 1014 282 1012 272 c 2,34,-1
 992 162 l 2,35,36
 980 97 980 97 916 97 c 2,37,-1
 92 97 l 2,38,39
 38 97 38 97 38 144 c 0,40,41
 38 152 38 152 40 162 c 2,42,-1
 60 272 l 2,43,44
 70 337 70 337 134 337 c 2,29,-1
EndSplineSet
Validated: 19457
EndChar

StartChar: greaterequal
Encoding: 8805 8805 120
Width: 1200
GlyphClass: 2
Flags: W
HStem: 97 240<101.896 1022.31>
DStem2: 1088 1009 294 1207 0.857021 -0.515281<-791.777 -178.49> 816 903 268 382 0.895348 0.445367<-771.336 0>
LayerCount: 2
Fore
SplineSet
1044 768 m 2,0,-1
 268 382 l 2,1,2
 240 368 240 368 220 368 c 0,3,4
 190 368 190 368 178 399 c 2,5,-1
 136 506 l 2,6,7
 130 522 130 522 130 539 c 0,8,9
 130 574 130 574 172 594 c 2,10,-1
 816 903 l 1,11,-1
 294 1207 l 2,12,13
 268 1222 268 1222 268 1247 c 0,14,15
 268 1270 268 1270 288 1295 c 2,16,-1
 350 1378 l 2,17,18
 374 1409 374 1409 404 1409 c 0,19,20
 424 1409 424 1409 446 1395 c 2,21,-1
 1088 1009 l 2,22,23
 1126 986 1126 986 1126 946 c 0,24,25
 1126 938 1126 938 1124 929 c 2,26,-1
 1108 848 l 2,27,28
 1098 795 1098 795 1044 768 c 2,0,-1
170 337 m 2,29,-1
 994 337 l 2,30,31
 1050 337 1050 337 1050 290 c 0,32,33
 1050 282 1050 282 1048 272 c 2,34,-1
 1028 162 l 2,35,36
 1016 97 1016 97 952 97 c 2,37,-1
 128 97 l 2,38,39
 74 97 74 97 74 144 c 0,40,41
 74 152 74 152 76 162 c 2,42,-1
 96 272 l 2,43,44
 106 337 106 337 170 337 c 2,29,-1
EndSplineSet
Validated: 19457
EndChar

StartChar: lozenge
Encoding: 9674 9674 121
Width: 1200
GlyphClass: 2
Flags: W
HStem: 0 21G<460.081 486.896> 1491 20G<719.648 745.351>
DStem2: 386 744 104 738 0.444298 -0.895879<0 366.72> 104 738 386 744 0.632965 0.77418<183.141 609.098> 548 415 470 0 0.645341 0.763894<0 421.625> 736 1511 659 1071 0.423529 -0.905882<365.976 735.4>
LayerCount: 2
Fore
SplineSet
659 1071 m 1,0,-1
 386 744 l 1,1,-1
 548 415 l 1,2,-1
 819 738 l 1,3,-1
 659 1071 l 1,0,-1
736 1511 m 1,4,-1
 1096 741 l 1,5,-1
 470 0 l 1,6,-1
 104 738 l 1,7,-1
 736 1511 l 1,4,-1
EndSplineSet
Validated: 19457
EndChar

StartChar: circumflex
Encoding: 710 710 122
Width: 1200
Flags: W
HStem: 1180 297<705.133 779.527>
VStem: 310 580<1180 1218>
DStem2: 336 1248 526 1230 0.664364 0.747409<5.93775 289.406>
LayerCount: 2
Fore
SplineSet
580 1477 m 2,0,-1
 714 1477 l 2,1,2
 756 1477 756 1477 782 1428 c 2,3,-1
 878 1248 l 2,4,5
 890 1226 890 1226 890 1210 c 0,6,7
 890 1180 890 1180 846 1180 c 2,8,-1
 784 1180 l 2,9,10
 726 1180 726 1180 702 1230 c 2,11,-1
 638 1367 l 1,12,-1
 526 1230 l 2,13,14
 486 1180 486 1180 428 1180 c 2,15,-1
 344 1180 l 2,16,17
 310 1180 310 1180 310 1206 c 0,18,19
 310 1218 310 1218 336 1248 c 2,20,-1
 496 1428 l 2,21,22
 540 1477 540 1477 580 1477 c 2,0,-1
EndSplineSet
Validated: 19457
EndChar

StartChar: caron
Encoding: 711 711 123
Width: 1200
Flags: W
HStem: 1180 297<420.473 494.867>
VStem: 310 580<1439 1477>
DStem2: 562 1290 704 1229 0.664364 0.747409<0.173572 289.746>
LayerCount: 2
Fore
SplineSet
354 1477 m 2,0,-1
 416 1477 l 2,1,2
 474 1477 474 1477 498 1427 c 2,3,-1
 562 1290 l 1,4,-1
 674 1427 l 2,5,6
 714 1477 714 1477 772 1477 c 2,7,-1
 856 1477 l 2,8,9
 890 1477 890 1477 890 1451 c 0,10,11
 890 1439 890 1439 864 1409 c 2,12,-1
 704 1229 l 2,13,14
 660 1180 660 1180 620 1180 c 2,15,-1
 486 1180 l 2,16,17
 444 1180 444 1180 418 1229 c 2,18,-1
 322 1409 l 2,19,20
 310 1431 310 1431 310 1447 c 0,21,22
 310 1477 310 1477 354 1477 c 2,0,-1
EndSplineSet
Validated: 19457
EndChar

StartChar: uni02C9
Encoding: 713 713 124
Width: 1200
Flags: W
HStem: 1230 161<316.344 883.357>
VStem: 302 596<1232.5 1388.5>
LayerCount: 2
Fore
SplineSet
364 1391 m 2,0,-1
 864 1391 l 2,1,2
 898 1391 898 1391 898 1362 c 0,3,4
 898 1357 898 1357 897 1351 c 2,5,-1
 883 1270 l 2,6,7
 876 1230 876 1230 835 1230 c 2,8,-1
 335 1230 l 2,9,10
 302 1230 302 1230 302 1258 c 0,11,12
 302 1264 302 1264 303 1270 c 2,13,-1
 317 1351 l 2,14,15
 324 1391 324 1391 364 1391 c 2,0,-1
EndSplineSet
Validated: 19457
EndChar

StartChar: breve
Encoding: 728 728 125
Width: 1200
Flags: W
HStem: 1180 169<464.725 703.708>
VStem: 306 154<1362.17 1468.38>
LayerCount: 2
Fore
SplineSet
360 1469 m 2,0,-1
 428 1469 l 2,1,2
 462 1469 462 1469 462 1440 c 0,3,4
 462 1435 462 1435 460 1429 c 0,5,6
 460 1421 460 1421 460 1414 c 0,7,8
 460 1349 460 1349 576 1349 c 0,9,10
 706 1349 706 1349 720 1429 c 0,11,12
 728 1469 728 1469 768 1469 c 2,13,-1
 860 1469 l 2,14,15
 894 1469 894 1469 894 1440 c 0,16,17
 894 1435 894 1435 892 1429 c 0,18,19
 848 1180 848 1180 558 1180 c 0,20,21
 306 1180 306 1180 306 1368 c 0,22,23
 306 1396 306 1396 312 1429 c 0,24,25
 320 1469 320 1469 360 1469 c 2,0,-1
EndSplineSet
Validated: 19457
EndChar

StartChar: dotaccent
Encoding: 729 729 126
Width: 1200
Flags: W
HStem: 1180 364<482.131 716.338>
VStem: 420 360<1244.3 1481.73>
LayerCount: 2
Fore
SplineSet
600 1544 m 0,0,1
 676 1544 676 1544 728 1491 c 128,-1,2
 780 1438 780 1438 780 1363 c 0,3,4
 780 1289 780 1289 727 1234 c 0,5,6
 675 1180 675 1180 600 1180 c 0,7,8
 523 1180 523 1180 471.5 1234 c 128,-1,9
 420 1288 420 1288 420 1362 c 0,10,11
 420 1438 420 1438 472 1490 c 0,12,13
 525 1544 525 1544 600 1544 c 0,0,1
EndSplineSet
Validated: 19457
EndChar

StartChar: ring
Encoding: 730 730 127
Width: 1200
Flags: W
HStem: 1160 112<524.121 669.527> 1448 112<534.4 679.472>
VStem: 402 111<1288.28 1426.59> 690 111<1292.31 1421.37>
LayerCount: 2
Fore
SplineSet
619 1448 m 0,0,1
 581 1448 581 1448 551 1422 c 128,-1,2
 521 1396 521 1396 515 1360 c 0,3,4
 513 1351 513 1351 513 1344 c 0,5,6
 513 1318 513 1318 529 1298 c 0,7,8
 550 1272 550 1272 586 1272 c 256,9,10
 624 1272 624 1272 655 1300 c 0,11,12
 682 1325 682 1325 689 1360 c 0,13,14
 690 1368 690 1368 690 1376 c 0,15,16
 689 1402 689 1402 675 1422 c 0,17,18
 655 1448 655 1448 619 1448 c 0,0,1
632 1560 m 0,19,20
 715 1560 715 1560 760 1502 c 0,21,22
 801 1450 801 1450 801 1383 c 0,23,24
 801 1372 801 1372 800 1361 c 0,25,26
 791 1272 791 1272 728 1219 c 0,27,28
 659 1160 659 1160 573 1160 c 256,29,30
 491 1160 491 1160 444 1219 c 0,31,32
 402 1271 402 1271 402 1343 c 0,33,34
 402 1352 402 1352 403 1362 c 0,35,36
 409 1446 409 1446 477 1503 c 0,37,38
 544 1560 544 1560 632 1560 c 0,19,20
EndSplineSet
Validated: 19457
EndChar

StartChar: ogonek
Encoding: 731 731 128
Width: 1200
Flags: W
HStem: -420 186<631.836 752.469> -20 20G<528.5 732>
VStem: 428 199<-287.5 -105.732>
LayerCount: 2
Fore
SplineSet
603 0 m 1,0,-1
 732 0 l 1,1,2
 642 -71 642 -71 629 -147 c 0,3,4
 627 -156 627 -156 627 -165 c 0,5,6
 627 -234 627 -234 740 -234 c 0,7,8
 772 -234 772 -234 772 -259 c 0,9,10
 772 -264 772 -264 771 -269 c 2,11,-1
 751 -385 l 2,12,13
 745 -420 745 -420 710 -420 c 0,14,15
 574 -419 574 -419 508 -380 c 0,16,17
 428 -333 428 -333 428 -242 c 0,18,19
 428 -222 428 -222 432 -199 c 0,20,21
 454 -76 454 -76 603 0 c 1,0,-1
EndSplineSet
Validated: 19457
EndChar

StartChar: tilde
Encoding: 732 732 129
Width: 1200
Flags: W
HStem: 1200 169<657.646 730.133> 1320 169<467.345 541.174>
VStem: 291 168<1200.04 1318.24> 741 168<1370.76 1488.91>
LayerCount: 2
Fore
SplineSet
789 1489 m 2,0,-1
 876 1489 l 2,1,2
 909 1489 909 1489 909 1461 c 0,3,4
 909 1455 909 1455 908 1449 c 8,5,6
 864 1200 864 1200 685 1200 c 0,7,8
 592 1200 592 1200 534 1288 c 0,9,10
 513 1320 513 1320 497 1320 c 0,11,12
 473 1320 473 1320 459 1240 c 0,13,14
 452 1200 452 1200 412 1200 c 2,15,-1
 325 1200 l 2,16,17
 291 1200 291 1200 291 1229 c 0,18,19
 291 1234 291 1234 292 1240 c 8,20,21
 336 1489 336 1489 516 1489 c 0,22,23
 607 1489 607 1489 666 1401 c 0,24,25
 687 1369 687 1369 703 1369 c 0,26,27
 725 1369 725 1369 741 1449 c 0,28,29
 749 1489 749 1489 789 1489 c 2,0,-1
EndSplineSet
Validated: 19457
EndChar

StartChar: hungarumlaut
Encoding: 733 733 130
Width: 1200
Flags: W
HStem: 1190 368
VStem: 290 620
LayerCount: 2
Fore
SplineSet
798 1558 m 0,0,1
 814 1558 814 1558 826 1547 c 2,2,-1
 892 1492 l 2,3,4
 910 1476 910 1476 910 1459 c 0,5,6
 910 1440 910 1440 892 1422 c 2,7,-1
 678 1208 l 2,8,9
 660 1190 660 1190 642 1190 c 128,-1,10
 624 1190 624 1190 610 1202 c 2,11,-1
 572 1235 l 2,12,13
 554 1250 554 1250 554 1268 c 0,14,15
 554 1283 554 1283 568 1300 c 2,16,-1
 760 1535 l 2,17,18
 780 1558 780 1558 798 1558 c 0,0,1
534 1558 m 0,19,20
 550 1558 550 1558 562 1547 c 2,21,-1
 628 1492 l 2,22,23
 646 1476 646 1476 646 1459 c 0,24,25
 646 1440 646 1440 628 1422 c 2,26,-1
 414 1208 l 2,27,28
 396 1190 396 1190 378 1190 c 128,-1,29
 360 1190 360 1190 346 1202 c 2,30,-1
 308 1235 l 2,31,32
 290 1250 290 1250 290 1268 c 0,33,34
 290 1283 290 1283 304 1300 c 2,35,-1
 496 1535 l 2,36,37
 516 1558 516 1558 534 1558 c 0,19,20
EndSplineSet
Validated: 19457
EndChar

StartChar: C
Encoding: 67 67 131
Width: 1200
Flags: W
HStem: -20 250<441.424 676.63> 1117 21G<940 964.5> 1270 250<601.867 855.57>
VStem: 70 266<352.94 864.492>
LayerCount: 2
Fore
SplineSet
528 -20 m 0,0,1
 268 -20 268 -20 154 214 c 0,2,3
 70 385 70 385 70 593 c 0,4,5
 70 669 70 669 81 749 c 0,6,7
 126 1073 126 1073 278 1265 c 0,8,9
 479 1520 479 1520 760 1520 c 0,10,11
 989 1520 989 1520 1135 1286 c 0,12,13
 1145 1270 1145 1270 1145 1248 c 0,14,15
 1145 1215 1145 1215 1098 1188 c 2,16,-1
 1000 1132 l 2,17,18
 974 1117 974 1117 955 1117 c 0,19,20
 925 1117 925 1117 908 1152 c 16,21,22
 851 1270 851 1270 738 1270 c 0,23,24
 612 1270 612 1270 509 1135 c 0,25,26
 396 986 396 986 354 751 c 0,27,28
 336 648 336 648 336 565 c 0,29,30
 336 445 336 445 373 365 c 0,31,32
 437 230 437 230 558 230 c 0,33,34
 665 230 665 230 799 392 c 8,35,36
 828 427 828 427 859 427 c 0,37,38
 879 427 879 427 899 412 c 2,39,-1
 1005 334 l 2,40,41
 1034 313 1034 313 1034 287 c 0,42,43
 1034 272 1034 272 1008 236 c 0,44,45
 825 -20 825 -20 528 -20 c 0,0,1
EndSplineSet
Validated: 19457
EndChar

StartChar: G
Encoding: 71 71 132
Width: 1200
Flags: W
HStem: -20 250<432.932 697.886> 625 250<597.268 819> 1117 21G<932 956.5> 1270 250<593.867 847.57>
VStem: 62 266<350.946 864.492>
LayerCount: 2
Fore
SplineSet
520 -20 m 0,0,1
 260 -20 260 -20 146 214 c 0,2,3
 62 385 62 385 62 593 c 0,4,5
 62 669 62 669 73 749 c 0,6,7
 118 1073 118 1073 270 1265 c 0,8,9
 471 1520 471 1520 752 1520 c 0,10,11
 981 1520 981 1520 1127 1286 c 0,12,13
 1137 1270 1137 1270 1137 1248 c 0,14,15
 1137 1215 1137 1215 1090 1188 c 2,16,-1
 992 1132 l 2,17,18
 966 1117 966 1117 947 1117 c 0,19,20
 917 1117 917 1117 900 1152 c 16,21,22
 843 1270 843 1270 730 1270 c 0,23,24
 604 1270 604 1270 501 1135 c 0,25,26
 388 986 388 986 346 751 c 0,27,28
 328 648 328 648 328 565 c 0,29,30
 328 445 328 445 365 365 c 0,31,32
 427 230 427 230 550 230 c 0,33,34
 679 230 679 230 769 337 c 1,35,-1
 819 625 l 1,36,-1
 628 625 l 2,37,38
 569 625 569 625 569 675 c 0,39,40
 569 684 569 684 571 694 c 2,41,-1
 590 806 l 2,42,43
 602 875 602 875 672 875 c 2,44,-1
 1063 875 l 2,45,46
 1123 875 1123 875 1123 824 c 0,47,48
 1123 815 1123 815 1121 805 c 2,49,-1
 1021 237 l 1,50,51
 837 -20 837 -20 520 -20 c 0,0,1
EndSplineSet
Validated: 19457
EndChar

StartChar: J
Encoding: 74 74 133
Width: 1200
Flags: W
HStem: -20 250<267.914 586.467> 1250 250<359.359 881>
DStem2: 656.373 -20 926.373 -20 0.173648 0.984808<377.885 1289.71>
LayerCount: 2
Fore
SplineSet
360 -20 m 0,0,1
 169 -20 169 -20 36 100 c 0,2,3
 15 119 15 119 15 137 c 0,4,5
 15 171 15 171 47 200 c 2,6,-1
 145 289 l 2,7,8
 174 315 174 315 199 315 c 0,9,10
 223 315 223 315 244 294 c 0,11,12
 309 230 309 230 420 230 c 0,13,14
 550 230 550 230 642 317 c 0,15,16
 730 400 730 400 753 528 c 2,17,-1
 881 1250 l 1,18,-1
 391 1250 l 2,19,20
 331 1250 331 1250 331 1301 c 0,21,22
 331 1309 331 1309 333 1319 c 2,23,-1
 352 1431 l 2,24,25
 364 1500 364 1500 435 1500 c 2,26,-1
 1125 1500 l 2,27,28
 1184 1500 1184 1500 1184 1450 c 0,29,30
 1184 1441 1184 1441 1182 1431 c 2,31,-1
 1023 528 l 2,32,33
 982 293 982 293 836 155 c 0,34,35
 649 -20 649 -20 360 -20 c 0,0,1
EndSplineSet
Validated: 19457
EndChar

StartChar: M
Encoding: 77 77 134
Width: 1200
Flags: W
HStem: 0 21G<28 193 748 913> 1480 20G<287 592.5 871.5 1172>
VStem: 438 168<818 1220> 443 180<914.061 1220>
DStem2: -12.1666 0 227.833 0 0.173648 0.984808<51.2528 1280.5> 606 818 684 537 0.330289 0.94388<0 484.141> 707.833 0 947.833 0 0.173648 0.984808<51.2528 1238.83>
LayerCount: 2
Fore
SplineSet
58 0 m 2,0,1
 -2 0 -2 0 -2 50 c 0,2,3
 -2 58 -2 58 -0 69 c 2,4,-1
 240 1431 l 2,5,6
 252 1500 252 1500 322 1500 c 2,7,-1
 562 1500 l 2,8,9
 623 1500 623 1500 623 1441 c 0,10,11
 623 1436 623 1436 623 1431 c 2,12,-1
 606 818 l 1,13,-1
 817 1431 l 2,14,15
 841 1500 841 1500 902 1500 c 2,16,-1
 1142 1500 l 2,17,18
 1202 1500 1202 1500 1202 1450 c 0,19,20
 1202 1442 1202 1442 1200 1431 c 2,21,-1
 960 69 l 2,22,23
 948 0 948 0 878 0 c 2,24,-1
 778 0 l 2,25,26
 718 0 718 0 718 50 c 0,27,28
 718 58 718 58 720 69 c 2,29,-1
 923 1220 l 1,30,-1
 684 537 l 2,31,32
 660 468 660 468 599 468 c 2,33,-1
 499 468 l 2,34,35
 438 468 438 468 438 529 c 0,36,37
 438 532 438 532 438 536 c 2,38,-1
 443 1220 l 1,39,-1
 240 69 l 2,40,41
 228 0 228 0 158 0 c 2,42,-1
 58 0 l 2,0,1
EndSplineSet
Validated: 1
EndChar

StartChar: Y
Encoding: 89 89 135
Width: 1200
Flags: W
HStem: 0 21G<260.5 456> 1480 20G<90 284.5 927.5 1146>
DStem2: 506 934 64 1433 0.328146 -0.944627<-614.625 0> 220.833 0 490.833 0 0.173648 0.984808<44.2175 660.124> 506 934 606 650 0.574094 0.81879<0 721.571>
LayerCount: 2
Fore
SplineSet
291 0 m 2,0,1
 230 0 230 0 230 43 c 0,2,3
 230 52 230 52 233 69 c 2,4,-1
 336 650 l 1,5,-1
 64 1433 l 2,6,7
 60 1445 60 1445 60 1462 c 0,8,9
 60 1500 60 1500 120 1500 c 2,10,-1
 259 1500 l 2,11,12
 310 1500 310 1500 329 1446 c 2,13,-1
 506 934 l 1,14,-1
 864 1446 l 2,15,16
 902 1500 902 1500 953 1500 c 2,17,-1
 1122 1500 l 2,18,19
 1170 1500 1170 1500 1170 1471 c 0,20,21
 1170 1454 1170 1454 1155 1433 c 2,22,-1
 606 650 l 1,23,-1
 503 69 l 2,24,25
 491 0 491 0 421 0 c 2,26,-1
 291 0 l 2,0,1
EndSplineSet
Validated: 19457
EndChar

StartChar: X
Encoding: 88 88 136
Width: 1200
Flags: W
HStem: 0 21G<26 223 796 986.5> 1480 20G<215 404.5 978.5 1174.5>
DStem2: 22 69 292 54 0.54196 0.840404<42.1624 647.985 1122.01 1730.88> 630 1012 192 1431 0.372088 -0.928198<-542.828 0 466.279 1007.17>
LayerCount: 2
Fore
SplineSet
189 0 m 2,0,-1
 50 0 l 2,1,2
 2 0 2 0 2 30 c 0,3,4
 2 38 2 38 22 69 c 2,5,-1
 464 754 l 1,6,-1
 192 1431 l 2,7,8
 185 1449 185 1449 185 1470 c 0,9,10
 185 1500 185 1500 245 1500 c 2,11,-1
 374 1500 l 2,12,13
 435 1500 435 1500 456 1446 c 2,14,-1
 630 1012 l 1,15,-1
 910 1446 l 2,16,17
 945 1500 945 1500 1012 1500 c 2,18,-1
 1151 1500 l 2,19,20
 1198 1500 1198 1500 1198 1470 c 0,21,22
 1198 1459 1198 1459 1180 1431 c 2,23,-1
 737 744 l 1,24,-1
 1008 69 l 2,25,26
 1017 46 1017 46 1017 35 c 0,27,28
 1017 0 1017 0 956 0 c 2,29,-1
 827 0 l 2,30,31
 765 0 765 0 744 54 c 2,32,-1
 571 486 l 1,33,-1
 292 54 l 2,34,35
 257 0 257 0 189 0 c 2,0,-1
EndSplineSet
Validated: 19457
EndChar

StartChar: S
Encoding: 83 83 137
Width: 1200
Flags: W
HStem: -20 250<380.526 697.824> 1270 250<654.597 861.86>
VStem: 342 267<1030.02 1228.75> 836 277<357.984 589.94>
DStem2: 730 970 543 750 0.880798 -0.473492<-148.389 274.947>
LayerCount: 2
Fore
SplineSet
498 -20 m 0,0,1
 196 -20 196 -20 85 184 c 0,2,3
 76 200 76 200 76 219 c 0,4,5
 76 256 76 256 122 282 c 2,6,-1
 236 347 l 2,7,8
 262 362 262 362 281 362 c 0,9,10
 306 362 306 362 328 327 c 0,11,12
 392 230 392 230 529 230 c 0,13,14
 655 230 655 230 743 304 c 0,15,16
 818 368 818 368 833 456 c 0,17,18
 836 472 836 472 836 486 c 0,19,20
 836 590 836 590 701 664 c 2,21,-1
 543 750 l 2,22,23
 342 860 342 860 342 1076 c 0,24,25
 342 1106 342 1106 346 1139 c 0,26,27
 369 1328 369 1328 528 1441 c 0,28,29
 640 1520 640 1520 788 1520 c 0,30,31
 1008 1520 1008 1520 1096 1361 c 0,32,33
 1106 1343 1106 1343 1106 1325 c 0,34,35
 1106 1290 1106 1290 1059 1263 c 2,36,-1
 957 1205 l 2,37,38
 931 1190 931 1190 911 1190 c 0,39,40
 888 1191 888 1191 864 1225 c 0,41,42
 832 1270 832 1270 763 1270 c 0,43,44
 697 1270 697 1270 659 1237 c 0,45,46
 620 1203 620 1203 611 1147 c 0,47,48
 609 1135 609 1135 609 1123 c 0,49,50
 609 1035 609 1035 730 970 c 2,51,-1
 903 877 l 2,52,53
 1113 763 1113 763 1113 516 c 0,54,55
 1113 495 1113 495 1112 474 c 0,56,57
 1099 279 1099 279 950 144 c 0,58,59
 769 -20 769 -20 498 -20 c 0,0,1
EndSplineSet
Validated: 19457
EndChar

StartChar: P
Encoding: 80 80 138
Width: 1200
Flags: W
HStem: 0 21G<63.5 258.5> 493 250<424 744.056> 1250 250<514 816.698>
VStem: 882 277<889.227 1184.26>
DStem2: 23.8334 0 293.833 0 0.173648 0.984808<51.2831 547.358 801.2 1316.13>
LayerCount: 2
Fore
SplineSet
93 0 m 2,0,1
 34 0 34 0 34 50 c 0,2,3
 34 59 34 59 36 69 c 2,4,-1
 276 1431 l 2,5,6
 288 1500 288 1500 358 1500 c 2,7,-1
 696 1500 l 2,8,9
 939 1500 939 1500 1063 1344 c 0,10,11
 1159 1223 1159 1223 1159 1050 c 0,12,13
 1158 1024 1158 1024 1156 996 c 0,14,15
 1140 788 1140 788 981 649 c 0,16,17
 802 493 802 493 558 493 c 2,18,-1
 380 493 l 1,19,-1
 306 69 l 2,20,21
 294 0 294 0 223 0 c 2,22,-1
 93 0 l 2,0,1
514 1250 m 1,23,-1
 424 743 l 1,24,-1
 602 743 l 2,25,26
 709 743 709 743 788 824 c 0,27,28
 860 898 860 898 877 996 c 0,29,30
 882 1025 882 1025 882 1051 c 0,31,32
 882 1119 882 1119 849 1170 c 0,33,34
 797 1250 797 1250 692 1250 c 2,35,-1
 514 1250 l 1,23,-1
EndSplineSet
Validated: 19457
EndChar

StartChar: s
Encoding: 115 115 139
Width: 1200
Flags: W
HStem: -20 241<398.5 676.592> 897 223<589.382 778.092>
VStem: 311 268<758.42 870.772> 746 261<286.275 450.92>
LayerCount: 2
Fore
SplineSet
505 -20 m 0,0,1
 235 -20 235 -20 122 168 c 0,2,3
 110 188 110 188 110 208 c 0,4,5
 110 238 110 238 159 266 c 2,6,-1
 267 328 l 2,7,8
 293 343 293 343 313 343 c 0,9,10
 339 342 339 342 360 308 c 16,11,12
 415 221 415 221 524 221 c 0,13,14
 608 221 608 221 671 261 c 128,-1,15
 734 301 734 301 744 359 c 16,16,17
 746 369 746 369 746 379 c 0,18,19
 746 410 746 410 726 432 c 0,20,21
 703 457 703 457 652 476 c 2,22,-1
 550 514 l 2,23,24
 434 557 434 557 376 622 c 0,25,26
 311 694 311 694 311 796 c 0,27,28
 312 815 312 815 314 836 c 0,29,30
 328 962 328 962 448 1052 c 0,31,32
 539 1120 539 1120 705 1120 c 0,33,34
 921 1120 921 1120 1008 970 c 0,35,36
 1019 951 1019 951 1019 934 c 0,37,38
 1019 900 1019 900 971 872 c 2,39,-1
 882 821 l 2,40,41
 856 806 856 806 837 806 c 0,42,43
 816 806 816 806 790 841 c 16,44,45
 749 897 749 897 684 897 c 0,46,47
 623 897 623 897 591 860 c 0,48,49
 579 846 579 846 579 822 c 0,50,51
 579 769 579 769 681 729 c 2,52,-1
 805 680 l 2,53,54
 896 644 896 644 952 574 c 0,55,56
 1007 504 1007 504 1007 405 c 0,57,58
 1007 384 1007 384 1005 363 c 0,59,60
 987 194 987 194 857 95 c 0,61,62
 705 -20 705 -20 505 -20 c 0,0,1
EndSplineSet
Validated: 19457
EndChar

StartChar: K
Encoding: 75 75 140
Width: 1200
Flags: W
HStem: 0 21G<32 215 751 941> 1480 20G<291 474 975 1176>
DStem2: -8.16656 0 249.833 0 0.173648 0.984808<51.2831 597.236 1000.36 1516.63> 416 941 646 855 0.678173 0.734902<92.7782 801.016> 646 855 462 646 0.375048 -0.927005<124.735 838.928>
LayerCount: 2
Fore
SplineSet
180 0 m 2,0,-1
 62 0 l 2,1,2
 2 0 2 0 2 50 c 0,3,4
 2 59 2 59 4 69 c 2,5,-1
 244 1431 l 2,6,7
 256 1500 256 1500 326 1500 c 2,8,-1
 444 1500 l 2,9,10
 504 1500 504 1500 504 1450 c 0,11,12
 504 1441 504 1441 502 1431 c 2,13,-1
 416 941 l 1,14,-1
 896 1446 l 2,15,16
 948 1500 948 1500 1002 1500 c 2,17,-1
 1154 1500 l 2,18,19
 1198 1500 1198 1500 1198 1470 c 0,20,21
 1198 1452 1198 1452 1172 1425 c 2,22,-1
 646 855 l 1,23,-1
 964 69 l 2,24,25
 970 54 970 54 970 41 c 0,26,27
 970 0 970 0 912 0 c 2,28,-1
 782 0 l 2,29,30
 720 0 720 0 698 54 c 2,31,-1
 462 646 l 1,32,-1
 346 544 l 1,33,-1
 262 69 l 2,34,35
 250 0 250 0 180 0 c 2,0,-1
EndSplineSet
Validated: 19457
EndChar

StartChar: R
Encoding: 82 82 141
Width: 1200
Flags: W
HStem: 0 21G<63.5 258.5 785 984.5> 493 250<424 555> 1250 250<514 817.478>
VStem: 882 277<889.227 1186.38>
DStem2: 23.8334 0 293.833 0 0.173648 0.984808<51.2528 547.358 801.2 1316.13> 815 544 555 493 0.376429 -0.926445<-2.24671 498.618>
LayerCount: 2
Fore
SplineSet
514 1250 m 1,0,-1
 424 743 l 1,1,-1
 602 743 l 2,2,3
 709 743 709 743 788 824 c 0,4,5
 860 898 860 898 877 996 c 0,6,7
 882 1025 882 1025 882 1051 c 0,8,9
 882 1119 882 1119 849 1170 c 0,10,11
 797 1250 797 1250 692 1250 c 2,12,-1
 514 1250 l 1,0,-1
93 0 m 2,13,14
 34 0 34 0 34 50 c 0,15,16
 34 58 34 58 36 69 c 2,17,-1
 276 1431 l 2,18,19
 288 1500 288 1500 358 1500 c 2,20,-1
 696 1500 l 2,21,22
 941 1500 941 1500 1063 1344 c 0,23,24
 1159 1222 1159 1222 1159 1050 c 0,25,26
 1158 1024 1158 1024 1156 996 c 0,27,28
 1140 788 1140 788 981 649 c 0,29,30
 904 582 904 582 815 544 c 1,31,-1
 1008 69 l 2,32,33
 1015 52 1015 52 1015 40 c 0,34,35
 1015 0 1015 0 954 0 c 2,36,-1
 815 0 l 2,37,38
 755 0 755 0 733 54 c 2,39,-1
 555 493 l 1,40,-1
 380 493 l 1,41,-1
 306 69 l 2,42,43
 294 0 294 0 223 0 c 2,44,-1
 93 0 l 2,13,14
EndSplineSet
Validated: 19457
EndChar

StartChar: B
Encoding: 66 66 142
Width: 1200
Flags: W
HStem: 0 250<368 698.094> 701 250<491 766.143> 1250 250<544 813.678>
VStem: 831 267<372.672 638.582> 850 272<1013.71 1216.12>
DStem2: 63.8334 0 323.918 0 0.173648 0.984808<299.02 756.886 1010.73 1314.39>
LayerCount: 2
Fore
SplineSet
544 1250 m 1,0,-1
 491 951 l 1,1,-1
 641 951 l 2,2,3
 720 951 720 951 775 987 c 0,4,5
 837 1028 837 1028 848 1100 c 0,6,7
 850 1113 850 1113 850 1130 c 0,8,9
 850 1182 850 1182 815 1214 c 0,10,11
 773 1250 773 1250 694 1250 c 2,12,-1
 544 1250 l 1,0,-1
368 250 m 1,13,-1
 518 250 l 2,14,15
 659 250 659 250 744 325 c 0,16,17
 811 382 811 382 827 474 c 0,18,19
 831 498 831 498 831 520 c 0,20,21
 831 581 831 581 798 625 c 0,22,23
 740 701 740 701 597 701 c 2,24,-1
 447 701 l 1,25,-1
 368 250 l 1,13,-1
134 0 m 2,26,27
 74 0 74 0 74 50 c 0,28,29
 74 59 74 59 76 69 c 2,30,-1
 316 1431 l 2,31,32
 328 1500 328 1500 398 1500 c 2,33,-1
 718 1500 l 2,34,35
 918 1500 918 1500 1022 1391 c 0,36,37
 1122 1287 1122 1287 1122 1155 c 0,38,39
 1122 1138 1122 1138 1120 1120 c 0,40,41
 1104 951 1104 951 941 836 c 1,42,43
 984 796 984 796 1001 774 c 0,44,45
 1098 660 1098 660 1098 511 c 0,46,47
 1098 491 1098 491 1096 470 c 0,48,49
 1079 264 1079 264 920 139 c 0,50,51
 743 0 743 0 494 0 c 2,52,-1
 134 0 l 2,26,27
EndSplineSet
Validated: 19457
EndChar

StartChar: l
Encoding: 108 108 143
Width: 1200
Flags: W
HStem: 0 240<685.73 943.531> 1260 240<257.268 510>
VStem: 363 262<299.109 545.239>
DStem2: 287.479 0 546.95 0 0.173648 0.984808<472.014 1279.5>
LayerCount: 2
Fore
SplineSet
807 0 m 2,0,1
 560 0 560 0 454 136 c 0,2,3
 363 254 363 254 363 391 c 0,4,5
 363 429 363 429 370 468 c 2,6,-1
 510 1260 l 1,7,-1
 290 1260 l 2,8,9
 230 1260 230 1260 230 1310 c 0,10,11
 230 1319 230 1319 232 1329 c 2,12,-1
 250 1431 l 2,13,14
 262 1500 262 1500 332 1500 c 2,15,-1
 742 1500 l 2,16,17
 802 1500 802 1500 802 1450 c 0,18,19
 802 1441 802 1441 800 1431 c 2,20,-1
 630 471 l 2,21,22
 625 444 625 444 625 419 c 0,23,24
 625 347 625 347 667 301 c 0,25,26
 722 240 722 240 830 240 c 2,27,-1
 914 240 l 2,28,29
 970 240 970 240 970 193 c 0,30,31
 970 185 970 185 968 176 c 2,32,-1
 949 64 l 2,33,34
 938 0 938 0 871 0 c 2,35,-1
 807 0 l 2,0,1
EndSplineSet
Validated: 19457
EndChar

StartChar: i
Encoding: 105 105 144
Width: 1200
Flags: W
HStem: 0 240<721.73 977.82> 860 240<221.309 474> 1166 354<551.699 789.766>
VStem: 398 263<299.939 541.944> 491 358<1225.61 1459.71>
DStem2: 322.479 0 582.95 0 0.173648 0.984808<472.188 873.246>
LayerCount: 2
Fore
SplineSet
670 1166 m 0,0,1
 596 1166 596 1166 545 1215 c 0,2,3
 491 1267 491 1267 491 1343 c 128,-1,4
 491 1419 491 1419 545 1470 c 0,5,6
 598 1520 598 1520 670 1520 c 0,7,8
 747 1520 747 1520 796 1470 c 0,9,10
 849 1416 849 1416 849 1343 c 0,11,12
 849 1266 849 1266 797 1216 c 128,-1,13
 745 1166 745 1166 670 1166 c 0,0,1
843 0 m 2,14,15
 596 0 596 0 490 136 c 0,16,17
 398 255 398 255 398 392 c 0,18,19
 398 429 398 429 405 468 c 2,20,-1
 474 860 l 1,21,-1
 254 860 l 2,22,23
 194 860 194 860 194 910 c 0,24,25
 194 919 194 919 196 929 c 2,26,-1
 214 1031 l 2,27,28
 226 1100 226 1100 297 1100 c 2,29,-1
 707 1100 l 2,30,31
 766 1100 766 1100 766 1050 c 0,32,33
 766 1041 766 1041 764 1031 c 2,34,-1
 666 471 l 2,35,36
 661 444 661 444 661 419 c 0,37,38
 661 347 661 347 703 301 c 0,39,40
 758 240 758 240 865 240 c 2,41,-1
 949 240 l 2,42,43
 1006 240 1006 240 1006 193 c 0,44,45
 1006 185 1006 185 1004 176 c 2,46,-1
 984 64 l 2,47,48
 973 0 973 0 907 0 c 2,49,-1
 843 0 l 2,14,15
EndSplineSet
Validated: 19457
EndChar

StartChar: t
Encoding: 116 116 145
Width: 1200
Flags: W
HStem: 0 240<696.73 953.314> 860 240<157.268 450 752 1042.73> 1480 20G<598 783>
VStem: 130 940<879.474 1080.53> 374 262<299.109 541.944>
DStem2: 298.479 0 557.95 0 0.173648 0.984808<472.014 873.246 1162.04 1517.04>
LayerCount: 2
Fore
SplineSet
818 0 m 2,0,1
 571 0 571 0 465 136 c 0,2,3
 374 254 374 254 374 391 c 0,4,5
 374 429 374 429 381 468 c 2,6,-1
 450 860 l 1,7,-1
 190 860 l 2,8,9
 130 860 130 860 130 910 c 0,10,11
 130 919 130 919 132 929 c 2,12,-1
 150 1031 l 2,13,14
 162 1100 162 1100 232 1100 c 2,15,-1
 492 1100 l 1,16,-1
 551 1431 l 2,17,18
 563 1500 563 1500 633 1500 c 2,19,-1
 753 1500 l 2,20,21
 813 1500 813 1500 813 1450 c 0,22,23
 813 1441 813 1441 811 1431 c 2,24,-1
 752 1100 l 1,25,-1
 1010 1100 l 2,26,27
 1070 1100 1070 1100 1070 1050 c 0,28,29
 1070 1041 1070 1041 1068 1031 c 2,30,-1
 1050 929 l 2,31,32
 1038 860 1038 860 968 860 c 2,33,-1
 710 860 l 1,34,-1
 641 471 l 2,35,36
 636 444 636 444 636 419 c 0,37,38
 636 347 636 347 678 301 c 0,39,40
 733 240 733 240 841 240 c 2,41,-1
 925 240 l 2,42,43
 981 240 981 240 981 194 c 0,44,45
 981 186 981 186 979 176 c 2,46,-1
 959 64 l 2,47,48
 948 0 948 0 882 0 c 2,49,-1
 818 0 l 2,0,1
EndSplineSet
Validated: 19457
EndChar

StartChar: j
Encoding: 106 106 146
Width: 1200
Flags: W
HStem: -400 240<142.18 458.063> 860 240<464.309 717> 1166 354<784.699 1022.77>
VStem: 724 358<1225.61 1459.71>
DStem2: 494.828 -400 755.479 -400 0.173648 0.984808<322.934 1279.44>
LayerCount: 2
Fore
SplineSet
903 1166 m 0,0,1
 829 1166 829 1166 778 1215 c 0,2,3
 724 1267 724 1267 724 1343 c 128,-1,4
 724 1419 724 1419 778 1470 c 0,5,6
 831 1520 831 1520 903 1520 c 0,7,8
 980 1520 980 1520 1029 1470 c 0,9,10
 1082 1416 1082 1416 1082 1343 c 0,11,12
 1082 1266 1082 1266 1030 1216 c 128,-1,13
 978 1166 978 1166 903 1166 c 0,0,1
275 -400 m 2,14,-1
 171 -400 l 2,15,16
 114 -400 114 -400 114 -353 c 0,17,18
 114 -345 114 -345 116 -336 c 2,19,-1
 136 -224 l 2,20,21
 147 -160 147 -160 213 -160 c 2,22,-1
 297 -160 l 2,23,24
 404 -160 404 -160 481 -99 c 0,25,26
 559 -38 559 -38 578 71 c 2,27,-1
 717 860 l 17,28,-1
 497 860 l 2,29,30
 437 860 437 860 437 910 c 0,31,32
 437 919 437 919 439 929 c 2,33,-1
 457 1031 l 2,34,35
 469 1100 469 1100 540 1100 c 2,36,-1
 950 1100 l 2,37,38
 1009 1100 1009 1100 1009 1050 c 0,39,40
 1009 1041 1009 1041 1007 1031 c 2,41,-1
 838 68 l 2,42,43
 800 -148 800 -148 676 -264 c 0,44,45
 531 -400 531 -400 275 -400 c 2,14,-1
EndSplineSet
Validated: 19457
EndChar

StartChar: f
Encoding: 102 102 147
Width: 1200
Flags: W
HStem: 0 21G<286 471> 695 240<76.2681 369 671 961.732> 1260 240<812.222 1124.53>
VStem: 49 940<714.474 915.526>
DStem2: 245.833 0 505.833 0 0.173648 0.984808<51.2831 705.829 994.625 1245.42>
LayerCount: 2
Fore
SplineSet
316 0 m 2,0,1
 256 0 256 0 256 50 c 0,2,3
 256 59 256 59 258 69 c 2,4,-1
 369 695 l 1,5,-1
 109 695 l 2,6,7
 49 695 49 695 49 745 c 0,8,9
 49 754 49 754 51 764 c 2,10,-1
 69 866 l 2,11,12
 81 935 81 935 151 935 c 2,13,-1
 411 935 l 1,14,-1
 428 1032 l 2,15,16
 468 1257 468 1257 590 1364 c 0,17,18
 744 1500 744 1500 991 1500 c 2,19,-1
 1095 1500 l 2,20,21
 1151 1500 1151 1500 1151 1453 c 0,22,23
 1151 1445 1151 1445 1149 1436 c 2,24,-1
 1130 1324 l 2,25,26
 1119 1260 1119 1260 1052 1260 c 2,27,-1
 968 1260 l 2,28,29
 861 1260 861 1260 785 1199 c 0,30,31
 708 1139 708 1139 688 1029 c 2,32,-1
 671 935 l 1,33,-1
 929 935 l 2,34,35
 989 935 989 935 989 885 c 0,36,37
 989 876 989 876 987 866 c 2,38,-1
 969 764 l 2,39,40
 957 695 957 695 887 695 c 2,41,-1
 629 695 l 1,42,-1
 518 69 l 2,43,44
 506 0 506 0 436 0 c 2,45,-1
 316 0 l 2,0,1
EndSplineSet
Validated: 19457
EndChar

StartChar: d
Encoding: 100 100 148
Width: 1200
Flags: W
HStem: -20 245<399.125 638.258> 0 21G<681.5 866.5> 873 247<494.302 763.349> 1480 20G<936 1126.5>
VStem: 70 255<303.139 669.03>
DStem2: 635.633 -20 895.189 -20 0.173648 0.984808<268.287 871.535 1109.8 1541.37>
LayerCount: 2
Fore
SplineSet
834 0 m 2,0,1
 704 0 l 2,2,3
 659 0 659 0 659 36 c 1,4,5
 563 -20 563 -20 484 -20 c 0,6,7
 278 -20 278 -20 173 120 c 0,8,9
 70 257 70 257 70 468 c 0,10,11
 70 508 70 508 74 550 c 0,12,13
 97 816 97 816 283 979 c 0,14,15
 444 1120 444 1120 645 1120 c 0,16,17
 757 1120 757 1120 828 1073 c 1,18,-1
 892 1436 l 2,19,20
 903 1500 903 1500 969 1500 c 2,21,-1
 1099 1500 l 2,22,23
 1154 1500 1154 1500 1154 1454 c 0,24,25
 1154 1446 1154 1446 1152 1436 c 2,26,-1
 910 64 l 2,27,28
 899 0 899 0 834 0 c 2,0,1
781 807 m 1,29,30
 738 873 738 873 646 873 c 0,31,32
 541 873 541 873 461 804 c 0,33,34
 364 720 364 720 334 552 c 0,35,36
 325 499 325 499 325 454 c 0,37,38
 325 357 325 357 369 300 c 0,39,40
 429 225 429 225 533 225 c 0,41,42
 626 225 626 225 691 294 c 1,43,-1
 781 807 l 1,29,30
EndSplineSet
Validated: 19457
EndChar

StartChar: p
Encoding: 112 112 149
Width: 1200
Flags: W
HStem: -400 21G<73.5 264> -20 247<436.651 705.06> 875 245<559.109 800.842> 1080 20G<333.5 518.5>
VStem: 875 256<427.382 799.559>
DStem2: 36.7151 -400 296.715 -400 0.173648 0.984808<47.1602 478.735 716.998 1320.25>
LayerCount: 2
Fore
SplineSet
555 -20 m 0,0,1
 443 -20 443 -20 372 27 c 1,2,-1
 308 -336 l 2,3,4
 297 -400 297 -400 231 -400 c 2,5,-1
 101 -400 l 2,6,7
 46 -400 46 -400 46 -354 c 0,8,9
 46 -346 46 -346 48 -336 c 2,10,-1
 290 1036 l 2,11,12
 301 1100 301 1100 366 1100 c 2,13,-1
 496 1100 l 2,14,15
 541 1100 541 1100 541 1064 c 1,16,17
 621 1120 621 1120 733 1120 c 0,18,19
 923 1120 923 1120 1027 981 c 128,-1,20
 1131 842 1131 842 1131 641 c 0,21,22
 1131 597 1131 597 1126 550 c 0,23,24
 1096 274 1096 274 918 121 c 0,25,26
 753 -20 753 -20 555 -20 c 0,0,1
419 293 m 1,27,28
 462 227 462 227 554 227 c 0,29,30
 659 227 659 227 739 296 c 0,31,32
 836 380 836 380 866 548 c 0,33,34
 875 601 875 601 875 646 c 0,35,36
 875 743 875 743 831 800 c 0,37,38
 771 875 771 875 667 875 c 0,39,40
 574 875 574 875 509 806 c 1,41,-1
 419 293 l 1,27,28
EndSplineSet
Validated: 19457
EndChar

StartChar: b
Encoding: 98 98 150
Width: 1200
Flags: W
HStem: -20 245<390.855 654.365> 0 21G<97.5 281> 873 247<514.512 757.849> 1480 20G<357.5 548>
VStem: 829 255<435.028 800.335>
DStem2: 57.1885 -20 316.633 -20 0.173648 0.984808<329.097 932.127 1155.02 1540.47>
LayerCount: 2
Fore
SplineSet
125 0 m 2,0,1
 70 0 70 0 70 46 c 0,2,3
 70 54 70 54 72 64 c 2,4,-1
 314 1436 l 2,5,6
 325 1500 325 1500 390 1500 c 2,7,-1
 520 1500 l 2,8,9
 576 1500 576 1500 576 1453 c 0,10,11
 576 1445 576 1445 574 1436 c 2,12,-1
 510 1073 l 1,13,14
 586 1120 586 1120 680 1120 c 0,15,16
 868 1120 868 1120 977 985 c 0,17,18
 1084 853 1084 853 1084 642 c 0,19,20
 1084 598 1084 598 1079 550 c 0,21,22
 1054 295 1054 295 867 123 c 0,23,24
 711 -20 711 -20 509 -20 c 0,25,26
 389 -20 389 -20 313 36 c 1,27,28
 307 0 307 0 255 0 c 2,29,-1
 125 0 l 2,0,1
463 807 m 1,30,-1
 372 294 l 1,31,32
 413 225 413 225 506 225 c 0,33,34
 610 225 610 225 696 300 c 0,35,36
 789 384 789 384 819 552 c 0,37,38
 828 604 828 604 829 647 c 0,39,40
 829 746 829 746 782 804 c 0,41,42
 726 873 726 873 621 873 c 0,43,44
 530 873 530 873 463 807 c 1,30,-1
EndSplineSet
Validated: 19457
EndChar

StartChar: q
Encoding: 113 113 151
Width: 1200
Flags: W
HStem: -400 240<898 1035.73> -20 247<423.314 666.554> 875 245<526.869 790.145> 1080 20G<900 1083.5>
VStem: 95 257<303.317 668.202>
DStem2: 595.833 -400 855.682 -400 0.173648 0.984808<288.825 433.565 656.463 1259.49>
LayerCount: 2
Fore
SplineSet
511 -20 m 0,0,1
 313 -20 313 -20 200 120 c 0,2,3
 95 250 95 250 95 447 c 0,4,5
 95 497 95 497 102 550 c 0,6,7
 135 814 135 814 314 977 c 0,8,9
 471 1120 471 1120 672 1120 c 0,10,11
 792 1120 792 1120 868 1064 c 1,12,13
 874 1100 874 1100 926 1100 c 2,14,-1
 1056 1100 l 2,15,16
 1111 1100 1111 1100 1111 1054 c 0,17,18
 1111 1046 1111 1046 1109 1036 c 2,19,-1
 898 -160 l 17,20,-1
 1003 -160 l 2,21,22
 1063 -160 1063 -160 1063 -210 c 0,23,24
 1063 -219 1063 -219 1061 -229 c 2,25,-1
 1043 -331 l 2,26,27
 1031 -400 1031 -400 961 -400 c 2,28,-1
 666 -400 l 2,29,30
 606 -400 606 -400 606 -350 c 0,31,32
 606 -341 606 -341 608 -331 c 2,33,-1
 671 27 l 1,34,35
 597 -20 597 -20 511 -20 c 0,0,1
718 293 m 1,36,-1
 809 806 l 1,37,38
 768 875 768 875 675 875 c 0,39,40
 571 875 571 875 485 800 c 0,41,42
 392 716 392 716 362 548 c 0,43,44
 353 496 353 496 352 453 c 0,45,46
 352 354 352 354 399 296 c 0,47,48
 455 227 455 227 560 227 c 0,49,50
 651 227 651 227 718 293 c 1,36,-1
EndSplineSet
Validated: 19457
EndChar

StartChar: a
Encoding: 97 97 152
Width: 1200
Flags: W
HStem: -20 232<388.902 668.451> 0 21G<716 895> 860 240<437.887 762.547>
VStem: 114 257<232.875 400.096>
DStem2: 792 728 596 475 0.985782 0.168031<-429.986 -70.0017>
LayerCount: 2
Fore
SplineSet
740 0 m 2,0,1
 692 0 692 0 683 33 c 1,2,3
 600 -20 600 -20 493 -20 c 0,4,5
 288 -20 288 -20 186 96 c 0,6,7
 114 179 114 179 114 284 c 0,8,9
 114 299 114 299 115 315 c 0,10,11
 131 475 131 475 271 573 c 0,12,13
 395 660 395 660 616 698 c 2,14,-1
 792 728 l 1,15,16
 792 784 792 784 764 814 c 0,17,18
 722 860 722 860 634 860 c 2,19,-1
 469 860 l 2,20,21
 410 860 410 860 410 910 c 0,22,23
 410 919 410 919 412 929 c 2,24,-1
 430 1031 l 2,25,26
 442 1100 442 1100 512 1100 c 2,27,-1
 637 1100 l 2,28,29
 856 1100 856 1100 959 991 c 0,30,31
 1054 892 1054 892 1054 747 c 0,32,33
 1054 706 1054 706 1046 661 c 2,34,-1
 942 69 l 2,35,36
 930 0 930 0 860 0 c 2,37,-1
 740 0 l 2,0,1
722 298 m 1,38,-1
 759 505 l 1,39,-1
 596 475 l 2,40,41
 488 455 488 455 436 418 c 0,42,43
 382 380 382 380 373 327 c 0,44,45
 371 315 371 315 371 305 c 0,46,47
 371 275 371 275 388 255 c 0,48,49
 420 212 420 212 515 212 c 0,50,51
 634 212 634 212 722 298 c 1,38,-1
EndSplineSet
Validated: 19457
EndChar

StartChar: c
Encoding: 99 99 153
Width: 1200
Flags: W
HStem: -20 245<487.495 761.127> 875 245<587.787 846.107>
VStem: 160 260<299.57 673.967>
LayerCount: 2
Fore
SplineSet
584 -20 m 0,0,1
 370 -20 370 -20 264 124 c 0,2,3
 160 266 160 266 160 458 c 0,4,5
 160 503 160 503 166 550 c 0,6,7
 202 833 202 833 370 978 c 0,8,9
 534 1120 534 1120 750 1120 c 0,10,11
 934 1120 934 1120 1079 962 c 0,12,13
 1090 950 1090 950 1090 928 c 0,14,15
 1090 892 1090 892 1042 864 c 2,16,-1
 943 807 l 2,17,18
 917 792 917 792 898 792 c 0,19,20
 882 792 882 792 850 827 c 0,21,22
 806 875 806 875 727 875 c 0,23,24
 632 875 632 875 554 805 c 0,25,26
 458 719 458 719 428 551 c 0,27,28
 420 506 420 506 420 466 c 0,29,30
 420 373 420 373 462 300 c 0,31,32
 505 225 505 225 606.5 225 c 128,-1,33
 708 225 708 225 766 272 c 0,34,35
 806 307 806 307 825 307 c 0,36,37
 845 307 845 307 866 292 c 2,38,-1
 961 223 l 2,39,40
 987 204 987 204 987 169 c 0,41,42
 987 145 987 145 964 125 c 16,43,44
 806 -20 806 -20 584 -20 c 0,0,1
EndSplineSet
Validated: 19457
EndChar

StartChar: e
Encoding: 101 101 154
Width: 1200
Flags: W
HStem: -20 245<421.071 695.245> 875 245<521.725 780.435>
DStem2: 361 546 377 334 0.94647 0.322793<0 511.92>
LayerCount: 2
Fore
SplineSet
518 -20 m 0,0,1
 304 -20 304 -20 198 124 c 0,2,3
 94 266 94 266 94 458 c 0,4,5
 94 503 94 503 100 550 c 0,6,7
 134 831 134 831 304 978 c 0,8,9
 468 1120 468 1120 684 1120 c 0,10,11
 888 1120 888 1120 1002 976 c 0,12,13
 1106 844 1106 844 1106 653 c 0,14,15
 1106 646 1106 646 1105 639 c 0,16,17
 1094 579 1094 579 1025 555 c 2,18,-1
 377 334 l 1,19,20
 423 225 423 225 534.5 225 c 128,-1,21
 646 225 646 225 700 272 c 0,22,23
 740 307 740 307 759 307 c 0,24,25
 779 307 779 307 800 292 c 2,26,-1
 895 223 l 2,27,28
 922 203 922 203 922 177 c 0,29,30
 922 146 922 146 898 125 c 0,31,32
 740 -20 740 -20 518 -20 c 0,0,1
842 711 m 1,33,34
 831 771 831 771 804 805 c 0,35,36
 750 875 750 875 658 875 c 128,-1,37
 566 875 566 875 488 805 c 0,38,39
 392 719 392 719 361 546 c 1,40,-1
 842 711 l 1,33,34
EndSplineSet
Validated: 19457
EndChar

StartChar: g
Encoding: 103 103 155
Width: 1200
Flags: W
HStem: -400 240<153.18 558.754> -20 247<425.499 666.13> 875 245<527.593 790.145> 1080 20G<900 1083.5>
VStem: 97 255<301.946 669.084>
DStem2: 595.805 -400 856.479 -400 0.173648 0.984808<656.468 1259.5>
LayerCount: 2
Fore
SplineSet
182 -400 m 2,0,1
 125 -400 125 -400 125 -353 c 0,2,3
 125 -345 125 -345 127 -336 c 2,4,-1
 147 -224 l 2,5,6
 158 -160 158 -160 224 -160 c 2,7,-1
 398 -160 l 2,8,9
 505 -160 505 -160 582 -99 c 0,10,11
 660 -38 660 -38 671 27 c 1,12,13
 583 -20 583 -20 511 -20 c 0,14,15
 310 -20 310 -20 196 120 c 0,16,17
 97 244 97 244 97 451 c 0,18,19
 97 499 97 499 102 550 c 0,20,21
 128 816 128 816 309 980 c 0,22,23
 463 1120 463 1120 672 1120 c 0,24,25
 792 1120 792 1120 868 1064 c 1,26,27
 874 1100 874 1100 926 1100 c 2,28,-1
 1056 1100 l 2,29,30
 1111 1100 1111 1100 1111 1054 c 0,31,32
 1111 1046 1111 1046 1109 1036 c 2,33,-1
 939 68 l 18,34,35
 905 -126 905 -126 757 -264 c 0,36,37
 612 -400 612 -400 356 -400 c 2,38,-1
 182 -400 l 2,0,1
718 293 m 1,39,-1
 809 806 l 1,40,41
 768 875 768 875 675 875 c 0,42,43
 571 875 571 875 485 800 c 0,44,45
 392 716 392 716 362 548 c 0,46,47
 353 496 353 496 352 453 c 0,48,49
 352 354 352 354 399 296 c 0,50,51
 455 227 455 227 560 227 c 0,52,53
 651 227 651 227 718 293 c 1,39,-1
EndSplineSet
Validated: 19457
EndChar

StartChar: v
Encoding: 118 118 156
Width: 1200
Flags: W
HStem: 0 21G<306 589> 1080 20G<121.5 309 948 1153.5>
DStem2: 473 218 94 1033 0.175163 -0.984539<-896.866 0> 473 218 647 55 0.466641 0.884447<0 1020.14>
LayerCount: 2
Fore
SplineSet
334 0 m 2,0,1
 278 0 278 0 268 55 c 2,2,-1
 94 1033 l 2,3,4
 90 1055 90 1055 90 1061 c 0,5,6
 90 1100 90 1100 153 1100 c 2,7,-1
 280 1100 l 2,8,9
 338 1100 338 1100 346 1046 c 2,10,-1
 473 218 l 1,11,-1
 891 1046 l 2,12,13
 918 1100 918 1100 978 1100 c 2,14,-1
 1129 1100 l 2,15,16
 1178 1100 1178 1100 1178 1072 c 0,17,18
 1178 1061 1178 1061 1163 1033 c 2,19,-1
 647 55 l 2,20,21
 618 0 618 0 560 0 c 2,22,-1
 334 0 l 2,0,1
EndSplineSet
Validated: 19457
EndChar

StartChar: y
Encoding: 121 121 157
Width: 1200
Flags: W
HStem: -420 240<37.2681 273.116> 1080 20G<135.5 322 961.5 1166.5>
DStem2: 490 238 108 1033 0.172234 -0.985056<-875.716 0> 355 0 541 -168 0.467989 0.883734<-214.579 0 273.507 1267.99>
LayerCount: 2
Fore
SplineSet
347 0 m 2,0,1
 289 0 289 0 279 55 c 2,2,-1
 108 1033 l 2,3,4
 105 1050 105 1050 105 1060 c 0,5,6
 105 1100 105 1100 166 1100 c 2,7,-1
 293 1100 l 2,8,9
 351 1100 351 1100 360 1046 c 2,10,-1
 490 238 l 1,11,-1
 904 1046 l 2,12,13
 932 1100 932 1100 991 1100 c 2,14,-1
 1142 1100 l 2,15,16
 1191 1100 1191 1100 1191 1073 c 0,17,18
 1191 1059 1191 1059 1177 1033 c 2,19,-1
 541 -168 l 2,20,21
 488 -268 488 -268 415 -324 c 0,22,23
 293 -420 293 -420 70 -420 c 0,24,25
 10 -420 10 -420 10 -371 c 0,26,27
 10 -362 10 -362 12 -351 c 2,28,-1
 30 -249 l 2,29,30
 42 -180 42 -180 112 -180 c 0,31,32
 210 -180 210 -180 249 -158 c 0,33,34
 274 -144 274 -144 286 -122 c 2,35,-1
 355 0 l 1,36,-1
 347 0 l 2,0,1
EndSplineSet
Validated: 19457
EndChar

StartChar: z
Encoding: 122 122 158
Width: 1200
Flags: W
HStem: 0 240<463 942.732> 860 240<297.268 736>
VStem: 78 892<19.4736 226.434>
DStem2: 140 247 463 240 0.697095 0.716979<220.143 854.977>
LayerCount: 2
Fore
SplineSet
138 0 m 2,0,1
 78 0 78 0 78 50 c 0,2,3
 78 59 78 59 80 69 c 2,4,-1
 98 171 l 2,5,6
 105 211 105 211 140 247 c 2,7,-1
 736 860 l 1,8,-1
 330 860 l 2,9,10
 270 860 270 860 270 910 c 0,11,12
 270 919 270 919 272 929 c 2,13,-1
 290 1031 l 2,14,15
 302 1100 302 1100 372 1100 c 2,16,-1
 1062 1100 l 2,17,18
 1122 1100 1122 1100 1122 1050 c 0,19,20
 1122 1041 1122 1041 1120 1031 c 2,21,-1
 1102 929 l 2,22,23
 1095 889 1095 889 1059 852 c 2,24,-1
 463 240 l 1,25,-1
 910 240 l 2,26,27
 970 240 970 240 970 190 c 0,28,29
 970 181 970 181 968 171 c 2,30,-1
 950 69 l 2,31,32
 938 0 938 0 868 0 c 2,33,-1
 138 0 l 2,0,1
EndSplineSet
Validated: 19457
EndChar

StartChar: n
Encoding: 110 110 159
Width: 1200
Flags: W
HStem: 0 21G<113.5 298.5 763.5 948.5> 880 240<533.907 809.287> 1080 20G<302 482>
VStem: 849 265<628.61 839.25>
DStem2: 73.8334 0 333.833 0 0.173648 0.984808<51.2831 913.833> 723.833 0 983.833 0 0.173648 0.984808<51.2831 743.968>
LayerCount: 2
Fore
SplineSet
143 0 m 2,0,1
 84 0 84 0 84 50 c 0,2,3
 84 59 84 59 86 69 c 2,4,-1
 255 1031 l 2,5,6
 267 1100 267 1100 337 1100 c 2,7,-1
 457 1100 l 2,8,9
 507 1100 507 1100 515 1065 c 1,10,11
 605 1120 605 1120 714 1120 c 0,12,13
 915 1120 915 1120 1017 1011 c 0,14,15
 1114 907 1114 907 1114 775 c 0,16,17
 1114 741 1114 741 1108 706 c 2,18,-1
 996 69 l 2,19,20
 984 0 984 0 913 0 c 2,21,-1
 793 0 l 2,22,23
 734 0 734 0 734 50 c 0,24,25
 734 59 734 59 736 69 c 2,26,-1
 845 692 l 2,27,28
 849 714 849 714 849 734 c 0,29,30
 849 792 849 792 816 830 c 0,31,32
 772 880 772 880 667 880 c 0,33,34
 546 880 546 880 476 809 c 1,35,-1
 346 69 l 2,36,37
 334 0 334 0 263 0 c 2,38,-1
 143 0 l 2,0,1
EndSplineSet
Validated: 19457
EndChar

StartChar: u
Encoding: 117 117 160
Width: 1200
Flags: W
HStem: -20 240<390.713 666.385> 0 21G<718 898> 1080 20G<251.5 436.5 901.5 1086.5>
VStem: 86 265<260.75 471.39>
DStem2: 19.0006 -20 279.532 -20 0.173648 0.984808<438.403 1131.09> 669.162 -20 929.307 -20 0.173648 0.984808<268.509 1131.06>
LayerCount: 2
Fore
SplineSet
743 0 m 2,0,1
 693 0 693 0 685 35 c 1,2,3
 598 -20 598 -20 486 -20 c 0,4,5
 285 -20 285 -20 183 89 c 0,6,7
 86 193 86 193 86 325 c 0,8,9
 86 359 86 359 92 394 c 2,10,-1
 204 1031 l 2,11,12
 216 1100 216 1100 287 1100 c 2,13,-1
 407 1100 l 2,14,15
 466 1100 466 1100 466 1050 c 0,16,17
 466 1041 466 1041 464 1031 c 2,18,-1
 355 408 l 2,19,20
 351 386 351 386 351 366 c 0,21,22
 351 308 351 308 384 270 c 0,23,24
 428 220 428 220 533 220 c 0,25,26
 654 220 654 220 724 291 c 1,27,-1
 854 1031 l 2,28,29
 866 1100 866 1100 937 1100 c 2,30,-1
 1057 1100 l 2,31,32
 1116 1100 1116 1100 1116 1050 c 0,33,34
 1116 1041 1116 1041 1114 1031 c 2,35,-1
 945 69 l 2,36,37
 933 0 933 0 863 0 c 2,38,-1
 743 0 l 2,0,1
EndSplineSet
Validated: 19457
EndChar

StartChar: h
Encoding: 104 104 161
Width: 1200
Flags: W
HStem: 0 21G<111 299 764 949> 880 240<534.543 809.287> 1480 20G<370.5 561>
VStem: 850 264<628.61 839.25>
DStem2: 73.7151 0 333.833 0 0.173648 0.984808<48.1448 913.854 1130.6 1521.14> 723.833 0 983.833 0 0.173648 0.984808<51.2831 744.141>
LayerCount: 2
Fore
SplineSet
139 0 m 2,0,1
 83 0 83 0 83 47 c 0,2,3
 83 55 83 55 85 64 c 2,4,-1
 327 1436 l 2,5,6
 338 1500 338 1500 403 1500 c 2,7,-1
 533 1500 l 2,8,9
 589 1500 589 1500 589 1454 c 0,10,11
 589 1446 589 1446 587 1436 c 2,12,-1
 522 1069 l 1,13,14
 613 1120 613 1120 714 1120 c 0,15,16
 915 1120 915 1120 1017 1011 c 0,17,18
 1114 907 1114 907 1114 775 c 0,19,20
 1114 741 1114 741 1108 706 c 2,21,-1
 996 69 l 2,22,23
 984 0 984 0 914 0 c 2,24,-1
 794 0 l 2,25,26
 734 0 734 0 734 50 c 0,27,28
 734 59 734 59 736 69 c 2,29,-1
 846 692 l 2,30,31
 850 714 850 714 850 734 c 0,32,33
 850 792 850 792 816 830 c 0,34,35
 772 880 772 880 667 880 c 0,36,37
 546 880 546 880 476 809 c 1,38,-1
 346 69 l 2,39,40
 334 0 334 0 264 0 c 2,41,-1
 139 0 l 2,0,1
EndSplineSet
Validated: 19457
EndChar

StartChar: m
Encoding: 109 109 162
Width: 1200
Flags: W
HStem: 0 21G<28 189 438 609 858 1019> 930 190<418.977 619 833.677 1031> 1080 20G<218 378>
VStem: 964 236<737.879 895.277>
DStem2: -9.28493 0 220.715 0 0.173648 0.984808<47.1602 984.643 1081.83 1110.81> 400.715 0 640.715 0 0.173648 0.984808<48.1448 845.409> 820.715 0 1050.72 0 0.173648 0.984808<48.1448 845.409>
LayerCount: 2
Fore
SplineSet
56 0 m 2,0,1
 0 0 0 0 -0 46 c 0,2,3
 0 54 0 54 2 64 c 2,4,-1
 174 1036 l 2,5,6
 186 1100 186 1100 250 1100 c 2,7,-1
 350 1100 l 2,8,9
 406 1100 406 1100 406 1055 c 0,10,11
 406 1046 406 1046 404 1036 c 2,12,-1
 402 1026 l 1,13,14
 474 1120 474 1120 574 1120 c 0,15,16
 664 1120 664 1120 708 1056 c 0,17,18
 724 1031 724 1031 738 991 c 1,19,20
 850 1120 850 1120 974 1120 c 0,21,22
 1088 1120 1088 1120 1146 1049 c 0,23,24
 1200 981 1200 981 1200 885 c 0,25,26
 1200 852 1200 852 1194 816 c 2,27,-1
 1062 64 l 2,28,29
 1052 0 1052 0 986 0 c 2,30,-1
 886 0 l 2,31,32
 830 0 830 0 830 47 c 0,33,34
 830 55 830 55 832 64 c 2,35,-1
 958 775 l 2,36,37
 964 808 964 808 964 834 c 0,38,39
 964 873 964 873 950 896 c 0,40,41
 930 930 930 930 884 930 c 0,42,43
 804 929 804 929 786 820 c 10,44,-1
 652 64 l 2,45,46
 642 0 642 0 576 0 c 2,47,-1
 466 0 l 2,48,49
 410 0 410 0 410 47 c 0,50,51
 410 55 410 55 412 64 c 2,52,-1
 538 775 l 2,53,54
 544 808 544 808 544 834 c 0,55,56
 544 874 544 874 530 897 c 0,57,58
 510 930 510 930 464 930 c 0,59,60
 384 929 384 929 366 820 c 2,61,-1
 232 64 l 2,62,63
 222 0 222 0 156 0 c 2,64,-1
 56 0 l 2,0,1
EndSplineSet
Validated: 19457
EndChar

StartChar: r
Encoding: 114 114 163
Width: 1200
Flags: W
HStem: 0 21G<180 365> 880 240<602.979 876.41> 1080 20G<369 549>
DStem2: 139.833 0 399.833 0 0.173648 0.984808<50.2985 913.912>
LayerCount: 2
Fore
SplineSet
210 0 m 2,0,1
 150 0 150 0 150 49 c 0,2,3
 150 58 150 58 152 69 c 2,4,-1
 322 1031 l 2,5,6
 334 1100 334 1100 404 1100 c 2,7,-1
 524 1100 l 2,8,9
 574 1100 574 1100 582 1065 c 1,10,11
 681 1120 681 1120 800 1120 c 0,12,13
 1035 1120 1035 1120 1129 974 c 0,14,15
 1138 960 1138 960 1138 942 c 0,16,17
 1138 903 1138 903 1091 876 c 2,18,-1
 976 810 l 2,19,20
 952 796 952 796 934 796 c 0,21,22
 918 796 918 796 883 830 c 0,23,24
 830 880 830 880 733 880 c 0,25,26
 612 880 612 880 543 809 c 1,27,-1
 412 69 l 2,28,29
 400 0 400 0 330 0 c 2,30,-1
 210 0 l 2,0,1
EndSplineSet
Validated: 19457
EndChar

StartChar: x
Encoding: 120 120 164
Width: 1200
Flags: W
HStem: 0 21G<32 238.5 801 980.5> 1080 20G<219.5 400 959.5 1167>
DStem2: 29 69 315 54 0.658559 0.752529<67.2822 577.901 898.859 1409.02> 618 748 200 1031 0.486478 -0.873693<-427.208 0 327.595 753.938>
LayerCount: 2
Fore
SplineSet
54 0 m 2,0,1
 10 0 10 0 10 33 c 0,2,3
 10 48 10 48 29 69 c 2,4,-1
 459 551 l 1,5,-1
 200 1031 l 2,6,7
 189 1051 189 1051 189 1066 c 0,8,9
 189 1100 189 1100 250 1100 c 2,10,-1
 372 1100 l 2,11,12
 428 1100 428 1100 457 1046 c 2,13,-1
 618 748 l 1,14,-1
 883 1046 l 2,15,16
 931 1100 931 1100 988 1100 c 2,17,-1
 1144 1100 l 2,18,19
 1190 1100 1190 1100 1190 1069 c 0,20,21
 1190 1053 1190 1053 1170 1031 c 2,22,-1
 741 551 l 1,23,-1
 1001 69 l 2,24,25
 1009 55 1009 55 1009 42 c 0,26,27
 1009 0 1009 0 952 0 c 2,28,-1
 830 0 l 2,29,30
 772 0 772 0 743 54 c 2,31,-1
 582 353 l 1,32,-1
 315 54 l 2,33,34
 267 0 267 0 210 0 c 2,35,-1
 54 0 l 2,0,1
EndSplineSet
Validated: 19457
EndChar

StartChar: k
Encoding: 107 107 165
Width: 1200
Flags: W
HStem: 0 21G<138 328.5 732.5 946.5> 1080 20G<905 1121.5> 1480 20G<397.5 588>
DStem2: 100.715 0 360.715 0 0.173648 0.984808<48.1448 356.911 746.712 1521.14> 482 691 733 636 0.695636 0.718395<135.093 612.946> 733 636 533 426 0.377502 -0.926009<118.961 596.978>
LayerCount: 2
Fore
SplineSet
166 0 m 2,0,1
 110 0 110 0 110 47 c 0,2,3
 110 55 110 55 112 64 c 2,4,-1
 354 1436 l 2,5,6
 365 1500 365 1500 430 1500 c 2,7,-1
 560 1500 l 2,8,9
 616 1500 616 1500 616 1454 c 0,10,11
 616 1446 616 1446 614 1436 c 2,12,-1
 482 691 l 1,13,-1
 829 1048 l 2,14,15
 880 1100 880 1100 930 1100 c 2,16,-1
 1102 1100 l 2,17,18
 1141 1100 1141 1100 1141 1074 c 0,19,20
 1141 1057 1141 1057 1118 1033 c 2,21,-1
 733 636 l 1,22,-1
 967 62 l 2,23,24
 974 45 974 45 974 36 c 0,25,26
 974 0 974 0 919 0 c 2,27,-1
 762 0 l 2,28,29
 703 0 703 0 683 51 c 2,30,-1
 533 426 l 1,31,-1
 415 307 l 1,32,-1
 372 64 l 2,33,34
 361 0 361 0 296 0 c 2,35,-1
 166 0 l 2,0,1
EndSplineSet
Validated: 19457
EndChar

StartChar: w
Encoding: 119 119 166
Width: 1200
Flags: W
HStem: 0 21G<71 321 547.5 796.5> 1080 20G<82 244 1003.5 1171>
VStem: 40 207<280 597.922> 47 234<716.078 1096.37>
DStem2: 247 280 373 69 0.260654 0.965432<0 619.456>
LayerCount: 2
Fore
SplineSet
102 0 m 2,0,1
 40 0 40 0 40 69 c 9,2,-1
 47 1031 l 2,3,4
 47 1053 47 1053 49 1062 c 0,5,6
 56 1100 56 1100 108 1100 c 2,7,-1
 207 1100 l 2,8,9
 281 1100 281 1100 281 1034 c 9,10,-1
 247 280 l 1,11,-1
 429 964 l 2,12,13
 447 1032 447 1032 515 1032 c 2,14,-1
 709 1032 l 2,15,16
 770 1032 770 1032 770 974 c 0,17,18
 770 969 770 969 770 963 c 2,19,-1
 712 280 l 1,20,-1
 946 1038 l 2,21,22
 965 1100 965 1100 1042 1100 c 2,23,-1
 1148 1100 l 2,24,25
 1194 1100 1194 1100 1194 1068 c 0,26,27
 1194 1057 1194 1057 1185 1031 c 2,28,-1
 851 69 l 2,29,30
 827 0 827 0 766 0 c 2,31,-1
 578 0 l 2,32,33
 517 0 517 0 517 59 c 0,34,35
 517 64 517 64 517 69 c 2,36,-1
 579 832 l 1,37,-1
 373 69 l 2,38,39
 354 0 354 0 288 0 c 2,40,-1
 102 0 l 2,0,1
EndSplineSet
Validated: 19457
EndChar

StartChar: Thorn
Encoding: 222 222 167
Width: 1200
Flags: W
HStem: 0 21G<85 280> 246 250<403 722.516> 1003 250<536 793.917> 1480 20G<342 542.5>
VStem: 860 278<642.347 938.636>
DStem2: 44.8334 0 314.833 0 0.173648 0.984808<51.2831 296.644 550.66 1065.41 1319.25 1522.86>
LayerCount: 2
Fore
SplineSet
115 0 m 2,0,1
 55 0 55 0 55 50 c 0,2,3
 55 59 55 59 57 69 c 2,4,-1
 298 1436 l 2,5,6
 309 1500 309 1500 375 1500 c 2,7,-1
 515 1500 l 2,8,9
 570 1500 570 1500 570 1454 c 0,10,11
 570 1446 570 1446 568 1436 c 2,12,-1
 536 1253 l 9,13,-1
 674 1253 l 2,14,15
 915 1253 915 1253 1041 1097 c 0,16,17
 1138 977 1138 977 1138 812 c 0,18,19
 1138 782 1138 782 1135 750 c 0,20,21
 1113 537 1113 537 959 402 c 0,22,23
 781 246 781 246 536 246 c 2,24,-1
 358 246 l 1,25,-1
 327 69 l 2,26,27
 315 0 315 0 245 0 c 2,28,-1
 115 0 l 2,0,1
492 1003 m 1,29,-1
 403 496 l 1,30,-1
 581 496 l 2,31,32
 688 496 688 496 766 577 c 0,33,34
 838 651 838 651 855 749 c 0,35,36
 860 778 860 778 860 804 c 0,37,38
 860 872 860 872 827 923 c 0,39,40
 775 1003 775 1003 670 1003 c 2,41,-1
 492 1003 l 1,29,-1
EndSplineSet
Validated: 19457
EndChar

StartChar: thorn
Encoding: 254 254 168
Width: 1200
Flags: W
HStem: -400 21G<81.5 272> -20 247<444.651 713.93> 875 245<567.9 808.61> 1480 20G<411.5 602>
VStem: 883 256<430.059 798.406>
DStem2: 44.7151 -400 304.715 -400 0.173648 0.984808<47.1602 478.735 716.998 1320.25 1540.79 1926.24>
LayerCount: 2
Fore
SplineSet
563 -20 m 0,0,1
 451 -20 451 -20 380 27 c 1,2,-1
 316 -336 l 2,3,4
 305 -400 305 -400 239 -400 c 2,5,-1
 109 -400 l 2,6,7
 54 -400 54 -400 54 -354 c 0,8,9
 54 -346 54 -346 56 -336 c 2,10,-1
 368 1436 l 2,11,12
 379 1500 379 1500 444 1500 c 2,13,-1
 574 1500 l 2,14,15
 630 1500 630 1500 630 1453 c 0,16,17
 630 1445 630 1445 628 1436 c 2,18,-1
 564 1073 l 1,19,20
 635 1120 635 1120 735 1120 c 0,21,22
 925 1120 925 1120 1032 977 c 128,-1,23
 1139 834 1139 834 1139 635 c 0,24,25
 1139 593 1139 593 1134 550 c 0,26,27
 1105 281 1105 281 922 124 c 0,28,29
 754 -20 754 -20 563 -20 c 0,0,1
427 293 m 1,30,31
 470 227 470 227 562 227 c 0,32,33
 667 227 667 227 747 296 c 0,34,35
 844 380 844 380 874 548 c 0,36,37
 883 601 883 601 883 646 c 0,38,39
 883 743 883 743 839 800 c 0,40,41
 779 875 779 875 675 875 c 0,42,43
 582 875 582 875 517 806 c 1,44,-1
 427 293 l 1,30,31
EndSplineSet
Validated: 19457
EndChar

StartChar: uni203D
Encoding: 8253 8253 169
Width: 1200
Flags: W
HStem: -20 354<234.699 472.766> 1270 250<392.386 728.467>
VStem: 174 358<39.6123 273.708> 796 270<957.21 1204.16>
DStem2: 228.095 -20 407.528 -20 0.173648 0.984808<851.623 1158.74>
LayerCount: 2
Fore
SplineSet
353 -20 m 0,0,1
 279 -20 279 -20 228 29 c 0,2,3
 174 81 174 81 174 157 c 128,-1,4
 174 233 174 233 228 284 c 0,5,6
 281 334 281 334 353 334 c 0,7,8
 430 334 430 334 479 284 c 0,9,10
 532 230 532 230 532 157 c 0,11,12
 532 80 532 80 480 30 c 128,-1,13
 428 -20 428 -20 353 -20 c 0,0,1
596 1520 m 0,14,15
 848 1520 848 1520 968 1366 c 0,16,17
 1066 1239 1066 1239 1066 1093 c 0,18,19
 1066 1071 1066 1071 1064 1049 c 0,20,21
 1048 893 1048 893 940 795 c 0,22,23
 850 713 850 713 728 646 c 0,24,25
 618 585 618 585 594 565 c 0,26,27
 552 530 552 530 548 500 c 0,28,29
 544 468 544 468 522 453 c 0,30,31
 506 440 506 440 474 440 c 2,32,-1
 334 440 l 2,33,34
 274 440 274 440 274 472 c 0,35,36
 274 480 274 480 276 494 c 0,37,38
 292 578 292 578 345 643 c 1,39,-1
 421 1076 l 2,40,41
 430 1125 430 1125 480 1125 c 2,42,-1
 560 1125 l 2,43,44
 602 1125 602 1125 602 1091 c 0,45,46
 602 1081 602 1081 601 1076 c 2,47,-1
 550 788 l 1,48,49
 768 912 768 912 792 1051 c 0,50,51
 796 1072 796 1072 796 1092 c 0,52,53
 796 1149 796 1149 764 1191 c 0,54,55
 704 1270 704 1270 574 1270 c 0,56,57
 436 1270 436 1270 352 1198 c 0,58,59
 314 1166 314 1166 288 1166 c 0,60,61
 268 1166 268 1166 252 1178 c 2,62,-1
 162 1243 l 2,63,64
 134 1263 134 1263 134 1290 c 0,65,66
 134 1318 134 1318 160 1341 c 0,67,68
 354 1520 354 1520 596 1520 c 0,14,15
EndSplineSet
Validated: 19457
EndChar

StartChar: uni1E02
Encoding: 7682 7682 170
Width: 1200
Flags: W
HStem: 0 250<368 698.094> 701 250<491 766.143> 1250 250<544 813.678> 1590 364<663.131 897.338>
VStem: 601 360<1654.3 1891.73> 831 267<372.672 638.582> 850 272<1013.71 1216.12>
DStem2: 63.8334 0 323.918 0 0.173648 0.984808<299.02 756.886 1010.73 1314.39>
LayerCount: 2
Fore
SplineSet
781 1954 m 0,0,1
 857 1954 857 1954 909 1901 c 128,-1,2
 961 1848 961 1848 961 1773 c 0,3,4
 961 1699 961 1699 908 1644 c 0,5,6
 856 1590 856 1590 781 1590 c 0,7,8
 704 1590 704 1590 652.5 1644 c 128,-1,9
 601 1698 601 1698 601 1772 c 0,10,11
 601 1848 601 1848 653 1900 c 0,12,13
 706 1954 706 1954 781 1954 c 0,0,1
544 1250 m 1,14,-1
 491 951 l 1,15,-1
 641 951 l 2,16,17
 720 951 720 951 775 987 c 0,18,19
 837 1028 837 1028 848 1100 c 0,20,21
 850 1113 850 1113 850 1130 c 0,22,23
 850 1182 850 1182 815 1214 c 0,24,25
 773 1250 773 1250 694 1250 c 2,26,-1
 544 1250 l 1,14,-1
368 250 m 1,27,-1
 518 250 l 2,28,29
 659 250 659 250 744 325 c 0,30,31
 811 382 811 382 827 474 c 0,32,33
 831 498 831 498 831 520 c 0,34,35
 831 581 831 581 798 625 c 0,36,37
 740 701 740 701 597 701 c 2,38,-1
 447 701 l 1,39,-1
 368 250 l 1,27,-1
134 0 m 2,40,41
 74 0 74 0 74 50 c 0,42,43
 74 59 74 59 76 69 c 2,44,-1
 316 1431 l 2,45,46
 328 1500 328 1500 398 1500 c 2,47,-1
 718 1500 l 2,48,49
 918 1500 918 1500 1022 1391 c 0,50,51
 1122 1287 1122 1287 1122 1155 c 0,52,53
 1122 1138 1122 1138 1120 1120 c 0,54,55
 1104 951 1104 951 941 836 c 1,56,57
 984 796 984 796 1001 774 c 0,58,59
 1098 660 1098 660 1098 511 c 0,60,61
 1098 491 1098 491 1096 470 c 0,62,63
 1079 264 1079 264 920 139 c 0,64,65
 743 0 743 0 494 0 c 2,66,-1
 134 0 l 2,40,41
EndSplineSet
Validated: 19457
EndChar

StartChar: uni1E03
Encoding: 7683 7683 171
Width: 1200
Flags: W
HStem: -20 245<390.855 654.365> 0 21G<97.5 281> 873 247<514.512 757.849> 1180 364<747.131 981.338> 1480 20G<357.5 548>
VStem: 685 360<1244.3 1481.73> 829 255<435.028 800.335>
DStem2: 57.1885 -20 316.633 -20 0.173648 0.984808<329.097 932.127 1155.02 1540.47>
LayerCount: 2
Fore
SplineSet
865 1544 m 0,0,1
 941 1544 941 1544 993 1491 c 128,-1,2
 1045 1438 1045 1438 1045 1363 c 0,3,4
 1045 1289 1045 1289 992 1234 c 0,5,6
 940 1180 940 1180 865 1180 c 0,7,8
 788 1180 788 1180 736.5 1234 c 128,-1,9
 685 1288 685 1288 685 1362 c 0,10,11
 685 1438 685 1438 737 1490 c 0,12,13
 790 1544 790 1544 865 1544 c 0,0,1
125 0 m 2,14,15
 70 0 70 0 70 46 c 0,16,17
 70 54 70 54 72 64 c 2,18,-1
 314 1436 l 2,19,20
 325 1500 325 1500 390 1500 c 2,21,-1
 520 1500 l 2,22,23
 576 1500 576 1500 576 1453 c 0,24,25
 576 1445 576 1445 574 1436 c 2,26,-1
 510 1073 l 1,27,28
 586 1120 586 1120 680 1120 c 0,29,30
 868 1120 868 1120 977 985 c 0,31,32
 1084 853 1084 853 1084 642 c 0,33,34
 1084 598 1084 598 1079 550 c 0,35,36
 1054 295 1054 295 867 123 c 0,37,38
 711 -20 711 -20 509 -20 c 0,39,40
 389 -20 389 -20 313 36 c 1,41,42
 307 0 307 0 255 0 c 2,43,-1
 125 0 l 2,14,15
463 807 m 1,44,-1
 372 294 l 1,45,46
 413 225 413 225 506 225 c 0,47,48
 610 225 610 225 696 300 c 0,49,50
 789 384 789 384 819 552 c 0,51,52
 828 604 828 604 829 647 c 0,53,54
 829 746 829 746 782 804 c 0,55,56
 726 873 726 873 621 873 c 0,57,58
 530 873 530 873 463 807 c 1,44,-1
EndSplineSet
Validated: 19457
EndChar

StartChar: uni1E0A
Encoding: 7690 7690 172
Width: 1200
Flags: W
HStem: 0 250<324 648.754> 1250 250<500 811.828> 1590 364<654.131 888.338>
VStem: 592 360<1654.3 1891.73> 914 266<629.181 1130.39>
DStem2: 9.83344 0 279.918 0 0.173648 0.984808<300.756 1316.13>
LayerCount: 2
Fore
SplineSet
772 1954 m 0,0,1
 848 1954 848 1954 900 1901 c 128,-1,2
 952 1848 952 1848 952 1773 c 0,3,4
 952 1699 952 1699 899 1644 c 0,5,6
 847 1590 847 1590 772 1590 c 0,7,8
 695 1590 695 1590 643.5 1644 c 128,-1,9
 592 1698 592 1698 592 1772 c 0,10,11
 592 1848 592 1848 644 1900 c 0,12,13
 697 1954 697 1954 772 1954 c 0,0,1
80 0 m 2,14,15
 20 0 20 0 20 50 c 0,16,17
 20 59 20 59 22 69 c 2,18,-1
 262 1431 l 2,19,20
 274 1500 274 1500 344 1500 c 2,21,-1
 720 1500 l 2,22,23
 978 1500 978 1500 1096 1267 c 0,24,25
 1180 1098 1180 1098 1180 887 c 0,26,27
 1180 820 1180 820 1172 750 c 0,28,29
 1140 481 1140 481 996 292 c 0,30,31
 776 0 776 0 496 0 c 2,32,-1
 80 0 l 2,14,15
520 250 m 10,33,34
 636 250 636 250 748 386 c 0,35,36
 858 522 858 522 898 752 c 0,37,38
 914 835 914 835 914 909 c 0,39,40
 914 1025 914 1025 876 1116 c 0,41,42
 822 1250 822 1250 696 1250 c 18,43,-1
 500 1250 l 1,44,-1
 324 250 l 1,45,-1
 520 250 l 10,33,34
EndSplineSet
Validated: 19457
EndChar

StartChar: uni1E0B
Encoding: 7691 7691 173
Width: 1200
Flags: W
HStem: -20 245<399.125 638.258> 0 21G<681.5 866.5> 873 247<494.302 763.349> 1180 364<468.131 702.338> 1480 20G<936 1126.5>
VStem: 70 255<303.139 669.03> 406 360<1244.3 1481.73>
DStem2: 635.633 -20 895.189 -20 0.173648 0.984808<268.287 871.535 1109.8 1541.37>
LayerCount: 2
Fore
SplineSet
586 1544 m 0,0,1
 662 1544 662 1544 714 1491 c 128,-1,2
 766 1438 766 1438 766 1363 c 0,3,4
 766 1289 766 1289 713 1234 c 0,5,6
 661 1180 661 1180 586 1180 c 0,7,8
 509 1180 509 1180 457.5 1234 c 128,-1,9
 406 1288 406 1288 406 1362 c 0,10,11
 406 1438 406 1438 458 1490 c 0,12,13
 511 1544 511 1544 586 1544 c 0,0,1
834 0 m 2,14,-1
 704 0 l 2,15,16
 659 0 659 0 659 36 c 1,17,18
 563 -20 563 -20 484 -20 c 0,19,20
 278 -20 278 -20 173 120 c 0,21,22
 70 257 70 257 70 468 c 0,23,24
 70 508 70 508 74 550 c 0,25,26
 97 816 97 816 283 979 c 0,27,28
 444 1120 444 1120 645 1120 c 0,29,30
 757 1120 757 1120 828 1073 c 1,31,-1
 892 1436 l 2,32,33
 903 1500 903 1500 969 1500 c 2,34,-1
 1099 1500 l 2,35,36
 1154 1500 1154 1500 1154 1454 c 0,37,38
 1154 1446 1154 1446 1152 1436 c 2,39,-1
 910 64 l 2,40,41
 899 0 899 0 834 0 c 2,14,-1
781 807 m 1,42,43
 738 873 738 873 646 873 c 0,44,45
 541 873 541 873 461 804 c 0,46,47
 364 720 364 720 334 552 c 0,48,49
 325 499 325 499 325 454 c 0,50,51
 325 357 325 357 369 300 c 0,52,53
 429 225 429 225 533 225 c 0,54,55
 626 225 626 225 691 294 c 1,56,-1
 781 807 l 1,42,43
EndSplineSet
Validated: 19457
EndChar

StartChar: uni1E1E
Encoding: 7710 7710 174
Width: 1200
Flags: W
HStem: 0 21G<100 295> 630 250<485 877.337> 1250 250<550 1152.34> 1590 364<683.131 917.338>
VStem: 621 360<1654.3 1891.73>
DStem2: 59.8334 0 329.833 0 0.173648 0.984808<51.2831 686.618 940.46 1316.13>
LayerCount: 2
Fore
SplineSet
801 1954 m 0,0,1
 877 1954 877 1954 929 1901 c 128,-1,2
 981 1848 981 1848 981 1773 c 0,3,4
 981 1699 981 1699 928 1644 c 0,5,6
 876 1590 876 1590 801 1590 c 0,7,8
 724 1590 724 1590 672.5 1644 c 128,-1,9
 621 1698 621 1698 621 1772 c 0,10,11
 621 1848 621 1848 673 1900 c 0,12,13
 726 1954 726 1954 801 1954 c 0,0,1
260 0 m 2,14,-1
 130 0 l 2,15,16
 70 0 70 0 70 50 c 0,17,18
 70 59 70 59 72 69 c 2,19,-1
 312 1431 l 2,20,21
 324 1500 324 1500 394 1500 c 2,22,-1
 1122 1500 l 2,23,24
 1182 1500 1182 1500 1182 1450 c 0,25,26
 1182 1441 1182 1441 1180 1431 c 2,27,-1
 1160 1319 l 2,28,29
 1148 1250 1148 1250 1078 1250 c 2,30,-1
 550 1250 l 1,31,-1
 485 880 l 1,32,-1
 847 880 l 2,33,34
 907 880 907 880 907 830 c 0,35,36
 907 821 907 821 905 811 c 2,37,-1
 885 699 l 2,38,39
 873 630 873 630 803 630 c 2,40,-1
 441 630 l 1,41,-1
 342 69 l 2,42,43
 330 0 330 0 260 0 c 2,14,-1
EndSplineSet
Validated: 19457
EndChar

StartChar: uni1E1F
Encoding: 7711 7711 175
Width: 1200
Flags: W
HStem: 0 21G<286 471> 695 240<76.2681 369 671 961.732> 1260 240<812.222 1124.53> 1590 364<752.131 986.338>
VStem: 49 940<714.474 915.526> 690 360<1654.3 1891.73>
DStem2: 245.833 0 505.833 0 0.173648 0.984808<51.2831 705.829 994.625 1245.42>
LayerCount: 2
Fore
SplineSet
870 1954 m 0,0,1
 946 1954 946 1954 998 1901 c 128,-1,2
 1050 1848 1050 1848 1050 1773 c 0,3,4
 1050 1699 1050 1699 997 1644 c 0,5,6
 945 1590 945 1590 870 1590 c 0,7,8
 793 1590 793 1590 741.5 1644 c 128,-1,9
 690 1698 690 1698 690 1772 c 0,10,11
 690 1848 690 1848 742 1900 c 0,12,13
 795 1954 795 1954 870 1954 c 0,0,1
316 0 m 2,14,15
 256 0 256 0 256 50 c 0,16,17
 256 59 256 59 258 69 c 2,18,-1
 369 695 l 1,19,-1
 109 695 l 2,20,21
 49 695 49 695 49 745 c 0,22,23
 49 754 49 754 51 764 c 2,24,-1
 69 866 l 2,25,26
 81 935 81 935 151 935 c 2,27,-1
 411 935 l 1,28,-1
 428 1032 l 2,29,30
 468 1257 468 1257 590 1364 c 0,31,32
 744 1500 744 1500 991 1500 c 2,33,-1
 1095 1500 l 2,34,35
 1151 1500 1151 1500 1151 1453 c 0,36,37
 1151 1445 1151 1445 1149 1436 c 2,38,-1
 1130 1324 l 2,39,40
 1119 1260 1119 1260 1052 1260 c 2,41,-1
 968 1260 l 2,42,43
 861 1260 861 1260 785 1199 c 0,44,45
 708 1139 708 1139 688 1029 c 2,46,-1
 671 935 l 1,47,-1
 929 935 l 2,48,49
 989 935 989 935 989 885 c 0,50,51
 989 876 989 876 987 866 c 2,52,-1
 969 764 l 2,53,54
 957 695 957 695 887 695 c 2,55,-1
 629 695 l 1,56,-1
 518 69 l 2,57,58
 506 0 506 0 436 0 c 2,59,-1
 316 0 l 2,14,15
EndSplineSet
Validated: 19457
EndChar

StartChar: uni1E40
Encoding: 7744 7744 176
Width: 1200
Flags: W
HStem: 0 21G<28 193 748 913> 1480 20G<287 592.5 871.5 1172> 1590 364<662.131 896.338>
VStem: 438 168<818 1220> 443 180<914.061 1220> 600 360<1654.3 1891.73>
DStem2: -12.1666 0 227.833 0 0.173648 0.984808<51.2528 1280.5> 606 818 684 537 0.330289 0.94388<0 484.141> 707.833 0 947.833 0 0.173648 0.984808<51.2528 1238.83>
LayerCount: 2
Fore
SplineSet
58 0 m 2,0,1
 -2 0 -2 0 -2 50 c 0,2,3
 -2 58 -2 58 -0 69 c 2,4,-1
 240 1431 l 2,5,6
 252 1500 252 1500 322 1500 c 2,7,-1
 562 1500 l 2,8,9
 623 1500 623 1500 623 1441 c 0,10,11
 623 1436 623 1436 623 1431 c 2,12,-1
 606 818 l 1,13,-1
 817 1431 l 2,14,15
 841 1500 841 1500 902 1500 c 2,16,-1
 1142 1500 l 2,17,18
 1202 1500 1202 1500 1202 1450 c 0,19,20
 1202 1442 1202 1442 1200 1431 c 2,21,-1
 960 69 l 2,22,23
 948 0 948 0 878 0 c 2,24,-1
 778 0 l 2,25,26
 718 0 718 0 718 50 c 0,27,28
 718 58 718 58 720 69 c 2,29,-1
 923 1220 l 1,30,-1
 684 537 l 2,31,32
 660 468 660 468 599 468 c 2,33,-1
 499 468 l 2,34,35
 438 468 438 468 438 529 c 0,36,37
 438 532 438 532 438 536 c 2,38,-1
 443 1220 l 1,39,-1
 240 69 l 2,40,41
 228 0 228 0 158 0 c 2,42,-1
 58 0 l 2,0,1
780 1954 m 0,43,44
 856 1954 856 1954 908 1901 c 128,-1,45
 960 1848 960 1848 960 1773 c 0,46,47
 960 1699 960 1699 907 1644 c 0,48,49
 855 1590 855 1590 780 1590 c 0,50,51
 703 1590 703 1590 651.5 1644 c 128,-1,52
 600 1698 600 1698 600 1772 c 0,53,54
 600 1848 600 1848 652 1900 c 0,55,56
 705 1954 705 1954 780 1954 c 0,43,44
EndSplineSet
Validated: 1
EndChar

StartChar: uni1E41
Encoding: 7745 7745 177
Width: 1200
Flags: W
HStem: 0 21G<28 189 438 609 858 1019> 930 190<418.977 619 833.677 1031> 1080 20G<218 378> 1180 364<642.131 876.338>
VStem: 580 360<1244.3 1481.73> 964 236<737.879 895.277>
DStem2: -9.28493 0 220.715 0 0.173648 0.984808<47.1602 984.643 1081.83 1110.81> 400.715 0 640.715 0 0.173648 0.984808<48.1448 845.409> 820.715 0 1050.72 0 0.173648 0.984808<48.1448 845.409>
LayerCount: 2
Fore
SplineSet
760 1544 m 0,0,1
 836 1544 836 1544 888 1491 c 128,-1,2
 940 1438 940 1438 940 1363 c 0,3,4
 940 1289 940 1289 887 1234 c 0,5,6
 835 1180 835 1180 760 1180 c 0,7,8
 683 1180 683 1180 631.5 1234 c 128,-1,9
 580 1288 580 1288 580 1362 c 0,10,11
 580 1438 580 1438 632 1490 c 0,12,13
 685 1544 685 1544 760 1544 c 0,0,1
56 0 m 2,14,15
 0 0 0 0 -0 46 c 0,16,17
 0 54 0 54 2 64 c 2,18,-1
 174 1036 l 2,19,20
 186 1100 186 1100 250 1100 c 2,21,-1
 350 1100 l 2,22,23
 406 1100 406 1100 406 1055 c 0,24,25
 406 1046 406 1046 404 1036 c 2,26,-1
 402 1026 l 1,27,28
 474 1120 474 1120 574 1120 c 0,29,30
 664 1120 664 1120 708 1056 c 0,31,32
 724 1031 724 1031 738 991 c 1,33,34
 850 1120 850 1120 974 1120 c 0,35,36
 1088 1120 1088 1120 1146 1049 c 0,37,38
 1200 981 1200 981 1200 885 c 0,39,40
 1200 852 1200 852 1194 816 c 2,41,-1
 1062 64 l 2,42,43
 1052 0 1052 0 986 0 c 2,44,-1
 886 0 l 2,45,46
 830 0 830 0 830 47 c 0,47,48
 830 55 830 55 832 64 c 2,49,-1
 958 775 l 2,50,51
 964 808 964 808 964 834 c 0,52,53
 964 873 964 873 950 896 c 0,54,55
 930 930 930 930 884 930 c 0,56,57
 804 929 804 929 786 820 c 10,58,-1
 652 64 l 2,59,60
 642 0 642 0 576 0 c 2,61,-1
 466 0 l 2,62,63
 410 0 410 0 410 47 c 0,64,65
 410 55 410 55 412 64 c 2,66,-1
 538 775 l 2,67,68
 544 808 544 808 544 834 c 0,69,70
 544 874 544 874 530 897 c 0,71,72
 510 930 510 930 464 930 c 0,73,74
 384 929 384 929 366 820 c 2,75,-1
 232 64 l 2,76,77
 222 0 222 0 156 0 c 2,78,-1
 56 0 l 2,14,15
EndSplineSet
Validated: 19457
EndChar

StartChar: uni1E56
Encoding: 7766 7766 178
Width: 1200
Flags: W
HStem: 0 21G<63.5 258.5> 493 250<424 744.056> 1250 250<514 816.698> 1590 364<623.131 857.338>
VStem: 561 360<1654.3 1891.73> 882 277<889.227 1184.26>
DStem2: 23.8334 0 293.833 0 0.173648 0.984808<51.2831 547.358 801.2 1316.13>
LayerCount: 2
Fore
SplineSet
741 1954 m 0,0,1
 817 1954 817 1954 869 1901 c 128,-1,2
 921 1848 921 1848 921 1773 c 0,3,4
 921 1699 921 1699 868 1644 c 0,5,6
 816 1590 816 1590 741 1590 c 0,7,8
 664 1590 664 1590 612.5 1644 c 128,-1,9
 561 1698 561 1698 561 1772 c 0,10,11
 561 1848 561 1848 613 1900 c 0,12,13
 666 1954 666 1954 741 1954 c 0,0,1
93 0 m 2,14,15
 34 0 34 0 34 50 c 0,16,17
 34 59 34 59 36 69 c 2,18,-1
 276 1431 l 2,19,20
 288 1500 288 1500 358 1500 c 2,21,-1
 696 1500 l 2,22,23
 939 1500 939 1500 1063 1344 c 0,24,25
 1159 1223 1159 1223 1159 1050 c 0,26,27
 1158 1024 1158 1024 1156 996 c 0,28,29
 1140 788 1140 788 981 649 c 0,30,31
 802 493 802 493 558 493 c 2,32,-1
 380 493 l 1,33,-1
 306 69 l 2,34,35
 294 0 294 0 223 0 c 2,36,-1
 93 0 l 2,14,15
514 1250 m 1,37,-1
 424 743 l 1,38,-1
 602 743 l 2,39,40
 709 743 709 743 788 824 c 0,41,42
 860 898 860 898 877 996 c 0,43,44
 882 1025 882 1025 882 1051 c 0,45,46
 882 1119 882 1119 849 1170 c 0,47,48
 797 1250 797 1250 692 1250 c 2,49,-1
 514 1250 l 1,37,-1
EndSplineSet
Validated: 19457
EndChar

StartChar: uni1E57
Encoding: 7767 7767 179
Width: 1200
Flags: W
HStem: -400 21G<73.5 264> -20 247<436.651 705.06> 875 245<559.109 800.842> 1080 20G<333.5 518.5> 1180 364<662.131 896.338>
VStem: 600 360<1244.3 1481.73> 875 256<427.382 799.559>
DStem2: 36.7151 -400 296.715 -400 0.173648 0.984808<47.1602 478.735 716.998 1320.25>
LayerCount: 2
Fore
SplineSet
780 1544 m 0,0,1
 856 1544 856 1544 908 1491 c 128,-1,2
 960 1438 960 1438 960 1363 c 0,3,4
 960 1289 960 1289 907 1234 c 0,5,6
 855 1180 855 1180 780 1180 c 0,7,8
 703 1180 703 1180 651.5 1234 c 128,-1,9
 600 1288 600 1288 600 1362 c 0,10,11
 600 1438 600 1438 652 1490 c 0,12,13
 705 1544 705 1544 780 1544 c 0,0,1
555 -20 m 0,14,15
 443 -20 443 -20 372 27 c 1,16,-1
 308 -336 l 2,17,18
 297 -400 297 -400 231 -400 c 2,19,-1
 101 -400 l 2,20,21
 46 -400 46 -400 46 -354 c 0,22,23
 46 -346 46 -346 48 -336 c 2,24,-1
 290 1036 l 2,25,26
 301 1100 301 1100 366 1100 c 2,27,-1
 496 1100 l 2,28,29
 541 1100 541 1100 541 1064 c 1,30,31
 621 1120 621 1120 733 1120 c 0,32,33
 923 1120 923 1120 1027 981 c 128,-1,34
 1131 842 1131 842 1131 641 c 0,35,36
 1131 597 1131 597 1126 550 c 0,37,38
 1096 274 1096 274 918 121 c 0,39,40
 753 -20 753 -20 555 -20 c 0,14,15
419 293 m 1,41,42
 462 227 462 227 554 227 c 0,43,44
 659 227 659 227 739 296 c 0,45,46
 836 380 836 380 866 548 c 0,47,48
 875 601 875 601 875 646 c 0,49,50
 875 743 875 743 831 800 c 0,51,52
 771 875 771 875 667 875 c 0,53,54
 574 875 574 875 509 806 c 1,55,-1
 419 293 l 1,41,42
EndSplineSet
Validated: 19457
EndChar

StartChar: uni1E60
Encoding: 7776 7776 180
Width: 1200
Flags: W
HStem: -20 250<380.526 697.824> 1270 250<654.597 861.86> 1590 364<738.131 972.338>
VStem: 342 267<1030.02 1228.75> 676 360<1654.3 1891.73> 836 277<357.984 589.94>
DStem2: 730 970 543 750 0.880798 -0.473492<-148.389 274.947>
LayerCount: 2
Fore
SplineSet
856 1954 m 0,0,1
 932 1954 932 1954 984 1901 c 128,-1,2
 1036 1848 1036 1848 1036 1773 c 0,3,4
 1036 1699 1036 1699 983 1644 c 0,5,6
 931 1590 931 1590 856 1590 c 0,7,8
 779 1590 779 1590 727.5 1644 c 128,-1,9
 676 1698 676 1698 676 1772 c 0,10,11
 676 1848 676 1848 728 1900 c 0,12,13
 781 1954 781 1954 856 1954 c 0,0,1
498 -20 m 0,14,15
 196 -20 196 -20 85 184 c 0,16,17
 76 200 76 200 76 219 c 0,18,19
 76 256 76 256 122 282 c 2,20,-1
 236 347 l 2,21,22
 262 362 262 362 281 362 c 0,23,24
 306 362 306 362 328 327 c 0,25,26
 392 230 392 230 529 230 c 0,27,28
 655 230 655 230 743 304 c 0,29,30
 818 368 818 368 833 456 c 0,31,32
 836 472 836 472 836 486 c 0,33,34
 836 590 836 590 701 664 c 2,35,-1
 543 750 l 2,36,37
 342 860 342 860 342 1076 c 0,38,39
 342 1106 342 1106 346 1139 c 0,40,41
 369 1328 369 1328 528 1441 c 0,42,43
 640 1520 640 1520 788 1520 c 0,44,45
 1008 1520 1008 1520 1096 1361 c 0,46,47
 1106 1343 1106 1343 1106 1325 c 0,48,49
 1106 1290 1106 1290 1059 1263 c 2,50,-1
 957 1205 l 2,51,52
 931 1190 931 1190 911 1190 c 0,53,54
 888 1191 888 1191 864 1225 c 0,55,56
 832 1270 832 1270 763 1270 c 0,57,58
 697 1270 697 1270 659 1237 c 0,59,60
 620 1203 620 1203 611 1147 c 0,61,62
 609 1135 609 1135 609 1123 c 0,63,64
 609 1035 609 1035 730 970 c 2,65,-1
 903 877 l 2,66,67
 1113 763 1113 763 1113 516 c 0,68,69
 1113 495 1113 495 1112 474 c 0,70,71
 1099 279 1099 279 950 144 c 0,72,73
 769 -20 769 -20 498 -20 c 0,14,15
EndSplineSet
Validated: 19457
EndChar

StartChar: uni1E61
Encoding: 7777 7777 181
Width: 1200
Flags: W
HStem: -20 241<398.5 676.592> 897 223<589.382 778.092> 1180 364<665.131 899.338>
VStem: 311 268<758.42 870.772> 603 360<1244.3 1481.73> 746 261<286.275 450.92>
LayerCount: 2
Fore
SplineSet
783 1544 m 0,0,1
 859 1544 859 1544 911 1491 c 128,-1,2
 963 1438 963 1438 963 1363 c 0,3,4
 963 1289 963 1289 910 1234 c 0,5,6
 858 1180 858 1180 783 1180 c 0,7,8
 706 1180 706 1180 654.5 1234 c 128,-1,9
 603 1288 603 1288 603 1362 c 0,10,11
 603 1438 603 1438 655 1490 c 0,12,13
 708 1544 708 1544 783 1544 c 0,0,1
505 -20 m 0,14,15
 235 -20 235 -20 122 168 c 0,16,17
 110 188 110 188 110 208 c 0,18,19
 110 238 110 238 159 266 c 2,20,-1
 267 328 l 2,21,22
 293 343 293 343 313 343 c 0,23,24
 339 342 339 342 360 308 c 16,25,26
 415 221 415 221 524 221 c 0,27,28
 608 221 608 221 671 261 c 128,-1,29
 734 301 734 301 744 359 c 16,30,31
 746 369 746 369 746 379 c 0,32,33
 746 410 746 410 726 432 c 0,34,35
 703 457 703 457 652 476 c 2,36,-1
 550 514 l 2,37,38
 434 557 434 557 376 622 c 0,39,40
 311 694 311 694 311 796 c 0,41,42
 312 815 312 815 314 836 c 0,43,44
 328 962 328 962 448 1052 c 0,45,46
 539 1120 539 1120 705 1120 c 0,47,48
 921 1120 921 1120 1008 970 c 0,49,50
 1019 951 1019 951 1019 934 c 0,51,52
 1019 900 1019 900 971 872 c 2,53,-1
 882 821 l 2,54,55
 856 806 856 806 837 806 c 0,56,57
 816 806 816 806 790 841 c 16,58,59
 749 897 749 897 684 897 c 0,60,61
 623 897 623 897 591 860 c 0,62,63
 579 846 579 846 579 822 c 0,64,65
 579 769 579 769 681 729 c 2,66,-1
 805 680 l 2,67,68
 896 644 896 644 952 574 c 0,69,70
 1007 504 1007 504 1007 405 c 0,71,72
 1007 384 1007 384 1005 363 c 0,73,74
 987 194 987 194 857 95 c 0,75,76
 705 -20 705 -20 505 -20 c 0,14,15
EndSplineSet
Validated: 19457
EndChar

StartChar: uni1E6A
Encoding: 7786 7786 182
Width: 1200
Flags: W
HStem: 0 21G<282 477> 1250 250<112.029 462 732 1128.92> 1590 364<553.131 787.338>
VStem: 491 360<1654.3 1891.73>
DStem2: 241.833 0 511.833 0 0.173648 0.984808<51.2831 1269.24>
LayerCount: 2
Fore
SplineSet
671 1954 m 0,0,1
 747 1954 747 1954 799 1901 c 128,-1,2
 851 1848 851 1848 851 1773 c 0,3,4
 851 1699 851 1699 798 1644 c 0,5,6
 746 1590 746 1590 671 1590 c 0,7,8
 594 1590 594 1590 542.5 1644 c 128,-1,9
 491 1698 491 1698 491 1772 c 0,10,11
 491 1848 491 1848 543 1900 c 0,12,13
 596 1954 596 1954 671 1954 c 0,0,1
312 0 m 2,14,15
 252 0 252 0 252 50 c 0,16,17
 252 59 252 59 254 69 c 2,18,-1
 462 1250 l 1,19,-1
 142 1250 l 2,20,21
 80 1250 80 1250 80 1288 c 0,22,23
 80 1293 80 1293 81 1299 c 2,24,-1
 104 1431 l 2,25,26
 116 1500 116 1500 186 1500 c 2,27,-1
 1096 1500 l 2,28,29
 1156 1500 1156 1500 1156 1450 c 0,30,31
 1156 1441 1156 1441 1154 1431 c 2,32,-1
 1131 1299 l 2,33,34
 1122 1250 1122 1250 1052 1250 c 2,35,-1
 732 1250 l 1,36,-1
 524 69 l 2,37,38
 512 0 512 0 442 0 c 2,39,-1
 312 0 l 2,14,15
EndSplineSet
Validated: 19457
EndChar

StartChar: uni1E6B
Encoding: 7787 7787 183
Width: 1200
Flags: W
HStem: 0 240<696.73 953.314> 860 240<157.268 450 752 1042.73> 1480 20G<598 783> 1590 364<623.131 857.338>
VStem: 130 940<879.474 1080.53> 374 262<299.109 541.944> 561 360<1654.3 1891.73>
DStem2: 298.479 0 557.95 0 0.173648 0.984808<472.014 873.246 1162.04 1517.04>
LayerCount: 2
Fore
SplineSet
741 1954 m 0,0,1
 817 1954 817 1954 869 1901 c 128,-1,2
 921 1848 921 1848 921 1773 c 0,3,4
 921 1699 921 1699 868 1644 c 0,5,6
 816 1590 816 1590 741 1590 c 0,7,8
 664 1590 664 1590 612.5 1644 c 128,-1,9
 561 1698 561 1698 561 1772 c 0,10,11
 561 1848 561 1848 613 1900 c 0,12,13
 666 1954 666 1954 741 1954 c 0,0,1
818 0 m 2,14,15
 571 0 571 0 465 136 c 0,16,17
 374 254 374 254 374 391 c 0,18,19
 374 429 374 429 381 468 c 2,20,-1
 450 860 l 1,21,-1
 190 860 l 2,22,23
 130 860 130 860 130 910 c 0,24,25
 130 919 130 919 132 929 c 2,26,-1
 150 1031 l 2,27,28
 162 1100 162 1100 232 1100 c 2,29,-1
 492 1100 l 1,30,-1
 551 1431 l 2,31,32
 563 1500 563 1500 633 1500 c 2,33,-1
 753 1500 l 2,34,35
 813 1500 813 1500 813 1450 c 0,36,37
 813 1441 813 1441 811 1431 c 2,38,-1
 752 1100 l 1,39,-1
 1010 1100 l 2,40,41
 1070 1100 1070 1100 1070 1050 c 0,42,43
 1070 1041 1070 1041 1068 1031 c 2,44,-1
 1050 929 l 2,45,46
 1038 860 1038 860 968 860 c 2,47,-1
 710 860 l 1,48,-1
 641 471 l 2,49,50
 636 444 636 444 636 419 c 0,51,52
 636 347 636 347 678 301 c 0,53,54
 733 240 733 240 841 240 c 2,55,-1
 925 240 l 2,56,57
 981 240 981 240 981 194 c 0,58,59
 981 186 981 186 979 176 c 2,60,-1
 959 64 l 2,61,62
 948 0 948 0 882 0 c 2,63,-1
 818 0 l 2,14,15
EndSplineSet
Validated: 19457
EndChar

StartChar: Wgrave
Encoding: 7808 7808 184
Width: 1200
Flags: W
HStem: 0 21G<32 252.5 512.5 733.5> 1480 20G<121 306 983 1167>
VStem: 78 258<1283.53 1496.76>
DStem2: 228 320 306 69 0.285709 0.958316<0 374.422>
LayerCount: 2
Fore
SplineSet
62 0 m 2,0,1
 2 0 2 0 2 62 c 0,2,3
 2 66 2 66 2 69 c 2,4,-1
 76 1431 l 2,5,6
 78 1459 78 1459 78 1460 c 0,7,8
 86 1500 86 1500 156 1500 c 2,9,-1
 276 1500 l 2,10,11
 336 1500 336 1500 336 1441 c 0,12,13
 336 1436 336 1436 336 1431 c 2,14,-1
 228 320 l 1,15,-1
 420 964 l 2,16,17
 440 1032 440 1032 504 1032 c 2,18,-1
 622 1032 l 2,19,20
 684 1032 684 1032 684 975 c 0,21,22
 684 969 684 969 684 962 c 2,23,-1
 648 320 l 1,24,-1
 932 1431 l 2,25,26
 950 1500 950 1500 1016 1500 c 2,27,-1
 1136 1500 l 2,28,29
 1198 1500 1198 1500 1198 1465 c 0,30,31
 1198 1451 1198 1451 1192 1431 c 2,32,-1
 786 69 l 2,33,34
 765 0 765 0 702 0 c 2,35,-1
 542 0 l 2,36,37
 483 0 483 0 482 62 c 0,38,39
 482 65 482 65 482 69 c 2,40,-1
 492 632 l 1,41,-1
 306 69 l 2,42,43
 283 0 283 0 222 0 c 2,44,-1
 62 0 l 2,0,1
639 1980 m 0,45,46
 661 1980 661 1980 673 1954 c 2,47,-1
 797 1689 l 2,48,49
 802 1678 802 1678 802 1667 c 0,50,51
 802 1637 802 1637 766 1613 c 2,52,-1
 723 1584 l 2,53,54
 702 1570 702 1570 681 1570 c 0,55,56
 658 1570 658 1570 644 1591 c 2,57,-1
 487 1831 l 2,58,59
 478 1844 478 1844 478 1860 c 0,60,61
 478 1888 478 1888 516 1913 c 2,62,-1
 599 1967 l 2,63,64
 619 1980 619 1980 639 1980 c 0,45,46
EndSplineSet
Validated: 1
EndChar

StartChar: wgrave
Encoding: 7809 7809 185
Width: 1200
Flags: W
HStem: 0 21G<71 321 547.5 796.5> 1080 20G<82 244 1003.5 1171>
VStem: 40 207<280 597.922> 47 234<716.078 1096.37>
DStem2: 247 280 373 69 0.260654 0.965432<0 619.456>
LayerCount: 2
Fore
SplineSet
603 1570 m 0,0,1
 625 1570 625 1570 637 1544 c 2,2,-1
 761 1279 l 2,3,4
 766 1268 766 1268 766 1257 c 0,5,6
 766 1227 766 1227 730 1203 c 2,7,-1
 687 1174 l 2,8,9
 666 1160 666 1160 645 1160 c 0,10,11
 622 1160 622 1160 608 1181 c 2,12,-1
 451 1421 l 2,13,14
 442 1434 442 1434 442 1450 c 0,15,16
 442 1478 442 1478 480 1503 c 2,17,-1
 563 1557 l 2,18,19
 583 1570 583 1570 603 1570 c 0,0,1
102 0 m 2,20,21
 40 0 40 0 40 69 c 9,22,-1
 47 1031 l 2,23,24
 47 1053 47 1053 49 1062 c 0,25,26
 56 1100 56 1100 108 1100 c 2,27,-1
 207 1100 l 2,28,29
 281 1100 281 1100 281 1034 c 9,30,-1
 247 280 l 1,31,-1
 429 964 l 2,32,33
 447 1032 447 1032 515 1032 c 2,34,-1
 709 1032 l 2,35,36
 770 1032 770 1032 770 974 c 0,37,38
 770 969 770 969 770 963 c 2,39,-1
 712 280 l 1,40,-1
 946 1038 l 2,41,42
 965 1100 965 1100 1042 1100 c 2,43,-1
 1148 1100 l 2,44,45
 1194 1100 1194 1100 1194 1068 c 0,46,47
 1194 1057 1194 1057 1185 1031 c 2,48,-1
 851 69 l 2,49,50
 827 0 827 0 766 0 c 2,51,-1
 578 0 l 2,52,53
 517 0 517 0 517 59 c 0,54,55
 517 64 517 64 517 69 c 2,56,-1
 579 832 l 1,57,-1
 373 69 l 2,58,59
 354 0 354 0 288 0 c 2,60,-1
 102 0 l 2,20,21
EndSplineSet
Validated: 19457
EndChar

StartChar: Wacute
Encoding: 7810 7810 186
Width: 1200
Flags: W
HStem: 0 21G<32 252.5 512.5 733.5> 1480 20G<121 306 983 1167>
VStem: 78 258<1283.53 1496.76>
DStem2: 228 320 306 69 0.285709 0.958316<0 374.422>
LayerCount: 2
Fore
SplineSet
62 0 m 2,0,1
 2 0 2 0 2 62 c 0,2,3
 2 66 2 66 2 69 c 2,4,-1
 76 1431 l 2,5,6
 78 1459 78 1459 78 1460 c 0,7,8
 86 1500 86 1500 156 1500 c 2,9,-1
 276 1500 l 2,10,11
 336 1500 336 1500 336 1441 c 0,12,13
 336 1436 336 1436 336 1431 c 2,14,-1
 228 320 l 1,15,-1
 420 964 l 2,16,17
 440 1032 440 1032 504 1032 c 2,18,-1
 622 1032 l 2,19,20
 684 1032 684 1032 684 975 c 0,21,22
 684 969 684 969 684 962 c 2,23,-1
 648 320 l 1,24,-1
 932 1431 l 2,25,26
 950 1500 950 1500 1016 1500 c 2,27,-1
 1136 1500 l 2,28,29
 1198 1500 1198 1500 1198 1465 c 0,30,31
 1198 1451 1198 1451 1192 1431 c 2,32,-1
 786 69 l 2,33,34
 765 0 765 0 702 0 c 2,35,-1
 542 0 l 2,36,37
 483 0 483 0 482 62 c 0,38,39
 482 65 482 65 482 69 c 2,40,-1
 492 632 l 1,41,-1
 306 69 l 2,42,43
 283 0 283 0 222 0 c 2,44,-1
 62 0 l 2,0,1
822 1980 m 0,45,46
 840 1980 840 1980 856 1967 c 2,47,-1
 933 1903 l 2,48,49
 954 1886 954 1886 954 1864 c 0,50,51
 954 1841 954 1841 934 1821 c 2,52,-1
 702 1591 l 2,53,54
 681 1570 681 1570 657 1570 c 0,55,56
 637 1570 637 1570 621 1584 c 2,57,-1
 576 1623 l 2,58,59
 555 1641 555 1641 555 1662 c 0,60,61
 555 1679 555 1679 571 1699 c 2,62,-1
 778 1954 l 2,63,64
 799 1980 799 1980 822 1980 c 0,45,46
EndSplineSet
Validated: 1
EndChar

